<?xml version="1.0" standalone="no"?>
<!DOCTYPE svg PUBLIC "-//W3C//DTD SVG 1.1//EN" "http://www.w3.org/Graphics/SVG/1.1/DTD/svg11.dtd" >
<!--
2023-2-10: Created with FontForge (http://fontforge.org)
-->
<svg xmlns="http://www.w3.org/2000/svg" xmlns:xlink="http://www.w3.org/1999/xlink" version="1.1">
<metadata>
Created by FontForge 20230101 at Fri Feb 10 18:20:54 2023
 By Jonas Hahnfeld
This font is distributed under the GNU General Public License.
As a special exception, if you create a document which uses
this font, and embed this font or unaltered portions of this
font into the document, this font does not by itself cause the
resulting document to be covered by the GNU General Public License.

</metadata>
<defs>
<font id="Emmentaler-11" horiz-adv-x="241" >
  <font-face 
    font-family="Emmentaler-11"
    font-weight="400"
    font-stretch="normal"
    units-per-em="1000"
    panose-1="2 0 5 3 0 0 0 0 0 0"
    ascent="800"
    descent="-200"
    x-height="267"
    bbox="-525 -2310 1454 2123"
    underline-thickness="50"
    underline-position="-100"
    unicode-range="U+0020-1D12B"
  />
    <missing-glyph />
    <glyph glyph-name="rests.0" unicode="&#xe000;" horiz-adv-x="375" 
d="M357 -156h-339c-10 0 -18 8 -18 18v120c0 10 8 18 18 18h339c10 0 18 -8 18 -18v-120c0 -10 -8 -18 -18 -18z" />
    <glyph glyph-name="rests.1" unicode="&#xe001;" horiz-adv-x="375" 
d="M357 0h-339c-10 0 -18 8 -18 18v120c0 10 8 18 18 18h339c10 0 18 -8 18 -18v-120c0 -10 -8 -18 -18 -18z" />
    <glyph glyph-name="rests.0o" unicode="&#xe002;" horiz-adv-x="375" 
d="M357 -156h-339c-10 0 -18 8 -18 18v100h-118c-21 0 -38 17 -38 38s17 38 38 38h611c21 0 38 -17 38 -38s-17 -38 -38 -38h-118v-100c0 -10 -8 -18 -18 -18z" />
    <glyph glyph-name="rests.1o" unicode="&#xe003;" horiz-adv-x="375" 
d="M493 -38h-611c-21 0 -38 17 -38 38s17 38 38 38h118v100c0 10 8 18 18 18h339c10 0 18 -8 18 -18v-100h118c21 0 38 -17 38 -38s-17 -38 -38 -38z" />
    <glyph glyph-name="rests.M3" unicode="&#xe004;" horiz-adv-x="449" 
d="M432 -250h-114c-10 0 -18 8 -18 18v464c0 10 8 18 18 18h114c10 0 18 -8 18 -18v-464c0 -10 -8 -18 -18 -18zM132 -250h-114c-10 0 -18 8 -18 18v464c0 10 8 18 18 18h114c10 0 18 -8 18 -18v-464c0 -10 -8 -18 -18 -18z" />
    <glyph glyph-name="rests.M2" unicode="&#xe005;" horiz-adv-x="149" 
d="M132 -250h-114c-10 0 -18 8 -18 18v464c0 10 8 18 18 18h114c10 0 18 -8 18 -18v-464c0 -10 -8 -18 -18 -18z" />
    <glyph glyph-name="rests.M1" unicode="&#xe006;" horiz-adv-x="149" 
d="M132 0h-114c-10 0 -18 8 -18 18v214c0 10 8 18 18 18h114c10 0 18 -8 18 -18v-214c0 -10 -8 -18 -18 -18z" />
    <glyph glyph-name="rests.M1o" unicode="&#xe007;" horiz-adv-x="149" 
d="M237 -38h-324c-21 0 -38 17 -38 38s17 38 38 38h87v174h-87c-21 0 -38 17 -38 38s17 38 38 38h324c21 0 38 -17 38 -38s-17 -38 -38 -38h-87v-174h87c21 0 38 -17 38 -38s-17 -38 -38 -38z" />
    <glyph glyph-name="rests.2" unicode="&#xe008;" horiz-adv-x="237" 
d="M-14 76c0 59 122 87 122 184c0 26 -9 53 -27 74l-23 26c-4 5 -6 10 -6 15c0 13 12 24 25 24c6 0 13 -2 18 -8l145 -174c8 -9 11 -18 11 -27c0 -59 -122 -86 -122 -183c0 -26 9 -53 27 -74l71 -84c4 -5 6 -11 6 -16c0 -13 -12 -24 -25 -24c-18 0 -27 34 -89 34
c-45 0 -60 -19 -60 -62c0 -58 28 -88 28 -94s-6 -12 -12 -12c-16 0 -101 131 -101 201c0 35 18 46 60 46c24 0 52 -5 80 -13l-117 140c-8 9 -11 18 -11 27z" />
    <glyph glyph-name="rests.2classical" unicode="&#xe009;" horiz-adv-x="250" 
d="M92 114c42 0 2 91 87 91c41 0 76 -32 76 -73c0 -45 -40 -78 -87 -78c-33 0 -64 9 -95 20l122 -324c-12 -10 -27 -15 -42 -15s-30 5 -42 15l-111 402c4 8 12 14 22 14c22 0 47 -52 70 -52z" />
    <glyph glyph-name="rests.2z" unicode="&#xe00a;" horiz-adv-x="281" 
d="M283 -177c0 -15 -13 -26 -27 -26c-35 0 -70 89 -97 89c-42 0 -2 -91 -87 -91c-41 0 -76 32 -76 73c0 45 40 78 87 78c23 0 45 -6 66 -14l-144 228c-4 5 -7 11 -7 17c0 15 13 26 27 26c35 0 70 -89 97 -89c42 0 2 91 87 91c41 0 76 -32 76 -73c0 -45 -40 -78 -87 -78
c-23 0 -45 6 -66 14l145 -228c4 -5 6 -11 6 -17z" />
    <glyph glyph-name="rests.3" unicode="&#xe00b;" horiz-adv-x="250" 
d="M158 114c23 0 48 52 70 52c10 0 18 -6 22 -14l-111 -402c-12 -10 -27 -15 -42 -15s-30 5 -42 15l122 324c-31 -11 -62 -20 -95 -20c-47 0 -87 33 -87 78c0 41 35 73 76 73c85 0 45 -91 87 -91z" />
    <glyph glyph-name="rests.4" unicode="&#xe00c;" horiz-adv-x="299" 
d="M212 114c21 0 43 52 66 52c3 0 16 -1 22 -14l-168 -652c-12 -10 -27 -15 -42 -15s-29 5 -41 15l102 324c-30 -11 -61 -20 -93 -20c-47 0 -87 33 -87 78c0 41 35 73 76 73c85 0 45 -91 87 -91c14 0 44 47 49 61l48 149c-31 -11 -62 -20 -95 -20c-47 0 -87 33 -87 78
c0 41 36 73 77 73c85 0 44 -91 86 -91z" />
    <glyph glyph-name="rests.5" unicode="&#xe00d;" horiz-adv-x="325" 
d="M241 364c20 0 37 52 62 52c3 0 16 -1 22 -14l-206 -902c-12 -10 -27 -15 -42 -15s-29 5 -41 15l88 325c-31 -11 -63 -21 -96 -21c-47 0 -88 33 -88 78c0 41 36 73 77 73c85 0 45 -91 87 -91c14 0 43 49 47 64l40 146c-31 -11 -62 -20 -95 -20c-47 0 -87 33 -87 78
c0 41 36 73 77 73c85 0 44 -91 86 -91c14 0 42 47 46 61l41 149c-30 -11 -62 -20 -94 -20c-47 0 -87 33 -87 78c0 41 36 73 77 73c85 0 44 -91 86 -91z" />
    <glyph glyph-name="rests.6" unicode="&#xe00e;" horiz-adv-x="349" 
d="M270 364c19 0 32 52 58 52c2 0 16 -1 22 -14l-226 -1152c-12 -10 -27 -15 -42 -15s-29 5 -41 15l74 325c-32 -12 -66 -21 -100 -21c-47 0 -87 33 -87 78c0 41 36 73 77 73c85 0 45 -91 87 -91c15 0 43 50 47 66l33 145c-31 -11 -64 -21 -97 -21c-47 0 -87 33 -87 78
c0 41 36 73 77 73c85 0 44 -91 86 -91c14 0 42 49 45 64l34 146c-31 -11 -63 -20 -96 -20c-47 0 -87 33 -87 78c0 41 36 73 77 73c85 0 45 -91 87 -91c13 0 39 47 42 61l34 149c-30 -11 -61 -20 -93 -20c-47 0 -87 33 -87 78c0 41 36 73 77 73c85 0 44 -91 86 -91z" />
    <glyph glyph-name="rests.7" unicode="&#xe00f;" horiz-adv-x="375" 
d="M299 614c17 0 26 52 54 52c10 0 18 -6 22 -14l-229 -1402c-12 -10 -26 -15 -41 -15s-30 5 -42 15l62 326c-34 -12 -68 -22 -104 -22c-47 0 -87 33 -87 78c0 41 36 73 77 73c85 0 44 -91 86 -91c15 0 45 52 48 68l27 144c-33 -12 -65 -22 -100 -22c-47 0 -87 33 -87 78
c0 41 35 73 76 73c85 0 45 -91 87 -91c15 0 41 50 44 66l28 145c-32 -11 -64 -21 -98 -21c-47 0 -87 33 -87 78c0 41 36 73 77 73c85 0 44 -91 86 -91c14 0 38 49 41 64l28 146c-31 -11 -62 -20 -94 -20c-47 0 -87 33 -87 78c0 41 35 73 76 73c85 0 45 -91 87 -91
c13 0 34 47 37 61l28 149c-30 -11 -60 -20 -91 -20c-47 0 -87 33 -87 78c0 41 36 73 77 73c85 0 44 -91 86 -91z" />
    <glyph glyph-name="rests.8" unicode="&#xe010;" horiz-adv-x="375" 
d="M303 614c16 0 21 53 50 53c10 0 18 -7 22 -15l-222 -1652c-12 -10 -27 -15 -42 -15s-30 5 -42 15l52 327c-35 -12 -71 -23 -108 -23c-47 0 -87 33 -87 78c0 41 35 73 76 73c85 0 45 -91 87 -91c16 0 46 54 49 71l22 141c-34 -12 -69 -22 -105 -22c-47 0 -87 33 -87 78
c0 41 36 73 77 73c85 0 45 -91 87 -91c15 0 42 52 45 68l22 144c-33 -12 -66 -22 -101 -22c-47 0 -87 33 -87 78c0 41 36 73 77 73c85 0 45 -91 87 -91c14 0 38 50 40 66l23 145c-31 -11 -64 -21 -97 -21c-47 0 -87 33 -87 78c0 41 36 73 77 73c85 0 44 -91 86 -91
c14 0 35 48 37 63l23 147c-30 -11 -61 -20 -93 -20c-47 0 -87 33 -87 78c0 41 36 73 77 73c85 0 44 -91 86 -91c13 0 31 47 33 61l24 148c-29 -10 -59 -19 -90 -19c-47 0 -87 33 -87 78c0 41 36 73 77 73c85 0 44 -91 86 -91z" />
    <glyph glyph-name="rests.9" unicode="&#xe011;" horiz-adv-x="375" 
d="M307 864c16 0 15 53 46 53c2 0 16 -1 22 -15l-208 -1902c-12 -10 -27 -15 -42 -15s-30 5 -42 15l43 328c-36 -13 -73 -24 -112 -24c-47 0 -87 33 -87 78c0 41 35 73 76 73c85 0 45 -91 87 -91c16 0 48 56 50 74l18 139c-35 -12 -71 -23 -108 -23c-47 0 -87 33 -87 78
c0 41 35 73 76 73c85 0 45 -91 87 -91c15 0 44 54 46 71l18 141c-34 -12 -68 -22 -104 -22c-47 0 -87 33 -87 78c0 41 36 73 77 73c85 0 44 -91 86 -91c15 0 40 52 42 68l18 143c-32 -12 -66 -21 -100 -21c-47 0 -87 33 -87 78c0 41 36 73 77 73c85 0 44 -91 86 -91
c14 0 36 51 38 66l18 145c-31 -11 -63 -21 -96 -21c-47 0 -87 33 -87 78c0 41 36 73 77 73c85 0 45 -91 87 -91c13 0 31 49 33 64l18 146c-30 -11 -59 -20 -91 -20c-47 0 -87 33 -87 78c0 41 35 73 76 73c85 0 45 -91 87 -91c13 0 26 47 28 61l20 148
c-28 -10 -58 -19 -88 -19c-47 0 -87 33 -87 78c0 41 35 73 76 73c85 0 45 -91 87 -91z" />
    <glyph glyph-name="rests.10" unicode="&#xe012;" horiz-adv-x="375" 
d="M353 917c10 0 18 -6 22 -15l-189 -2152c-12 -10 -26 -15 -41 -15s-30 5 -42 15l34 329c-38 -13 -76 -25 -116 -25c-47 0 -87 33 -87 78c0 41 36 73 77 73c85 0 44 -91 86 -91c17 0 50 57 52 76l15 138c-36 -13 -74 -24 -112 -24c-47 0 -87 33 -87 78c0 41 35 73 76 73
c85 0 45 -91 87 -91c16 0 45 55 47 73l15 140c-35 -12 -71 -23 -108 -23c-47 0 -87 33 -87 78c0 41 36 73 77 73c85 0 44 -91 86 -91c15 0 41 54 43 71l15 141c-33 -12 -68 -22 -103 -22c-47 0 -87 33 -87 78c0 41 35 73 76 73c85 0 45 -91 87 -91c14 0 36 53 38 69l15 142
c-32 -11 -65 -21 -99 -21c-47 0 -87 33 -87 78c0 41 36 73 77 73c85 0 44 -91 86 -91c14 0 32 51 34 66l15 144c-31 -11 -62 -20 -94 -20c-47 0 -87 33 -87 78c0 41 35 73 76 73c85 0 45 -91 87 -91c13 0 27 49 29 63l15 146c-29 -10 -59 -19 -90 -19c-47 0 -87 33 -87 78
c0 41 36 73 77 73c85 0 44 -91 86 -91c13 0 24 47 25 61l15 147c-28 -10 -56 -18 -85 -18c-47 0 -87 33 -87 78c0 41 35 73 76 73c85 0 45 -91 87 -91c15 0 10 53 42 53z" />
    <glyph glyph-name="accidentals.sharp" unicode="&#xe013;" horiz-adv-x="275" 
d="M52 37c-5 -2 -9 -4 -16 -4c-19 0 -36 16 -36 36v41c0 14 9 28 22 33l30 13v144c0 14 11 26 25 26s26 -12 26 -26v-124l69 29v145c0 14 12 25 26 25s25 -11 25 -25v-124c5 2 9 4 16 4c19 0 36 -16 36 -36v-42c0 -14 -9 -28 -22 -33l-30 -12v-144c5 2 9 4 16 4
c19 0 36 -16 36 -36v-41c0 -14 -9 -28 -22 -33l-30 -13v-144c0 -14 -11 -26 -25 -26s-26 12 -26 26v124l-69 -29v-145c0 -14 -12 -25 -26 -25s-25 11 -25 25v124c-5 -2 -9 -4 -16 -4c-19 0 -36 16 -36 36v42c0 14 9 28 22 33l30 12v144zM172 86l-69 -28v-144l69 28v144z" />
    <glyph glyph-name="accidentals.sharp.figbass" unicode="&#x266f;" horiz-adv-x="275" 
d="M52 274c-5 -2 -9 -4 -16 -4c-19 0 -36 16 -36 36v41c0 14 9 28 22 33l30 12v108c0 14 11 25 25 25s26 -11 26 -25v-87l69 29v107c0 14 12 26 26 26s25 -12 25 -26v-87c5 2 9 4 16 4c19 0 36 -15 36 -35v-42c0 -14 -9 -28 -22 -33l-30 -12v-118c5 2 9 4 16 4
c19 0 36 -16 36 -36v-41c0 -14 -9 -28 -22 -33l-30 -12v-108c0 -14 -11 -25 -25 -25s-26 11 -26 25v87l-69 -29v-107c0 -14 -12 -26 -26 -26s-25 12 -25 26v87c-5 -2 -9 -4 -16 -4c-19 0 -36 15 -36 35v42c0 14 9 28 22 33l30 12v118zM172 323l-69 -29v-117l69 29v117z" />
    <glyph glyph-name="accidentals.sharp.arrowup" unicode="&#xe014;" horiz-adv-x="275" 
d="M52 37c-5 -2 -9 -4 -16 -4c-19 0 -36 16 -36 36v41c0 14 9 28 22 33l30 13v144c0 14 11 26 25 26s26 -12 26 -26v-124l69 29v145v82c0 13 -5 18 -12 18c-22 0 -71 -43 -83 -43c-7 0 -13 6 -13 13c0 2 1 6 3 8c52 74 87 157 121 241c4 9 16 9 20 0
c34 -84 69 -167 121 -241c2 -2 2 -6 2 -8c0 -7 -6 -13 -13 -13c-12 0 -61 43 -83 43c-7 0 -12 -5 -12 -18v-206c5 2 9 4 16 4c19 0 36 -16 36 -36v-42c0 -14 -9 -28 -22 -33l-30 -12v-144c5 2 9 4 16 4c19 0 36 -16 36 -36v-41c0 -14 -9 -28 -22 -33l-30 -13v-144
c0 -14 -11 -26 -25 -26s-26 12 -26 26v124l-69 -29v-145c0 -14 -12 -25 -26 -25s-25 11 -25 25v124c-5 -2 -9 -4 -16 -4c-19 0 -36 16 -36 36v42c0 14 9 28 22 33l30 12v144zM172 86l-69 -28v-144l69 28v144z" />
    <glyph glyph-name="accidentals.sharp.arrowdown" unicode="&#xe015;" horiz-adv-x="275" 
d="M52 37c-5 -2 -9 -4 -16 -4c-19 0 -36 16 -36 36v41c0 14 9 28 22 33l30 13v144c0 14 11 26 25 26s26 -12 26 -26v-124l69 29v145c0 14 12 25 26 25s25 -11 25 -25v-124c5 2 9 4 16 4c19 0 36 -16 36 -36v-42c0 -14 -9 -28 -22 -33l-30 -12v-144c5 2 9 4 16 4
c19 0 36 -16 36 -36v-41c0 -14 -9 -28 -22 -33l-30 -13v-144c0 -14 -11 -26 -25 -26s-26 12 -26 26v124l-69 -29v-227c0 -13 5 -18 12 -18c22 0 71 43 83 43c7 0 13 -6 13 -13c0 -2 -1 -6 -3 -8c-52 -74 -87 -157 -121 -241c-4 -9 -16 -9 -20 0c-34 84 -69 167 -121 241
c-2 2 -2 6 -2 8c0 7 6 13 13 13c12 0 61 -43 83 -43c7 0 12 5 12 18v206c-5 -2 -9 -4 -16 -4c-19 0 -36 16 -36 36v42c0 14 9 28 22 33l30 12v144zM172 86l-69 -28v-144l69 28v144z" />
    <glyph glyph-name="accidentals.sharp.arrowboth" unicode="&#xe016;" horiz-adv-x="275" 
d="M52 37c-5 -2 -9 -4 -16 -4c-19 0 -36 16 -36 36v41c0 14 9 28 22 33l30 13v144c0 14 11 26 25 26s26 -12 26 -26v-124l69 29v145v82c0 13 -5 18 -12 18c-22 0 -71 -43 -83 -43c-7 0 -13 6 -13 13c0 2 1 6 3 8c52 74 87 157 121 241c4 9 16 9 20 0
c34 -84 69 -167 121 -241c2 -2 2 -6 2 -8c0 -7 -6 -13 -13 -13c-12 0 -61 43 -83 43c-7 0 -12 -5 -12 -18v-206c5 2 9 4 16 4c19 0 36 -16 36 -36v-42c0 -14 -9 -28 -22 -33l-30 -12v-144c5 2 9 4 16 4c19 0 36 -16 36 -36v-41c0 -14 -9 -28 -22 -33l-30 -13v-144
c0 -14 -11 -26 -25 -26s-26 12 -26 26v124l-69 -29v-145v-82c0 -13 5 -18 12 -18c22 0 71 43 83 43c7 0 13 -6 13 -13c0 -2 -1 -6 -3 -8c-52 -74 -87 -157 -121 -241c-4 -9 -16 -9 -20 0c-34 84 -69 167 -121 241c-2 2 -2 6 -2 8c0 7 6 13 13 13c12 0 61 -43 83 -43
c7 0 12 5 12 18v206c-5 -2 -9 -4 -16 -4c-19 0 -36 16 -36 36v42c0 14 9 28 22 33l30 12v144zM172 86l-69 -28v-144l69 28v144z" />
    <glyph glyph-name="accidentals.sharp.slashslash.stem" unicode="&#xe017;" horiz-adv-x="174" 
d="M113 -52c12 7 16 11 26 11c19 0 36 -15 36 -36v-42c0 -12 -6 -23 -16 -30l-46 -29v-129c0 -14 -11 -25 -25 -25s-26 11 -26 25v96c-12 -7 -16 -10 -26 -10c-19 0 -36 15 -36 36v41c0 12 6 23 16 30l46 30v136c-12 -7 -16 -11 -26 -11c-19 0 -36 15 -36 36v42
c0 12 6 23 16 30l46 29v129c0 14 12 26 26 26s25 -12 25 -26v-96c12 7 16 10 26 10c19 0 36 -15 36 -36v-41c0 -12 -6 -23 -16 -30l-46 -30v-136z" />
    <glyph glyph-name="accidentals.sharp.slashslashslash.stemstem" unicode="&#xe018;" horiz-adv-x="275" 
d="M223 88c6 2 9 4 16 4c19 0 36 -16 36 -36v-34c0 -15 -9 -28 -23 -33l-29 -12v-48c19 0 36 -15 36 -35v-22c0 -15 -9 -28 -23 -33l-13 -5v-138c0 -14 -11 -25 -25 -25s-26 11 -26 25v118l-69 -26v-138c0 -14 -12 -25 -26 -25s-25 11 -25 25v121c-19 0 -36 15 -36 35v22
c0 15 9 28 23 33l13 5v46c-6 -2 -9 -4 -16 -4c-19 0 -36 16 -36 36v34c0 15 9 28 23 33l29 12v48c-19 0 -36 15 -36 35v22c0 15 9 28 23 33l13 5v138c0 14 11 25 25 25s26 -11 26 -25v-118l69 26v138c0 14 12 25 26 25s25 -11 25 -25v-121c19 0 36 -15 36 -35v-22
c0 -15 -9 -28 -23 -33l-13 -5v-46zM103 -69v-45l69 26v46zM103 42l69 27v45l-69 -26v-46z" />
    <glyph glyph-name="accidentals.sharp.slashslashslash.stem" unicode="&#xe019;" horiz-adv-x="237" 
d="M119 -333c-14 0 -25 12 -25 26v94l-19 -9c-5 -3 -11 -3 -16 -3c-19 0 -35 14 -35 35v22c0 14 8 26 20 32l50 24v38l-43 -21c-5 -3 -10 -4 -15 -4c-19 0 -36 15 -36 36v45c0 14 8 26 20 32l74 36v37l-19 -9c-5 -3 -11 -3 -16 -3c-19 0 -35 14 -35 35v22c0 14 8 26 20 32
l50 24v119c0 14 11 25 25 25s25 -11 25 -25v-94l18 9c5 3 11 3 16 3c19 0 36 -14 36 -35v-22c0 -14 -8 -26 -20 -32l-50 -24v-38l42 21c5 3 11 4 16 4c19 0 36 -15 36 -36v-45c0 -14 -8 -26 -20 -32l-74 -36v-37l18 9c5 3 11 3 16 3c19 0 36 -14 36 -35v-22
c0 -14 -8 -26 -20 -32l-50 -24v-119c0 -14 -11 -26 -25 -26z" />
    <glyph glyph-name="accidentals.sharp.slash.stem" unicode="&#xe01a;" horiz-adv-x="237" 
d="M119 -332c-14 0 -25 11 -25 25v235l-43 -20c-5 -2 -10 -4 -15 -4c-19 0 -36 15 -36 36v41c0 14 8 26 20 32l74 35v259c0 14 11 26 25 26s25 -12 25 -26v-235l43 20c5 2 10 4 15 4c19 0 36 -15 36 -36v-41c0 -14 -9 -26 -21 -32l-73 -35v-259c0 -14 -11 -25 -25 -25z" />
    <glyph glyph-name="accidentals.sharp.slashslash.stemstemstem" unicode="&#xe01b;" horiz-adv-x="400" 
d="M200 -343c-14 0 -25 11 -25 25v122l-62 -18v-136c0 -14 -11 -25 -25 -25s-26 11 -26 25v122l-17 -5c-3 -1 -6 -1 -9 -1c-19 0 -36 16 -36 36v41c0 16 11 30 26 34l36 11v147l-17 -5c-3 -1 -6 -2 -9 -2c-19 0 -36 16 -36 36v42c0 16 11 30 26 34l36 10v136
c0 14 12 26 26 26s25 -12 25 -26v-122l62 18v136c0 14 11 25 25 25s25 -11 25 -25v-122l62 18v136c0 14 12 25 26 25s25 -11 25 -25v-122l17 5c3 1 6 1 9 1c19 0 36 -16 36 -36v-41c0 -16 -11 -30 -26 -34l-36 -11v-147l17 5c3 1 6 2 9 2c19 0 36 -16 36 -36v-42
c0 -16 -11 -30 -26 -34l-36 -10v-136c0 -14 -11 -26 -25 -26s-26 12 -26 26v122l-62 -18v-136c0 -14 -11 -25 -25 -25zM113 49v-147l62 17v147zM287 98l-62 -17v-147l62 17v147z" />
    <glyph glyph-name="accidentals.doublesharp" unicode="&#xe01c;" horiz-adv-x="250" 
d="M159 0c21 -21 53 -26 83 -26c10 0 18 -8 18 -18l8 -81c1 -10 -8 -19 -18 -18l-81 8c-10 1 -18 8 -18 18c0 30 -5 62 -26 83c-21 -21 -26 -53 -26 -83c0 -10 -8 -17 -18 -18l-81 -8c-10 -1 -19 8 -18 18l8 81c0 10 8 18 18 18c30 0 62 5 83 26c-21 21 -53 26 -83 26
c-10 0 -18 8 -18 18l-8 81c-1 10 8 19 18 18l81 -8c10 -1 18 -8 18 -18c0 -30 5 -62 26 -83c21 21 26 53 26 83c0 10 8 17 18 18l81 8c10 1 19 -8 18 -18l-8 -81c0 -10 -8 -18 -18 -18c-30 0 -62 -5 -83 -26z" />
    <glyph glyph-name="accidentals.doublesharp.figbass" unicode="&#x1d12a;" horiz-adv-x="275" 
d="M172 250c25 -25 59 -39 95 -39c10 0 18 -7 18 -17l8 -82c1 -10 -8 -18 -18 -17l-81 8c-10 1 -18 8 -18 18c0 36 -13 70 -38 95c-25 -25 -39 -59 -39 -95c0 -10 -8 -17 -18 -18l-81 -8c-10 -1 -19 7 -18 17l8 82c0 10 8 17 18 17c36 0 70 14 95 39c-25 25 -59 39 -95 39
c-10 0 -18 7 -18 17l-8 82c-1 10 8 18 18 17l81 -8c10 -1 18 -8 18 -18c0 -36 14 -70 39 -95c25 25 38 59 38 95c0 10 8 17 18 18l81 8c10 1 19 -7 18 -17l-8 -82c0 -10 -8 -17 -18 -17c-36 0 -70 -14 -95 -39z" />
    <glyph glyph-name="accidentals.natural" unicode="&#xe01d;" horiz-adv-x="166" 
d="M-9 375c9 5 20 8 30 8s20 -3 29 -8l-3 -207l93 27c2 1 4 0 6 0c11 0 21 -9 21 -20l9 -550c-9 -5 -20 -8 -30 -8s-21 3 -30 8l4 207l-94 -27c-2 -1 -3 0 -5 0c-11 0 -21 9 -21 20zM124 106l-78 -23l-3 -189l78 23z" />
    <glyph glyph-name="accidentals.natural.figbass" unicode="&#x266e;" horiz-adv-x="275" 
d="M32 549c9 5 20 8 30 8s21 -3 30 -8l-3 -153l119 30h5c11 0 21 -9 21 -20l9 -455c-9 -5 -20 -8 -30 -8s-21 3 -30 8l3 153l-119 -30h-5c-11 0 -21 9 -21 20zM191 338l-104 -26l-3 -150l104 26z" />
    <glyph glyph-name="accidentals.natural.arrowup" unicode="&#xe01e;" horiz-adv-x="166" 
d="M140 407c-12 0 -60 42 -82 42c-8 0 -13 -4 -13 -17c-1 -88 0 -177 -1 -265l96 28c2 1 4 0 6 0c11 0 21 -9 21 -20l9 -550c-9 -5 -20 -8 -30 -8s-21 3 -30 8l4 207l-94 -27c-2 -1 -3 0 -5 0c-11 0 -21 9 -21 20l-4 550v57c0 13 -4 17 -12 17c-22 0 -71 -42 -83 -42
c-7 0 -13 6 -13 13c0 2 1 5 3 7c52 74 86 158 120 242c4 9 15 9 19 0c34 -84 69 -168 121 -242c2 -2 2 -5 2 -7c0 -7 -6 -13 -13 -13zM124 106l-81 -23l-1 -189l79 23z" />
    <glyph glyph-name="accidentals.natural.arrowdown" unicode="&#xe01f;" horiz-adv-x="220" 
d="M53 -407c12 0 61 -42 83 -42c8 0 12 4 12 17l1 57l1 208l-96 -28c-2 -1 -4 0 -6 0c-11 0 -21 9 -21 20l-9 550c9 5 20 8 30 8s20 -3 29 -8l-3 -207l93 27c2 1 4 0 6 0c11 0 21 -9 21 -20l3 -550l1 -57c0 -13 4 -17 12 -17c22 0 71 42 83 42c7 0 12 -6 12 -13
c0 -2 0 -5 -2 -7c-52 -74 -86 -158 -120 -242c-4 -9 -16 -9 -20 0c-34 84 -68 168 -120 242c-2 2 -2 5 -2 7c0 7 5 13 12 13zM152 106l-79 -23l-3 -189l81 23z" />
    <glyph glyph-name="accidentals.natural.arrowboth" unicode="&#xe020;" horiz-adv-x="220" 
d="M53 -407c12 0 61 -42 83 -42c8 0 12 4 12 17l1 57c0 69 1 139 1 208l-96 -28c-2 -1 -4 0 -6 0c-11 0 -21 9 -21 20l-3 550l-1 57c0 13 -4 17 -12 17c-22 0 -71 -42 -83 -42c-7 0 -12 6 -12 13c0 2 0 5 2 7c52 74 86 158 120 242c4 9 16 9 20 0c34 -84 68 -168 120 -242
c2 -2 2 -5 2 -7c0 -7 -5 -13 -12 -13c-12 0 -61 42 -83 42c-8 0 -13 -4 -13 -17v-57l-1 -208l96 28c2 1 4 0 6 0c11 0 21 -9 21 -20l3 -550l1 -57c0 -13 4 -17 12 -17c22 0 71 42 83 42c7 0 12 -6 12 -13c0 -2 0 -5 -2 -7c-52 -74 -86 -158 -120 -242c-4 -9 -16 -9 -20 0
c-34 84 -68 168 -120 242c-2 2 -2 5 -2 7c0 7 5 13 12 13zM152 106l-82 -23l-1 -189l82 23z" />
    <glyph glyph-name="accidentals.flat" unicode="&#xe021;" horiz-adv-x="200" 
d="M37 30l-2 -55v-10c0 -21 2 -42 5 -62c40 38 83 79 83 134c0 30 -13 61 -39 61c-31 0 -46 -34 -47 -68zM-19 -144l-16 580c11 6 23 9 35 9s24 -3 35 -9l-9 -330c25 29 61 46 99 46c49 0 75 -54 75 -108c0 -75 -75 -117 -129 -169c-20 -20 -28 -57 -58 -57
c-19 0 -32 18 -32 38z" />
    <glyph glyph-name="accidentals.flat.figbass" unicode="&#x266d;" horiz-adv-x="275" 
d="M96 165l-2 -58v-10c0 -20 2 -40 5 -60c37 38 75 80 75 133c0 30 -9 60 -35 60c-29 0 -42 -32 -43 -65zM40 0l-16 549c11 6 23 10 35 10s24 -4 35 -10l-9 -311c23 29 58 46 95 46c48 0 71 -53 71 -107c0 -74 -71 -118 -123 -170c-20 -20 -27 -56 -57 -56
c-22 0 -31 24 -31 49z" />
    <glyph glyph-name="accidentals.flat.arrowup" unicode="&#xe022;" horiz-adv-x="200" 
d="M37 30l-2 -55v-10c0 -21 2 -42 5 -62c40 38 83 79 83 134c0 30 -13 61 -39 61c-31 0 -46 -34 -47 -68zM124 407c-14 0 -62 44 -83 44c-7 0 -12 -4 -12 -17l-1 -59l-5 -269c26 29 63 46 102 46c49 0 75 -54 75 -108c0 -75 -75 -117 -129 -169c-20 -20 -28 -57 -58 -57
c-19 0 -32 18 -32 38l-9 519l-1 59c0 13 -5 17 -12 17c-21 0 -69 -44 -83 -44c-8 0 -15 7 -15 15c0 13 53 61 128 247c4 10 18 10 22 0c34 -84 73 -165 125 -239c2 -3 3 -5 3 -8c0 -8 -7 -15 -15 -15z" />
    <glyph glyph-name="accidentals.flat.arrowdown" unicode="&#xe023;" horiz-adv-x="200" 
d="M37 30l-2 -55v-10c0 -21 2 -42 5 -62c40 38 83 79 83 134c0 30 -13 61 -39 61c-31 0 -46 -34 -47 -68zM200 44c0 -111 -177 -165 -177 -245v-104c0 -13 5 -18 13 -18c17 0 49 24 77 40c10 6 21 -6 14 -16c-88 -125 -115 -289 -133 -245c-34 84 -65 171 -117 245
c-7 10 5 22 15 16c28 -16 59 -40 76 -40c8 0 13 5 13 18v161l-16 580c11 6 23 9 35 9s24 -3 35 -9l-9 -330c25 29 61 46 99 46c49 0 75 -54 75 -108z" />
    <glyph glyph-name="accidentals.flat.arrowboth" unicode="&#xe024;" horiz-adv-x="200" 
d="M37 30l-2 -55v-10c0 -21 2 -42 5 -62c40 38 83 79 83 134c0 30 -13 61 -39 61c-31 0 -46 -34 -47 -68zM200 44c0 -111 -177 -165 -177 -244v-105c0 -13 5 -18 13 -18c17 0 49 24 77 40c10 6 21 -6 14 -16c-88 -125 -115 -289 -133 -245c-34 84 -65 171 -117 245
c-7 10 5 22 15 16c28 -16 59 -40 76 -40c8 0 13 5 13 18v161l-9 519l-1 59c0 13 -5 17 -12 17c-21 0 -69 -44 -83 -44c-8 0 -15 7 -15 15c0 13 53 61 128 247c4 10 18 10 22 0c34 -84 73 -165 125 -239c2 -3 3 -5 3 -8c0 -8 -7 -15 -15 -15c-14 0 -62 44 -83 44
c-7 0 -12 -4 -12 -17l-1 -59l-5 -269c26 29 63 46 102 46c49 0 75 -54 75 -108z" />
    <glyph glyph-name="accidentals.flat.slash" unicode="&#xe025;" horiz-adv-x="200" 
d="M37 30l-2 -55v-10c0 -21 2 -42 5 -62c40 38 83 79 83 134c0 30 -13 61 -39 61c-31 0 -46 -34 -47 -68zM100 328c16 0 28 -12 28 -28c0 -10 -5 -20 -15 -25l-84 -42l-3 -127c25 29 61 46 99 46c49 0 75 -54 75 -108c0 -75 -75 -117 -129 -169c-20 -20 -28 -57 -58 -57
c-19 0 -32 18 -32 38l-10 348l-58 -29c-4 -2 -9 -3 -13 -3c-16 0 -28 12 -28 28c0 10 5 20 15 25l83 42l-5 169c11 6 23 9 35 9s24 -3 35 -9l-4 -139l56 28c4 2 9 3 13 3z" />
    <glyph glyph-name="accidentals.flat.slashslash" unicode="&#xe026;" horiz-adv-x="200" 
d="M37 30l-2 -55v-10c0 -21 2 -42 5 -62c40 38 83 79 83 134c0 30 -13 61 -39 61c-31 0 -46 -34 -47 -68zM100 266c16 0 28 -12 28 -28c0 -10 -5 -21 -15 -26l-85 -42l-2 -64c25 29 61 46 99 46c49 0 75 -54 75 -108c0 -75 -75 -117 -129 -169c-20 -20 -28 -57 -58 -57
c-19 0 -32 18 -32 38l-8 286l-60 -30c-4 -2 -9 -3 -13 -3c-16 0 -28 12 -28 28c0 10 5 21 15 26l84 42l-1 61l-57 -29c-4 -2 -9 -3 -13 -3c-16 0 -28 12 -28 28c0 10 5 21 15 26l81 40l-3 108c11 6 23 9 35 9s24 -3 35 -9l-2 -75l54 27c4 2 9 3 13 3c16 0 28 -12 28 -28
c0 -10 -5 -21 -15 -26l-82 -41l-1 -62l57 29c4 2 9 3 13 3z" />
    <glyph glyph-name="accidentals.mirroredflat.flat" unicode="&#xe027;" horiz-adv-x="400" 
d="M213 -182h-24c-30 0 -38 37 -58 57c-54 52 -129 94 -129 169c0 54 26 108 75 108c38 0 74 -17 99 -46l-11 330c11 6 23 9 35 9s24 -3 35 -9l-9 -330c25 29 61 46 99 46c49 0 75 -54 75 -108c0 -75 -75 -117 -129 -169c-20 -20 -28 -57 -58 -57zM163 30
c-1 34 -16 68 -47 68c-26 0 -39 -30 -39 -60c0 -55 43 -97 83 -135c3 20 5 41 5 62v10zM237 30l-2 -55v-10c0 -21 2 -42 5 -62c40 38 83 79 83 134c0 30 -13 61 -39 61c-31 0 -46 -34 -47 -68z" />
    <glyph glyph-name="accidentals.mirroredflat" unicode="&#xe028;" horiz-adv-x="200" 
d="M118 30c-1 34 -17 68 -48 68c-26 0 -38 -31 -38 -61c0 -55 42 -96 82 -134c3 20 5 41 5 62v10zM173 -144c0 -20 -12 -38 -31 -38c-30 0 -39 37 -59 57c-54 52 -128 94 -128 169c0 54 26 108 75 108c38 0 74 -17 99 -46l-10 330c11 6 24 9 36 9s24 -3 35 -9z" />
    <glyph glyph-name="accidentals.mirroredflat.backslash" unicode="&#xe029;" horiz-adv-x="200" 
d="M63 30c-1 34 -16 68 -47 68c-26 0 -39 -31 -39 -61c0 -55 43 -96 83 -134c3 20 5 41 5 62v10zM0 296c4 0 9 -1 13 -3l57 -28l-5 171c11 6 23 9 35 9s24 -3 35 -9l-5 -201l83 -42c10 -5 15 -15 15 -25c0 -16 -12 -29 -28 -29c-4 0 -9 1 -13 3l-59 30l-9 -316
c0 -20 -13 -38 -32 -38c-30 0 -38 37 -58 57c-54 52 -129 94 -129 169c0 54 26 108 75 108c38 0 74 -17 99 -46l-3 94l-84 42c-10 5 -15 16 -15 26c0 16 12 28 28 28z" />
    <glyph glyph-name="accidentals.flatflat" unicode="&#xe02a;" horiz-adv-x="362" 
d="M200 30l-2 -55v-10c0 -21 2 -42 5 -62c39 38 76 80 76 134c0 30 -10 61 -36 61c-30 0 -42 -34 -43 -68zM198 436l-10 -330c23 29 59 46 96 46c50 0 78 -52 78 -107c0 -75 -74 -118 -128 -170c-20 -20 -29 -57 -59 -57c-19 0 -31 18 -31 38l-3 102
c-23 -29 -53 -55 -78 -83c-18 -20 -21 -57 -50 -57c-19 0 -32 18 -32 38l-16 580c11 6 23 9 35 9s24 -3 35 -9l-9 -330c15 28 44 46 76 46c13 0 25 -3 34 -10l-9 294c11 6 23 9 35 9s25 -3 36 -9zM61 98c-20 0 -39 0 -39 -134c0 -22 2 -45 6 -67c35 40 64 87 64 140
c0 29 -6 61 -31 61z" />
    <glyph glyph-name="accidentals.flatflat.figbass" unicode="&#x1d12b;" horiz-adv-x="412" 
d="M243 165l-1 -58c0 -4 -1 -6 -1 -10c0 -21 2 -42 6 -63c41 38 82 81 82 136c0 30 -11 60 -38 60c-30 0 -47 -32 -48 -65zM241 549l-9 -311c25 29 61 46 99 46c50 0 82 -52 82 -107c0 -76 -79 -118 -134 -170c-21 -20 -30 -56 -60 -56c-22 0 -32 24 -32 49l-3 97
c-24 -32 -56 -60 -84 -90c-18 -20 -23 -56 -52 -56c-22 0 -32 24 -32 49l-16 549c11 6 23 10 35 10s24 -4 35 -10l-9 -311c16 28 46 46 78 46c16 0 29 -6 40 -15l-8 280c11 6 23 10 35 10s24 -4 35 -10zM99 230c-21 0 -42 0 -42 -134c0 -23 2 -45 6 -67c37 40 68 87 68 141
c0 29 -7 60 -32 60z" />
    <glyph glyph-name="accidentals.flatflat.slash" unicode="&#xe02b;" horiz-adv-x="362" 
d="M200 30l-2 -55v-10c0 -21 2 -42 5 -62c39 38 76 80 76 134c0 30 -10 61 -36 61c-30 0 -42 -34 -43 -68zM133 242l-105 -58l-2 -78c15 28 44 46 76 46c13 0 25 -3 34 -10zM-132 100c-21 0 -38 16 -38 37c0 13 7 27 19 34l121 67l-5 198c11 6 23 9 35 9s24 -3 35 -9
l-4 -164l99 55l-3 109c11 6 23 9 35 9s25 -3 36 -9l-2 -73l57 33c6 3 13 4 19 4c21 0 38 -16 38 -37c0 -13 -8 -27 -20 -34l-97 -54l-5 -169c23 29 59 46 96 46c50 0 78 -52 78 -107c0 -75 -74 -118 -128 -170c-20 -20 -29 -57 -59 -57c-19 0 -31 18 -31 38l-3 102
c-23 -29 -53 -55 -78 -83c-18 -20 -21 -57 -50 -57c-19 0 -32 18 -32 38l-8 297l-87 -49c-6 -3 -12 -4 -18 -4zM61 98c-20 0 -39 0 -39 -134c0 -22 2 -45 6 -67c35 40 64 87 64 140c0 29 -6 61 -31 61z" />
    <glyph glyph-name="accidentals.sharp.sori" unicode="&#xe02c;" horiz-adv-x="330" 
d="M80 -337c-14 0 -26 11 -26 25v113l-51 -33c-6 -4 -12 -5 -19 -5c-20 0 -36 15 -36 35v10c0 12 7 23 17 30l89 57v210l-89 57c-10 7 -17 18 -17 30v8c0 20 16 36 36 36c7 0 13 -2 19 -6l51 -32v73c0 14 12 25 26 25s25 -11 25 -25v-105l70 -44v190c0 14 11 25 25 25
s25 -11 25 -25v-222l88 -56c10 -7 17 -18 17 -30v-9c0 -12 -7 -23 -17 -30l-88 -56v-180c0 -14 -11 -25 -25 -25s-25 11 -25 25v148l-70 -44v-145c0 -14 -11 -25 -25 -25zM105 -73l115 73l-115 73v-146z" />
    <glyph glyph-name="accidentals.flat.koron" unicode="&#xe02d;" horiz-adv-x="275" 
d="M-35 -436l9 311v273c0 16 13 27 27 27c5 0 9 -1 13 -4l249 -155c16 -10 16 -36 0 -46l-235 -150l7 -256c-11 -6 -23 -9 -35 -9s-24 3 -35 9zM26 -104l163 104l-163 101v-205z" />
    <glyph glyph-name="accidentals.rightparen" unicode="&#xe02e;" horiz-adv-x="162" 
d="M31 -250c0 21 63 57 63 250s-63 229 -63 250c0 10 9 19 19 19c5 0 12 -2 16 -8c54 -77 90 -167 90 -261s-36 -184 -90 -261c-4 -6 -11 -8 -16 -8c-10 0 -19 9 -19 19z" />
    <glyph glyph-name="accidentals.leftparen" unicode="&#xe02f;" horiz-adv-x="0" 
d="M-31 -250c0 -10 -9 -19 -19 -19c-5 0 -12 2 -16 8c-54 77 -90 167 -90 261s36 184 90 261c4 6 11 8 16 8c10 0 19 -9 19 -19c0 -21 -63 -57 -63 -250s63 -229 63 -250z" />
    <glyph glyph-name="arrowheads.open.01" unicode="&#xe030;" horiz-adv-x="30" 
d="M-220 125c28 0 81 -95 220 -95c20 0 30 -15 30 -30s-10 -30 -30 -30c-139 0 -192 -95 -220 -95c-17 0 -30 13 -30 30c0 29 71 77 111 95c-40 18 -111 66 -111 95c0 17 13 30 30 30z" />
    <glyph glyph-name="arrowheads.open.0M1" unicode="&#xe031;" horiz-adv-x="250" 
d="M220 125c17 0 30 -13 30 -30c0 -29 -71 -77 -111 -95c40 -18 111 -66 111 -95c0 -17 -13 -30 -30 -30c-28 0 -81 95 -220 95c-20 0 -30 15 -30 30s10 30 30 30c139 0 192 95 220 95z" />
    <glyph glyph-name="arrowheads.open.11" unicode="&#xe032;" horiz-adv-x="125" 
d="M-125 -220c0 28 95 81 95 220c0 20 15 30 30 30s30 -10 30 -30c0 -139 95 -192 95 -220c0 -17 -13 -30 -30 -30c-29 0 -77 71 -95 111c-18 -40 -66 -111 -95 -111c-17 0 -30 13 -30 30z" />
    <glyph glyph-name="arrowheads.open.1M1" unicode="&#xe033;" horiz-adv-x="125" 
d="M-125 220c0 17 13 30 30 30c29 0 77 -71 95 -111c18 40 66 111 95 111c17 0 30 -13 30 -30c0 -28 -95 -81 -95 -220c0 -20 -15 -30 -30 -30s-30 10 -30 30c0 139 -95 192 -95 220z" />
    <glyph glyph-name="arrowheads.close.01" unicode="&#xe034;" horiz-adv-x="0" 
d="M0 18c12 0 18 -9 18 -18s-6 -18 -18 -18c-56 0 -183 -58 -219 -101c-13 -15 -37 -1 -30 18c12 32 18 67 18 101c0 83 -31 106 -13 121c8 6 19 5 25 -2c36 -43 163 -101 219 -101z" />
    <glyph glyph-name="arrowheads.close.0M1" unicode="&#xe035;" horiz-adv-x="250" 
d="M0 18c56 0 183 58 219 101c6 7 17 8 25 2c18 -15 -13 -38 -13 -121c0 -34 6 -69 18 -101c7 -19 -17 -33 -30 -18c-36 43 -163 101 -219 101c-12 0 -18 9 -18 18s6 18 18 18z" />
    <glyph glyph-name="arrowheads.close.11" unicode="&#xe036;" horiz-adv-x="125" 
d="M-18 0c0 12 9 18 18 18s18 -6 18 -18c0 -56 58 -183 101 -219c15 -13 1 -37 -18 -30c-32 12 -67 18 -101 18c-83 0 -106 -31 -121 -13c-6 8 -5 19 2 25c43 36 101 163 101 219z" />
    <glyph glyph-name="arrowheads.close.1M1" unicode="&#xe037;" horiz-adv-x="125" 
d="M18 0c0 -12 -9 -18 -18 -18s-18 6 -18 18c0 56 -58 183 -101 219c-15 13 -1 37 18 30c32 -12 67 -18 101 -18c83 0 106 31 121 13c6 -8 5 -19 -2 -25c-43 -36 -101 -163 -101 -219z" />
    <glyph glyph-name="dots.dot" unicode="&#xe038;" horiz-adv-x="106" 
d="M0 0c0 29 24 53 53 53s53 -24 53 -53s-24 -53 -53 -53s-53 24 -53 53z" />
    <glyph glyph-name="scripts.ufermata" unicode="&#xe039;" horiz-adv-x="340" 
d="M-80 51c0 44 36 80 80 80s80 -36 80 -80s-36 -79 -80 -79s-80 35 -80 79zM0 372c261 0 341 -337 341 -376c0 -14 -13 -24 -27 -24c-13 0 -26 8 -30 28c-25 142 -141 253 -284 253s-259 -111 -284 -253c-4 -20 -17 -28 -30 -28c-14 0 -27 10 -27 24c0 39 80 376 341 376z
" />
    <glyph glyph-name="scripts.dfermata" unicode="&#xe03a;" horiz-adv-x="340" 
d="M-80 -51c0 44 36 79 80 79s80 -35 80 -79s-36 -80 -80 -80s-80 36 -80 80zM0 -372c-261 0 -341 337 -341 376c0 14 13 24 27 24c13 0 26 -8 30 -28c25 -142 141 -253 284 -253s259 111 284 253c4 20 17 28 30 28c14 0 27 -10 27 -24c0 -39 -80 -376 -341 -376z" />
    <glyph glyph-name="scripts.uhenzeshortfermata" unicode="&#xe03b;" horiz-adv-x="340" 
d="M-80 51c0 44 36 80 80 80s80 -36 80 -80s-36 -79 -80 -79s-80 35 -80 79zM0 372c16 0 28 -12 28 -28v-63c0 -16 -12 -28 -28 -28c-143 0 -259 -111 -284 -253c-4 -20 -17 -28 -30 -28c-14 0 -27 10 -27 24c0 39 80 376 341 376z" />
    <glyph glyph-name="scripts.dhenzeshortfermata" unicode="&#xe03c;" horiz-adv-x="340" 
d="M-80 -51c0 44 36 79 80 79s80 -35 80 -79s-36 -80 -80 -80s-80 36 -80 80zM0 -372c-261 0 -341 337 -341 376c0 14 13 24 27 24c13 0 26 -8 30 -28c25 -142 141 -253 284 -253c16 0 28 -12 28 -28v-63c0 -16 -12 -28 -28 -28z" />
    <glyph glyph-name="scripts.uhenzelongfermata" unicode="&#xe03d;" horiz-adv-x="340" 
d="M-207 51c0 44 36 80 80 80s79 -36 79 -80s-35 -79 -79 -79s-80 35 -80 79zM48 51c0 44 35 80 79 80s80 -36 80 -80s-36 -79 -80 -79s-79 35 -79 79zM0 372c261 0 341 -337 341 -376c0 -14 -13 -24 -27 -24c-13 0 -26 8 -30 28c-25 142 -141 253 -284 253
s-259 -111 -284 -253c-4 -20 -17 -28 -30 -28c-14 0 -27 10 -27 24c0 39 80 376 341 376z" />
    <glyph glyph-name="scripts.dhenzelongfermata" unicode="&#xe03e;" horiz-adv-x="340" 
d="M-207 -51c0 44 36 79 80 79s79 -35 79 -79s-35 -80 -79 -80s-80 36 -80 80zM48 -51c0 44 35 79 79 79s80 -35 80 -79s-36 -80 -80 -80s-79 36 -79 80zM0 -372c-261 0 -341 337 -341 376c0 14 13 24 27 24c13 0 26 -8 30 -28c25 -142 141 -253 284 -253s259 111 284 253
c4 20 17 28 30 28c14 0 27 -10 27 -24c0 -39 -80 -376 -341 -376z" />
    <glyph glyph-name="scripts.ushortfermata" unicode="&#xe03f;" horiz-adv-x="250" 
d="M-107 84c0 46 38 83 84 83s83 -37 83 -83s-37 -84 -83 -84s-84 38 -84 84zM-222 0c-16 0 -28 13 -28 28c0 4 0 8 2 12l222 493c5 10 15 17 26 17s21 -7 26 -17l222 -493c2 -4 2 -8 2 -12c0 -15 -12 -28 -28 -28h-47c-11 0 -21 7 -26 17l-173 381l-172 -381
c-5 -10 -15 -17 -26 -17z" />
    <glyph glyph-name="scripts.dshortfermata" unicode="&#xe040;" horiz-adv-x="250" 
d="M107 -84c0 -46 -38 -83 -84 -83s-83 37 -83 83s37 84 83 84s84 -38 84 -84zM222 0c16 0 28 -13 28 -28c0 -4 0 -8 -2 -12l-222 -493c-5 -10 -15 -17 -26 -17s-21 7 -26 17l-222 493c-2 4 -2 8 -2 12c0 15 12 28 28 28h47c11 0 21 -7 26 -17l173 -381l172 381
c5 10 15 17 26 17z" />
    <glyph glyph-name="scripts.uveryshortfermata" unicode="&#xe041;" horiz-adv-x="312" 
d="M-106 60c0 33 27 60 60 60s60 -27 60 -60s-27 -60 -60 -60s-60 27 -60 60zM-177 0c-16 0 -29 13 -29 28c0 4 1 9 3 13l141 272c5 9 14 15 25 15s21 -6 26 -15l140 -272c2 -4 3 -9 3 -13c0 -15 -12 -28 -28 -28h-19c-11 0 -20 6 -25 15l-106 205l-106 -205
c-5 -9 -14 -15 -25 -15zM-284 0c-16 0 -29 13 -29 28c0 4 2 9 4 13l284 549c5 9 14 15 25 15s20 -6 25 -15l284 -549c2 -4 4 -9 4 -13c0 -15 -13 -28 -29 -28h-63c-11 0 -20 6 -25 15l-227 440l-228 -440c-5 -9 -14 -15 -25 -15z" />
    <glyph glyph-name="scripts.dveryshortfermata" unicode="&#xe042;" horiz-adv-x="312" 
d="M106 -60c0 -33 -27 -60 -60 -60s-60 27 -60 60s27 60 60 60s60 -27 60 -60zM177 0c16 0 29 -13 29 -28c0 -4 -1 -9 -3 -13l-141 -272c-5 -9 -14 -15 -25 -15s-21 6 -26 15l-140 272c-2 4 -3 9 -3 13c0 15 12 28 28 28h19c11 0 20 -6 25 -15l106 -205l106 205
c5 9 14 15 25 15zM284 0c16 0 29 -13 29 -28c0 -4 -2 -9 -4 -13l-284 -549c-5 -9 -14 -15 -25 -15s-20 6 -25 15l-284 549c-2 4 -4 9 -4 13c0 15 13 28 29 28h63c11 0 20 -6 25 -15l227 -440l228 440c5 9 14 15 25 15z" />
    <glyph glyph-name="scripts.ulongfermata" unicode="&#xe043;" horiz-adv-x="312" 
d="M-84 84c0 46 38 83 84 83s84 -37 84 -83s-38 -84 -84 -84s-84 38 -84 84zM-295 375h590c10 0 18 -8 18 -18v-329c0 -16 -13 -28 -29 -28s-28 12 -28 28v234h-512v-234c0 -16 -12 -28 -28 -28s-29 12 -29 28v329c0 10 8 18 18 18z" />
    <glyph glyph-name="scripts.dlongfermata" unicode="&#xe044;" horiz-adv-x="312" 
d="M-84 -84c0 46 38 84 84 84s84 -38 84 -84s-38 -83 -84 -83s-84 37 -84 83zM-295 -375c-10 0 -18 8 -18 18v329c0 16 13 28 29 28s28 -12 28 -28v-234h512v234c0 16 12 28 28 28s29 -12 29 -28v-329c0 -10 -8 -18 -18 -18h-590z" />
    <glyph glyph-name="scripts.uverylongfermata" unicode="&#xe045;" horiz-adv-x="375" 
d="M-60 60c0 33 27 60 60 60s60 -27 60 -60s-27 -60 -60 -60s-60 27 -60 60zM-232 225h464c10 0 18 -8 18 -18v-179c0 -16 -12 -28 -28 -28s-29 12 -29 28v122h-386v-122c0 -16 -13 -28 -29 -28s-28 12 -28 28v179c0 10 8 18 18 18zM-357 400h714c10 0 18 -8 18 -18v-354
c0 -16 -12 -28 -28 -28s-29 12 -29 28v247h-636v-247c0 -16 -13 -28 -29 -28s-28 12 -28 28v354c0 10 8 18 18 18z" />
    <glyph glyph-name="scripts.dverylongfermata" unicode="&#xe046;" horiz-adv-x="375" 
d="M-60 -60c0 33 27 60 60 60s60 -27 60 -60s-27 -60 -60 -60s-60 27 -60 60zM-232 -225c-10 0 -18 8 -18 18v179c0 16 12 28 28 28s29 -12 29 -28v-122h386v122c0 16 13 28 29 28s28 -12 28 -28v-179c0 -10 -8 -18 -18 -18h-464zM-357 -400c-10 0 -18 8 -18 18v354
c0 16 12 28 28 28s29 -12 29 -28v-247h636v247c0 16 13 28 29 28s28 -12 28 -28v-354c0 -10 -8 -18 -18 -18h-714z" />
    <glyph glyph-name="scripts.thumb" unicode="&#xe047;" horiz-adv-x="100" 
d="M26 -125l-1 -50c0 -14 -11 -25 -25 -25s-25 11 -25 25l-1 50v4c-45 14 -74 66 -74 121c0 65 40 125 100 125s100 -60 100 -125c0 -55 -29 -107 -74 -121v-4zM44 0c0 42 -8 87 -44 87s-44 -45 -44 -87s8 -87 44 -87s44 45 44 87z" />
    <glyph glyph-name="scripts.sforzato" unicode="&#xe048;" horiz-adv-x="187" 
d="M-168 55c-11 3 -20 13 -20 25c0 14 12 25 26 25c2 0 4 -1 6 -1l324 -80c11 -3 20 -12 20 -24s-9 -21 -20 -24l-324 -80c-2 0 -4 -1 -6 -1c-14 0 -26 11 -26 25c0 12 9 22 20 25l187 46l108 9l-108 9z" />
    <glyph glyph-name="scripts.espr" unicode="&#xe049;" horiz-adv-x="474" 
d="M-49 75l-229 -58l-142 -17l142 -17l229 -58c11 -3 19 -13 19 -25c0 -14 -11 -25 -25 -25c-2 0 -4 0 -6 1l-395 100c-11 3 -19 12 -19 24s8 21 19 24l395 100c2 1 4 1 6 1c14 0 25 -11 25 -25c0 -12 -8 -22 -19 -25zM49 75c-11 3 -19 13 -19 25c0 14 11 25 25 25
c2 0 4 0 6 -1l395 -100c11 -3 19 -12 19 -24s-8 -21 -19 -24l-395 -100c-2 -1 -4 -1 -6 -1c-14 0 -25 11 -25 25c0 12 8 22 19 25l229 58l142 17l-142 17z" />
    <glyph glyph-name="scripts.staccato" unicode="&#xe04a;" horiz-adv-x="49" 
d="M-50 0c0 28 22 50 50 50s50 -22 50 -50s-22 -50 -50 -50s-50 22 -50 50z" />
    <glyph glyph-name="scripts.ustaccatissimo" unicode="&#xe04b;" horiz-adv-x="62" 
d="M-19 0l-44 200c-1 3 -1 7 -1 10c0 29 29 53 64 53s64 -24 64 -53c0 -3 0 -7 -1 -10l-44 -200c-2 -10 -9 -19 -19 -19s-17 9 -19 19z" />
    <glyph glyph-name="scripts.dstaccatissimo" unicode="&#xe04c;" horiz-adv-x="62" 
d="M-19 0c2 10 9 19 19 19s17 -9 19 -19l44 -200c1 -3 1 -7 1 -10c0 -29 -29 -53 -64 -53s-64 24 -64 53c0 3 0 7 1 10z" />
    <glyph glyph-name="scripts.tenuto" unicode="&#xe04d;" horiz-adv-x="150" 
d="M120 -30h-240c-17 0 -30 13 -30 30s13 30 30 30h240c17 0 30 -13 30 -30s-13 -30 -30 -30z" />
    <glyph glyph-name="scripts.uportato" unicode="&#xe04e;" horiz-adv-x="150" 
d="M-55 180c0 31 24 56 55 56s55 -25 55 -56s-24 -55 -55 -55s-55 24 -55 55zM124 -26h-248c-15 0 -26 11 -26 26s11 26 26 26h248c15 0 26 -11 26 -26s-11 -26 -26 -26z" />
    <glyph glyph-name="scripts.dportato" unicode="&#xe04f;" horiz-adv-x="150" 
d="M-55 -180c0 31 24 55 55 55s55 -24 55 -55s-24 -56 -55 -56s-55 25 -55 56zM124 26c15 0 26 -11 26 -26s-11 -26 -26 -26h-248c-15 0 -26 11 -26 26s11 26 26 26h248z" />
    <glyph glyph-name="scripts.umarcato" unicode="&#xe050;" horiz-adv-x="125" 
d="M-106 0c-11 0 -19 9 -19 19c0 3 1 5 2 8l106 237c3 7 10 11 17 11s14 -4 17 -11l106 -237c1 -3 2 -5 2 -8c0 -10 -8 -19 -19 -19h-62c-7 0 -15 4 -18 11l-58 128l-57 -128c-3 -7 -10 -11 -17 -11z" />
    <glyph glyph-name="scripts.dmarcato" unicode="&#xe051;" horiz-adv-x="125" 
d="M106 0c11 0 19 -9 19 -19c0 -3 -1 -5 -2 -8l-106 -237c-3 -7 -10 -11 -17 -11s-14 4 -17 11l-106 237c-1 3 -2 5 -2 8c0 10 8 19 19 19h62c7 0 15 -4 18 -11l58 -128l57 128c3 7 10 11 17 11z" />
    <glyph glyph-name="scripts.open" unicode="&#xe052;" horiz-adv-x="100" 
d="M100 0c0 -65 -40 -125 -100 -125s-100 60 -100 125s40 125 100 125s100 -60 100 -125zM52 0c0 43 -15 87 -52 87s-52 -44 -52 -87s15 -87 52 -87s52 44 52 87z" />
    <glyph glyph-name="scripts.halfopen" unicode="&#xe053;" horiz-adv-x="100" 
d="M57 103l52 66c16 20 48 -5 32 -25l-58 -73c11 -21 17 -45 17 -71c0 -65 -40 -125 -100 -125c-22 0 -41 8 -57 22l-52 -66c-16 -20 -48 5 -32 25l58 73c-11 21 -17 45 -17 71c0 65 40 125 100 125c22 0 41 -8 57 -22zM-50 -30l82 102c-8 9 -18 15 -32 15
c-37 0 -52 -44 -52 -87c0 -10 0 -20 2 -30zM-32 -72c8 -9 18 -15 32 -15c37 0 52 44 52 87c0 10 0 20 -2 30z" />
    <glyph glyph-name="scripts.halfopenvertical" unicode="&#xe054;" horiz-adv-x="100" 
d="M20 123c49 -12 80 -65 80 -123s-31 -111 -80 -123v-65c0 -11 -9 -19 -20 -19s-20 8 -20 19v65c-49 12 -80 65 -80 123s31 111 80 123v65c0 11 9 19 20 19s20 -8 20 -19v-65zM20 -82c23 13 32 48 32 82s-9 69 -32 82v-164zM-20 -82v164c-23 -13 -32 -48 -32 -82
s9 -69 32 -82z" />
    <glyph glyph-name="scripts.stopped" unicode="&#xe055;" horiz-adv-x="137" 
d="M0 -138c-21 0 -38 17 -38 38v62h-62c-21 0 -38 17 -38 38s17 38 38 38h62v62c0 21 17 38 38 38s38 -17 38 -38v-62h62c21 0 38 -17 38 -38s-17 -38 -38 -38h-62v-62c0 -21 -17 -38 -38 -38z" />
    <glyph glyph-name="scripts.upbow" unicode="&#xe056;" horiz-adv-x="162" 
d="M111 501c3 11 13 19 25 19c15 0 26 -11 26 -26c0 -3 0 -6 -1 -8l-136 -467c-3 -11 -13 -19 -25 -19s-22 8 -25 19l-136 467c-1 2 -1 5 -1 8c0 15 11 26 26 26c12 0 22 -8 25 -19l80 -273l31 -154l31 154z" />
    <glyph glyph-name="scripts.downbow" unicode="&#xe057;" horiz-adv-x="187" 
d="M-170 333h340c10 0 17 -7 17 -17v-293c0 -13 -9 -23 -22 -23s-23 10 -23 23v177h-284v-177c0 -13 -10 -23 -23 -23s-23 10 -23 23v293c0 10 8 17 18 17z" />
    <glyph glyph-name="scripts.reverseturn" unicode="&#xe058;" horiz-adv-x="273" 
d="M137 132c75 0 136 -58 136 -132c0 -70 -45 -132 -111 -132c-39 0 -75 23 -75 58s26 59 59 59c22 0 43 -11 53 -34c22 4 41 23 41 49s-25 44 -52 44c-115 0 -192 -176 -325 -176c-75 0 -136 58 -136 132c0 70 45 132 111 132c39 0 75 -23 75 -58s-26 -59 -59 -59
c-22 0 -43 11 -53 34c-22 -4 -41 -23 -41 -49s25 -44 52 -44c115 0 192 176 325 176z" />
    <glyph glyph-name="scripts.turn" unicode="&#xe059;" horiz-adv-x="273" 
d="M137 -132c-133 0 -210 176 -325 176c-27 0 -52 -18 -52 -44s19 -45 41 -49c10 23 31 34 53 34c33 0 59 -24 59 -59s-36 -58 -75 -58c-66 0 -111 62 -111 132c0 74 61 132 136 132c133 0 210 -176 325 -176c27 0 52 18 52 44s-19 45 -41 49c-10 -23 -31 -34 -53 -34
c-33 0 -59 24 -59 59s36 58 75 58c66 0 111 -62 111 -132c0 -74 -61 -132 -136 -132z" />
    <glyph glyph-name="scripts.slashturn" unicode="&#xe05a;" horiz-adv-x="273" 
d="M24 43c45 -43 99 -87 164 -87c27 0 52 18 52 44s-19 45 -41 49c-10 -23 -31 -34 -53 -34c-33 0 -59 24 -59 59s36 58 75 58c66 0 111 -62 111 -132c0 -74 -61 -132 -136 -132c-43 0 -80 20 -113 47v-68c0 -13 -11 -23 -24 -23s-24 10 -24 23v110c-45 43 -99 87 -164 87
c-27 0 -52 -18 -52 -44s19 -45 41 -49c10 23 31 34 53 34c33 0 59 -24 59 -59s-36 -58 -75 -58c-66 0 -111 62 -111 132c0 74 61 132 136 132c43 0 80 -20 113 -47v68c0 13 11 23 24 23s24 -10 24 -23v-110z" />
    <glyph glyph-name="scripts.haydnturn" unicode="&#xe05b;" horiz-adv-x="250" 
d="M253 58c0 -8 -66 -133 -177 -133c-18 0 -35 3 -52 8v-59c0 -13 -11 -24 -24 -24s-24 11 -24 24v76c-1 1 -3 1 -4 2c-35 14 -68 35 -106 35c-67 0 -83 -62 -101 -62c-9 0 -18 8 -18 17c0 8 66 133 177 133c18 0 35 -3 52 -8v59c0 13 11 24 24 24s24 -11 24 -24v-76
c1 -1 3 -1 4 -2c35 -14 68 -35 106 -35c67 0 83 62 101 62c9 0 18 -8 18 -17z" />
    <glyph glyph-name="scripts.trill" unicode="&#xe05c;" horiz-adv-x="212" 
d="M-152 242c-21 17 -46 29 -75 29c-66 0 -77 -66 -24 -66c9 0 42 2 97 27zM-26 106c0 -65 -49 -116 -98 -116c-39 0 -56 43 -56 90c0 14 1 28 4 41l14 69c-19 -8 -61 -22 -97 -22c-19 0 -63 5 -63 54c0 42 36 87 102 87c29 0 54 -8 77 -22l45 223c6 -3 13 -5 20 -5
c22 0 48 16 68 35l-52 -259l61 34c25 14 51 20 73 20c27 0 49 -9 62 -25c18 15 42 23 65 23c39 0 76 -24 76 -78c0 -60 -37 -95 -69 -95c-27 0 -41 23 -41 50c0 46 36 65 64 65c-8 15 -23 23 -38 23c-21 0 -43 -14 -47 -36l-54 -273c-11 7 -25 11 -39 11s-29 -4 -43 -11
l54 273c0 2 1 4 1 6c0 13 -11 22 -26 22c-7 0 -16 -2 -24 -7l-84 -46l-3 -17c26 -33 48 -70 48 -114zM-92 39c26 0 28 60 28 61c0 24 -9 45 -21 64l-3 -13c-4 -20 -18 -63 -18 -90c0 -13 4 -22 14 -22z" />
    <glyph glyph-name="scripts.upedalheel" unicode="&#xe05d;" horiz-adv-x="125" 
d="M0 -68c38 0 68 30 68 68v138c0 16 13 29 29 29s28 -13 28 -29v-138c0 -69 -56 -125 -125 -125s-125 56 -125 125v138c0 16 12 29 28 29s29 -13 29 -29v-138c0 -38 30 -68 68 -68z" />
    <glyph glyph-name="scripts.dpedalheel" unicode="&#xe05e;" horiz-adv-x="125" 
d="M0 68c-38 0 -68 -30 -68 -68v-138c0 -16 -13 -29 -29 -29s-28 13 -28 29v138c0 69 56 125 125 125s125 -56 125 -125v-138c0 -16 -12 -29 -28 -29s-29 13 -29 29v138c0 38 -30 68 -68 68z" />
    <glyph glyph-name="scripts.upedaltoe" unicode="&#xe05f;" horiz-adv-x="125" 
d="M69 355c4 12 15 20 28 20c16 0 28 -12 28 -28c0 -3 0 -6 -1 -9l-97 -318c-4 -12 -14 -20 -27 -20s-23 8 -27 20l-97 318c-1 3 -1 6 -1 9c0 16 12 28 28 28c13 0 24 -8 28 -20l55 -184l14 -92l14 92z" />
    <glyph glyph-name="scripts.dpedaltoe" unicode="&#xe060;" horiz-adv-x="125" 
d="M69 -355l-55 184l-14 92l-14 -92l-55 -184c-4 -12 -15 -20 -28 -20c-16 0 -28 12 -28 28c0 3 0 6 1 9l97 318c4 12 14 20 27 20s23 -8 27 -20l97 -318c1 -3 1 -6 1 -9c0 -16 -12 -28 -28 -28c-13 0 -24 8 -28 20z" />
    <glyph glyph-name="scripts.flageolet" unicode="&#xe061;" horiz-adv-x="100" 
d="M0 100c55 0 100 -45 100 -100s-45 -100 -100 -100s-100 45 -100 100s45 100 100 100zM0 55c-31 0 -55 -24 -55 -55s24 -55 55 -55s55 24 55 55s-24 55 -55 55z" />
    <glyph glyph-name="scripts.segno" unicode="&#xe062;" horiz-adv-x="250" 
d="M-194 -76c0 19 16 35 35 35s35 -16 35 -35s-16 -35 -35 -35s-35 16 -35 35zM124 76c0 19 16 35 35 35s35 -16 35 -35s-16 -35 -35 -35s-35 16 -35 35zM-41 -228c0 24 8 66 61 66c44 0 65 -35 65 -70c0 -29 -14 -57 -40 -69c9 -22 31 -39 57 -39c32 0 57 29 57 62
c0 95 -75 165 -159 217l-180 -314h-70l197 345c-106 63 -197 134 -197 255c0 82 66 150 148 150c80 0 143 -66 143 -147c0 -24 -8 -66 -61 -66c-44 0 -65 35 -65 70c0 29 14 57 40 69c-9 22 -31 39 -57 39c-32 0 -57 -29 -57 -62c0 -95 75 -165 159 -217l180 314h70
l-197 -345c106 -63 197 -134 197 -255c0 -82 -66 -150 -148 -150c-80 0 -143 66 -143 147z" />
    <glyph glyph-name="scripts.varsegno" unicode="&#xe063;" horiz-adv-x="312" 
d="M-49 1003c186 0 336 -146 336 -212c0 -30 -21 -67 -67 -67c-48 0 -74 37 -74 75c0 21 8 42 25 56c-23 21 -114 96 -238 96c-102 0 -169 -55 -169 -129c0 -65 58 -121 118 -163l307 -215c75 -52 125 -133 125 -211c0 -18 -5 -106 -90 -151c55 -51 90 -118 90 -183
c0 -18 -5 -105 -90 -150c55 -51 90 -118 90 -183c0 -18 -5 -106 -90 -151c53 -51 83 -119 83 -188c0 -123 -96 -230 -258 -230c-186 0 -336 146 -336 212c0 30 21 67 67 67c48 0 74 -37 74 -75c0 -21 -8 -42 -25 -56c23 -21 114 -96 238 -96c102 0 169 55 169 129
c0 65 -58 121 -118 163l-307 215c-75 52 -125 133 -125 211c0 18 5 106 90 151c-55 51 -90 118 -90 183c0 18 5 105 90 150c-55 51 -90 118 -90 183c0 18 5 106 90 151c-53 51 -83 119 -83 188c0 123 96 230 258 230zM217 126c39 0 56 32 56 53c0 53 -83 112 -155 162
l-154 108c-61 43 -131 92 -181 92c-39 0 -56 -33 -56 -54c0 -53 83 -112 155 -162l153 -106c70 -49 133 -93 182 -93zM217 -541c39 0 56 33 56 54c0 53 -83 112 -155 162l-153 106c-70 49 -133 93 -182 93c-39 0 -56 -32 -56 -53c0 -53 83 -112 155 -162l154 -108
c61 -43 131 -92 181 -92zM-217 207c-39 0 -56 -32 -56 -53c0 -53 83 -112 155 -162l163 -114c59 -41 125 -85 172 -85c39 0 56 32 56 53c0 53 -83 112 -155 162l-163 114c-59 41 -125 85 -172 85z" />
    <glyph glyph-name="scripts.coda" unicode="&#xe064;" horiz-adv-x="254" 
d="M0 -360c-13 0 -23 9 -23 22v90c-90 15 -137 117 -143 225h-88c-13 0 -23 10 -23 23s10 23 23 23h88c6 108 53 210 143 225v90c0 13 10 22 23 22s23 -9 23 -22v-90c90 -15 137 -117 143 -225h88c13 0 23 -10 23 -23s-10 -23 -23 -23h-88c-6 -108 -53 -210 -143 -225v-90
c0 -13 -10 -22 -23 -22zM23 -23v-178c56 17 67 98 68 178h-68zM23 23h68c-1 80 -12 161 -68 178v-178zM-23 -23h-68c1 -80 12 -161 68 -178v178zM-23 23v178c-56 -17 -67 -98 -68 -178h68z" />
    <glyph glyph-name="scripts.varcoda" unicode="&#xe065;" horiz-adv-x="267" 
d="M0 -373c-13 0 -23 10 -23 23v100h-126c-10 0 -18 8 -18 18v209h-100c-13 0 -23 10 -23 23s10 23 23 23h100v209c0 10 8 18 18 18h126v100c0 13 10 23 23 23s23 -10 23 -23v-100h126c10 0 18 -8 18 -18v-209h100c13 0 23 -10 23 -23s-10 -23 -23 -23h-100v-209
c0 -10 -8 -18 -18 -18h-126v-100c0 -13 -10 -23 -23 -23zM23 -23v-182h43v182h-43zM23 23h43v182h-43v-182zM-23 -23h-43v-182h43v182zM-23 23v182h-43v-182h43z" />
    <glyph glyph-name="scripts.rcomma" unicode="&#xe066;" horiz-adv-x="151" 
d="M72 183c44 0 79 -36 79 -80v-23c0 -127 -121 -191 -135 -191c-9 0 -16 7 -16 16c0 21 80 30 96 143h-32c-35 0 -64 28 -64 63c0 39 33 72 72 72z" />
    <glyph glyph-name="scripts.lcomma" unicode="&#xe067;" horiz-adv-x="0" 
d="M-72 -183c-44 0 -79 36 -79 80v23c0 127 121 191 135 191c9 0 16 -7 16 -16c0 -21 -80 -30 -96 -143h32c35 0 64 -28 64 -63c0 -39 -33 -72 -72 -72z" />
    <glyph glyph-name="scripts.rvarcomma" unicode="&#xe068;" horiz-adv-x="62" 
d="M-63 -173c-12 0 -22 10 -22 24c0 3 1 5 2 8l93 313c7 22 28 35 51 35c33 0 60 -26 60 -56c0 -8 -2 -16 -6 -23l-157 -287c-5 -8 -12 -14 -21 -14z" />
    <glyph glyph-name="scripts.lvarcomma" unicode="&#xe069;" horiz-adv-x="62" 
d="M63 173c12 0 22 -10 22 -24c0 -3 -1 -5 -2 -8l-93 -313c-7 -22 -28 -35 -51 -35c-33 0 -60 26 -60 56c0 8 2 16 6 23l157 287c5 8 12 14 21 14z" />
    <glyph glyph-name="scripts.raltcomma" unicode="&#xe06a;" horiz-adv-x="125" 
d="M55 14c0 49 -28 55 -28 89c0 32 26 57 57 57c46 0 67 -52 67 -88c0 -71 -64 -145 -114 -216c-4 -6 -11 -10 -18 -10c-12 0 -23 10 -23 23c0 17 59 76 59 145z" />
    <glyph glyph-name="scripts.laltcomma" unicode="&#xe06b;" horiz-adv-x="0" 
d="M-55 -14c0 -49 28 -55 28 -89c0 -32 -26 -57 -57 -57c-46 0 -67 52 -67 88c0 71 64 145 114 216c4 6 11 10 18 10c12 0 23 -10 23 -23c0 -17 -59 -76 -59 -145z" />
    <glyph glyph-name="scripts.arpeggio" unicode="&#xe06c;" horiz-adv-x="200" 
d="M-4 79c0 39 89 60 89 122c0 16 -6 33 -18 46l-27 29c-4 4 -5 9 -5 13c0 10 9 19 19 19c3 0 6 -1 10 -3l129 -115c8 -6 11 -12 11 -19c0 -39 -89 -60 -89 -122c0 -16 6 -33 18 -46l27 -29c5 -4 7 -9 7 -14c0 -10 -9 -19 -19 -19c-4 0 -8 1 -12 4l-129 115
c-8 6 -11 12 -11 19z" />
    <glyph glyph-name="scripts.trill_element" unicode="&#xe06d;" horiz-adv-x="250" 
d="M171 -4c-39 0 -60 89 -122 89c-16 0 -33 -6 -46 -18l-29 -27c-4 -4 -9 -5 -13 -5c-10 0 -19 9 -19 19c0 3 1 6 3 10l115 129c6 8 12 11 19 11c39 0 60 -89 122 -89c16 0 33 6 46 18l29 27c4 5 9 7 14 7c10 0 19 -9 19 -19c0 -4 -1 -8 -4 -12l-115 -129
c-6 -8 -12 -11 -19 -11z" />
    <glyph glyph-name="scripts.arpeggio.arrow.M1" unicode="&#xe06e;" horiz-adv-x="200" 
d="M40 276c-5 5 -7 10 -7 15c0 11 10 19 20 19c4 0 8 -1 11 -5l84 -95c10 -11 17 -25 21 -39l74 35c21 10 18 -9 15 -12c-53 -63 -123 -114 -151 -191c-1 -4 -12 -5 -13 -1c-34 94 -153 177 -154 198c0 0 0 14 15 7l88 -42c16 19 35 37 35 57c0 8 -3 17 -11 25z" />
    <glyph glyph-name="scripts.arpeggio.arrow.1" unicode="&#xe06f;" horiz-adv-x="200" 
d="M160 -26c5 -5 7 -10 7 -15c0 -11 -10 -19 -20 -19c-4 0 -8 1 -11 5l-84 95c-10 11 -17 25 -21 39l-74 -35c-21 -10 -18 9 -15 12c53 63 123 114 151 191c1 4 12 5 13 1c34 -94 153 -177 154 -198c0 0 0 -14 -15 -7l-88 42c-16 -19 -35 -37 -35 -57c0 -8 3 -17 11 -25z
" />
    <glyph glyph-name="scripts.prall" unicode="&#xe070;" horiz-adv-x="208" 
d="M231 59c13 0 24 -11 24 -24c0 -7 1 -7 -94 -149c-4 -7 -12 -11 -20 -11c-7 0 -13 3 -18 8l-96 114l-7 -10l-68 -101c-4 -7 -11 -11 -19 -11c-7 0 -14 3 -19 8l-96 114c-37 -56 -36 -56 -49 -56s-24 11 -24 24c0 7 -1 7 94 149c4 7 12 11 20 11c7 0 13 -3 18 -8l96 -114
l7 10l68 101c4 7 11 11 19 11c7 0 14 -3 19 -8l96 -114c37 56 36 56 49 56z" />
    <glyph glyph-name="scripts.mordent" unicode="&#xe071;" horiz-adv-x="208" 
d="M0 -167c-13 0 -24 11 -24 24v64l-24 -35c-4 -7 -11 -11 -19 -11c-7 0 -14 3 -19 8l-96 114c-37 -56 -36 -56 -49 -56s-24 11 -24 24c0 7 -1 7 94 149c4 7 12 11 20 11c7 0 13 -3 18 -8l96 -114l3 4v136c0 13 11 24 24 24s24 -11 24 -24v-64l24 35c4 7 11 11 19 11
c7 0 14 -3 19 -8l96 -114c37 56 36 56 49 56s24 -11 24 -24c0 -7 1 -7 -94 -149c-4 -7 -12 -11 -20 -11c-7 0 -13 3 -18 8l-96 114l-3 -4v-136c0 -13 -11 -24 -24 -24z" />
    <glyph glyph-name="scripts.prallprall" unicode="&#xe072;" horiz-adv-x="312" 
d="M336 59c13 0 23 -11 23 -24c0 -7 1 -7 -94 -149c-4 -7 -12 -11 -20 -11c-7 0 -13 3 -18 8l-96 114l-7 -10l-40 26l68 101c4 7 12 11 20 11c7 0 13 -3 18 -8l96 -114c37 56 37 56 50 56zM-77 -3l-7 -10l-68 -101c-4 -7 -12 -11 -20 -11c-7 0 -13 3 -18 8l-96 114
c-37 -56 -37 -56 -50 -56s-23 11 -23 24c0 7 -1 7 94 149c4 7 12 11 20 11c7 0 13 -3 18 -8l96 -114l7 10l67 101c4 7 12 11 20 11c7 0 14 -3 19 -8l95 -114l7 10l40 -26l-67 -101c-4 -7 -12 -11 -20 -11c-7 0 -14 3 -19 8z" />
    <glyph glyph-name="scripts.prallmordent" unicode="&#xe073;" horiz-adv-x="312" 
d="M104 -167c-13 0 -24 11 -24 24v64l-23 -35c-4 -7 -12 -11 -20 -11c-7 0 -14 3 -19 8l-95 114l-7 -10l-68 -101c-4 -7 -12 -11 -20 -11c-7 0 -13 3 -18 8l-96 114c-37 -56 -37 -56 -50 -56s-23 11 -23 24c0 7 -1 7 94 149c4 7 12 11 20 11c7 0 13 -3 18 -8l96 -114l7 10
l67 101c4 7 12 11 20 11c7 0 14 -3 19 -8l95 -114l3 4v136c0 13 11 24 24 24s24 -11 24 -24v-64l24 35c4 7 12 11 20 11c7 0 13 -3 18 -8l96 -114c37 56 37 56 50 56s23 -11 23 -24c0 -7 1 -7 -94 -149c-4 -7 -12 -11 -20 -11c-7 0 -13 3 -18 8l-96 114l-3 -4v-136
c0 -13 -11 -24 -24 -24z" />
    <glyph glyph-name="scripts.upprall" unicode="&#xe074;" horiz-adv-x="312" 
d="M336 59c13 0 23 -11 23 -24c0 -7 1 -7 -94 -149c-4 -7 -12 -11 -20 -11c-7 0 -13 3 -18 8l-96 114l-7 -10l-40 26l68 101c4 7 12 11 20 11c7 0 13 -3 18 -8l96 -114c37 56 37 56 50 56zM-77 -3l-7 -10l-68 -101c-4 -7 -12 -11 -20 -11c-7 0 -13 3 -18 8l-96 114l-30 -45
c-23 -34 -34 -73 -34 -112c0 -75 38 -109 38 -125c0 -23 -30 -33 -43 -13c-28 42 -42 90 -42 138c0 75 4 81 132 274c4 7 12 11 20 11c7 0 13 -3 18 -8l96 -114l7 10l67 101c4 7 12 11 20 11c7 0 14 -3 19 -8l95 -114l7 10l40 -26l-67 -101c-4 -7 -12 -11 -20 -11
c-7 0 -14 3 -19 8z" />
    <glyph glyph-name="scripts.upmordent" unicode="&#xe075;" horiz-adv-x="312" 
d="M104 -167c-13 0 -24 11 -24 24v64l-23 -35c-4 -7 -12 -11 -20 -11c-7 0 -14 3 -19 8l-95 114l-7 -10l-68 -101c-4 -7 -12 -11 -20 -11c-7 0 -13 3 -18 8l-96 114l-30 -45c-23 -34 -34 -73 -34 -112c0 -75 38 -109 38 -125c0 -23 -30 -33 -43 -13c-28 42 -42 90 -42 138
c0 75 4 81 132 274c4 7 12 11 20 11c7 0 13 -3 18 -8l96 -114l7 10l67 101c4 7 12 11 20 11c7 0 14 -3 19 -8l95 -114l3 4v136c0 13 11 24 24 24s24 -11 24 -24v-64l24 35c4 7 12 11 20 11c7 0 13 -3 18 -8l96 -114c37 56 37 56 50 56s23 -11 23 -24c0 -7 1 -7 -94 -149
c-4 -7 -12 -11 -20 -11c-7 0 -13 3 -18 8l-96 114l-3 -4v-136c0 -13 -11 -24 -24 -24z" />
    <glyph glyph-name="scripts.prallup" unicode="&#xe076;" horiz-adv-x="312" 
d="M-316 -48c-4 -7 -12 -11 -20 -11c-13 0 -23 11 -23 24c0 5 1 10 4 14l23 34l39 -26zM-131 3l7 10l40 -26l-68 -101c-4 -7 -12 -11 -20 -11c-7 0 -13 3 -18 8l-96 114l-7 -10l-39 26l67 101c4 7 12 11 20 11c7 0 13 -3 18 -8zM77 3l7 10l68 101c4 7 12 11 20 11
c7 0 13 -3 18 -8l96 -114l30 45c23 34 34 73 34 112c0 75 -38 109 -38 125c0 23 30 33 43 13c28 -42 42 -90 42 -138c0 -75 -4 -81 -132 -274c-4 -7 -12 -11 -20 -11c-7 0 -13 3 -18 8l-96 114l-7 -10l-67 -101c-4 -7 -12 -11 -20 -11c-7 0 -14 3 -19 8l-95 114l-7 -10
l-40 26l67 101c4 7 12 11 20 11c7 0 14 -3 19 -8z" />
    <glyph glyph-name="scripts.downprall" unicode="&#xe077;" horiz-adv-x="312" 
d="M-332 215c0 -16 -61 -58 -61 -145c0 -35 10 -68 32 -99c32 48 64 95 96 143c4 7 12 11 20 11c7 0 13 -3 18 -8l96 -114c25 37 49 74 74 111c4 7 12 11 20 11c7 0 14 -3 19 -8l95 -114l7 10l68 101c4 7 12 11 20 11c7 0 13 -3 18 -8l96 -114c37 56 37 56 50 56
s23 -11 23 -24c0 -7 1 -7 -94 -149c-4 -7 -12 -11 -20 -11c-7 0 -13 3 -18 8l-96 114l-7 -10l-67 -101c-4 -7 -12 -11 -20 -11c-7 0 -14 3 -19 8l-95 114l-75 -111c-4 -7 -12 -11 -20 -11c-7 0 -13 3 -18 8l-96 114c-60 -90 -60 -90 -73 -90c-24 0 -81 75 -81 165
c0 93 60 164 85 164c14 0 23 -10 23 -21z" />
    <glyph glyph-name="scripts.downmordent" unicode="&#xe078;" horiz-adv-x="312" 
d="M-332 215c0 -16 -61 -58 -61 -145c0 -35 10 -68 32 -99c32 48 64 95 96 143c4 7 12 11 20 11c7 0 13 -3 18 -8l96 -114c25 37 49 74 74 111c4 7 12 11 20 11c7 0 14 -3 19 -8l95 -114l3 4v136c0 13 11 24 24 24s24 -11 24 -24v-64l24 35c4 7 12 11 20 11c7 0 13 -3 18 -8
l96 -114c37 56 37 56 50 56s23 -11 23 -24c0 -7 1 -7 -94 -149c-4 -7 -12 -11 -20 -11c-7 0 -13 3 -18 8l-96 114l-3 -4v-136c0 -13 -11 -24 -24 -24s-24 11 -24 24v64l-23 -35c-4 -7 -12 -11 -20 -11c-7 0 -14 3 -19 8l-95 114l-75 -111c-4 -7 -12 -11 -20 -11
c-7 0 -13 3 -18 8l-96 114c-60 -90 -60 -90 -73 -90c-24 0 -81 75 -81 165c0 93 60 164 85 164c14 0 23 -10 23 -21z" />
    <glyph glyph-name="scripts.pralldown" unicode="&#xe079;" horiz-adv-x="312" 
d="M332 -215c0 16 61 58 61 145c0 35 -10 68 -32 99c-32 -48 -64 -95 -96 -143c-4 -7 -12 -11 -20 -11c-7 0 -13 3 -18 8l-96 114c-25 -37 -49 -74 -74 -111c-4 -7 -12 -11 -20 -11c-7 0 -14 3 -19 8l-95 114l-7 -10l-68 -101c-4 -7 -12 -11 -20 -11c-7 0 -13 3 -18 8
l-96 114c-37 -56 -37 -56 -50 -56s-23 11 -23 24c0 7 -1 7 94 149c4 7 12 11 20 11c7 0 13 -3 18 -8l96 -114l7 10l67 101c4 7 12 11 20 11c7 0 14 -3 19 -8l95 -114l75 111c4 7 12 11 20 11c7 0 13 -3 18 -8l96 -114c60 90 60 90 73 90c24 0 81 -75 81 -165
c0 -93 -60 -164 -85 -164c-14 0 -23 10 -23 21z" />
    <glyph glyph-name="scripts.lineprall" unicode="&#xe07a;" horiz-adv-x="312" 
d="M336 59c13 0 23 -11 23 -24c0 -7 1 -7 -94 -149c-4 -7 -12 -11 -20 -11c-7 0 -13 3 -18 8l-96 114c-25 -37 -49 -74 -74 -111c-4 -7 -12 -11 -20 -11c-7 0 -14 3 -19 8l-95 114l-7 -10l-68 -101c-4 -7 -12 -11 -20 -11c-7 0 -13 3 -18 8l-96 114c-60 -90 -60 -90 -73 -90
s-24 11 -24 24v400c0 13 11 24 24 24s24 -11 24 -24v-322c23 35 47 70 70 105c4 7 12 11 20 11c7 0 13 -3 18 -8l96 -114l7 10l67 101c4 7 12 11 20 11c7 0 14 -3 19 -8l95 -114l75 111c4 7 12 11 20 11c7 0 13 -3 18 -8l96 -114c37 56 37 56 50 56z" />
    <glyph glyph-name="scripts.caesura.curved" unicode="&#xe07b;" horiz-adv-x="499" 
d="M178 -200c-16 0 -28 12 -28 28c0 4 1 7 2 11c57 137 71 287 77 435c1 25 23 45 48 45c26 0 47 -21 47 -47c0 -76 -21 -216 -119 -454c-5 -11 -16 -18 -27 -18zM28 -200c-16 0 -28 12 -28 28c0 4 1 7 2 11c57 137 71 287 77 435c1 25 23 45 48 45c26 0 47 -21 47 -47
c0 -76 -21 -216 -119 -454c-5 -11 -16 -18 -27 -18z" />
    <glyph glyph-name="scripts.caesura.straight" unicode="&#xe07c;" horiz-adv-x="499" 
d="M156 -168l218 436c10 20 30 32 52 32h37c13 0 22 -10 22 -22c0 -3 0 -7 -2 -10l-218 -436c-10 -20 -30 -32 -52 -32h-37c-13 0 -22 10 -22 22c0 3 0 7 2 10zM16 -168l218 436c10 20 30 32 52 32h37c13 0 22 -10 22 -22c0 -3 0 -7 -2 -10l-218 -436
c-10 -20 -30 -32 -52 -32h-37c-13 0 -22 10 -22 22c0 3 0 7 2 10z" />
    <glyph glyph-name="scripts.tickmark" unicode="&#xe07d;" horiz-adv-x="274" 
d="M-141 209c5 0 69 -42 132 -109c7 -7 16 -7 18 0c44 138 119 271 253 324c11 5 19 -12 7 -17c-142 -57 -184 -222 -231 -369c-6 -19 -18 -38 -37 -38c-44 0 -13 50 -148 194c-6 6 -2 15 6 15z" />
    <glyph glyph-name="scripts.snappizzicato" unicode="&#xe07e;" horiz-adv-x="133" 
d="M0 -25c-14 0 -25 11 -25 25v80c-34 -11 -59 -42 -59 -80c0 -46 38 -84 84 -84s84 38 84 84c0 38 -25 69 -59 80v-80c0 -14 -11 -25 -25 -25zM-25 131v69c0 14 11 25 25 25s25 -11 25 -25v-69c62 -12 108 -66 108 -131c0 -74 -59 -133 -133 -133s-133 59 -133 133
c0 65 46 119 108 131z" />
    <glyph glyph-name="clefs.C" unicode="&#xe07f;" horiz-adv-x="692" 
d="M344 0c0 -21 0 -70 40 -70c29 0 53 38 84 38c123 0 225 -97 225 -218c0 -165 -84 -250 -249 -250c-81 0 -149 60 -149 139c0 41 33 75 74 75s75 -34 75 -75c0 -36 -41 -39 -41 -75c0 -19 20 -30 41 -30c112 0 133 88 133 216c0 108 -15 184 -109 184
c-66 0 -107 -67 -107 -139c0 -11 -9 -17 -17 -17s-17 6 -17 17c0 71 -30 138 -83 185v-462c0 -10 -8 -18 -18 -18h-15c-10 0 -18 8 -18 18v964c0 10 8 18 18 18h15c10 0 18 -8 18 -18v-462c53 47 83 114 83 185c0 11 9 17 17 17s17 -6 17 -17c0 -72 41 -139 107 -139
c94 0 109 76 109 184c0 128 -21 216 -133 216c-21 0 -41 -11 -41 -30c0 -36 41 -39 41 -75c0 -41 -34 -75 -75 -75s-74 34 -74 75c0 79 68 139 149 139c165 0 249 -85 249 -250c0 -121 -102 -218 -225 -218c-31 0 -55 38 -84 38c-40 0 -40 -49 -40 -70zM124 -500h-106
c-10 0 -18 8 -18 18v964c0 10 8 18 18 18h106c10 0 18 -8 18 -18v-964c0 -10 -8 -18 -18 -18z" />
    <glyph glyph-name="clefs.C_change" unicode="&#xe080;" horiz-adv-x="561" 
d="M290 0c0 -20 0 -54 29 -54c24 0 41 34 66 34c98 0 177 -81 177 -180c0 -130 -62 -200 -190 -200c-64 0 -117 48 -117 110c0 33 26 59 59 59s58 -26 58 -59c0 -27 -28 -32 -28 -59c0 -13 14 -20 28 -20c87 0 103 69 103 169c0 88 -13 149 -90 149c-49 0 -79 -51 -79 -105
c0 -10 -8 -15 -16 -15s-15 5 -15 15c0 55 -25 106 -67 140v-366c0 -10 -8 -18 -18 -18h-10c-10 0 -18 8 -18 18v764c0 10 8 18 18 18h10c10 0 18 -8 18 -18v-366c42 34 67 85 67 140c0 10 7 15 15 15s16 -5 16 -15c0 -54 30 -105 79 -105c77 0 90 61 90 149
c0 100 -16 169 -103 169c-14 0 -28 -7 -28 -20c0 -27 28 -32 28 -59c0 -33 -25 -59 -58 -59s-59 26 -59 59c0 62 53 110 117 110c128 0 190 -70 190 -200c0 -99 -79 -180 -177 -180c-25 0 -42 34 -66 34c-29 0 -29 -34 -29 -54zM98 -400h-80c-10 0 -18 8 -18 18v764
c0 10 8 18 18 18h80c10 0 17 -8 17 -18v-764c0 -10 -7 -18 -17 -18z" />
    <glyph glyph-name="clefs.varC" unicode="&#xe081;" horiz-adv-x="562" 
d="M226 -500h-15c-10 0 -18 8 -18 18v964c0 10 8 18 18 18h15c10 0 18 -8 18 -18v-294h173v375c0 48 44 87 93 87c47 0 82 -41 82 -88c0 -46 -36 -82 -82 -82c-14 0 -29 5 -42 13v-414c0 -9 -8 -17 -17 -17h-207v-124h207c9 0 17 -8 17 -17v-414c13 8 28 13 42 13
c46 0 82 -36 82 -82c0 -47 -35 -88 -82 -88c-49 0 -93 40 -93 88v375h-173v-295c0 -10 -8 -18 -18 -18zM124 -500h-106c-10 0 -18 8 -18 18v964c0 10 8 18 18 18h106c10 0 18 -8 18 -18v-964c0 -10 -8 -18 -18 -18z" />
    <glyph glyph-name="clefs.varC_change" unicode="&#xe082;" horiz-adv-x="450" 
d="M190 -400h-10c-10 0 -18 8 -18 18v764c0 10 8 18 18 18h10c10 0 18 -8 18 -18v-232h131v300c0 39 35 70 74 70c37 0 66 -32 66 -70c0 -36 -30 -66 -66 -66c-9 0 -19 2 -28 7v-326c0 -9 -6 -15 -15 -15h-162v-100h162c9 0 15 -6 15 -15v-326c9 5 19 7 28 7
c36 0 66 -30 66 -66c0 -38 -29 -70 -66 -70c-39 0 -74 31 -74 70v300h-131v-232c0 -10 -8 -18 -18 -18zM98 -400h-80c-10 0 -18 8 -18 18v764c0 10 8 18 18 18h80c10 0 17 -8 17 -18v-764c0 -10 -7 -18 -17 -18z" />
    <glyph glyph-name="clefs.F" unicode="&#xe083;" horiz-adv-x="670" 
d="M560 -125c0 27 21 48 48 48s49 -21 49 -48s-22 -48 -49 -48s-48 21 -48 48zM560 125c0 27 21 48 48 48s49 -21 49 -48s-22 -48 -49 -48s-48 21 -48 48zM228 269c175 0 297 -91 297 -257c0 -263 -261 -415 -512 -525c-4 -4 -9 -6 -13 -6c-10 0 -19 9 -19 19c0 4 2 9 6 13
c196 117 400 263 400 487c0 116 -55 231 -159 231c-62 0 -101 -48 -120 -112h4c55 0 100 -45 100 -100c0 -58 -44 -106 -100 -106c-60 0 -112 47 -112 106c0 134 98 250 228 250z" />
    <glyph glyph-name="clefs.F_change" unicode="&#xe084;" horiz-adv-x="536" 
d="M448 -100c0 21 18 39 39 39s38 -18 38 -39s-17 -39 -38 -39s-39 18 -39 39zM448 100c0 21 18 39 39 39s38 -18 38 -39s-17 -39 -38 -39s-39 18 -39 39zM176 219c143 0 244 -72 244 -207c0 -211 -208 -334 -407 -425c-4 -4 -9 -6 -13 -6c-10 0 -19 9 -19 19c0 4 2 9 6 13
c145 98 295 215 295 387c0 89 -29 181 -106 181c-44 0 -66 -36 -75 -83c39 -5 69 -39 69 -79c0 -46 -35 -85 -80 -85c-48 0 -90 38 -90 85c0 106 74 200 176 200z" />
    <glyph glyph-name="clefs.G" unicode="&#xe085;" horiz-adv-x="641" 
d="M651 2c0 -116 -75 -215 -179 -250c2 -30 3 -60 3 -90c0 -23 -1 -47 -2 -70c-8 -124 -94 -231 -215 -231c-109 0 -198 88 -198 198c0 58 53 103 112 103c54 0 95 -47 95 -103c0 -52 -43 -95 -95 -95c-6 0 -11 0 -16 1c25 -32 62 -52 105 -52c92 0 154 88 160 187
c1 21 2 42 2 63c0 25 -1 51 -2 76c-5 -1 -43 -7 -86 -7c-195 0 -333 183 -333 380c0 176 125 308 237 445c-43 113 -63 173 -63 350c0 179 136 287 161 287c7 0 13 -3 18 -7c70 -77 139 -239 139 -355c0 -140 -79 -252 -168 -361c23 -67 43 -134 60 -202h4
c159 0 261 -131 261 -267zM468 -197c57 23 101 82 101 155c0 84 -59 167 -154 184c27 -128 45 -256 53 -339zM338 -216c1 0 45 0 79 5c-7 72 -25 214 -55 355c-78 -6 -122 -58 -122 -114c0 -42 24 -86 77 -117c6 -6 8 -12 8 -18c0 -14 -11 -27 -26 -27
c-18 0 -131 65 -131 192c0 91 60 180 166 203c-14 54 -29 108 -47 161c-102 -123 -204 -247 -204 -406c0 -142 140 -234 255 -234zM395 1026c-98 -43 -162 -140 -162 -247c0 -40 17 -95 45 -173c75 97 135 198 135 321c0 50 -6 70 -18 99z" />
    <glyph glyph-name="clefs.G_change" unicode="&#xe086;" horiz-adv-x="513" 
d="M132 752c0 141 101 235 124 235c38 0 131 -177 131 -299c0 -112 -58 -205 -124 -295c19 -57 35 -115 50 -174c129 -1 212 -108 212 -218c0 -95 -62 -174 -142 -202c1 -22 2 -45 2 -67c0 -20 -1 -39 -2 -59c-6 -103 -81 -190 -180 -190c-89 0 -160 73 -160 162
c0 46 42 83 90 83c43 0 76 -38 76 -83c0 -41 -33 -75 -74 -76c18 -21 42 -34 71 -34h3c71 2 118 71 123 146c1 17 1 35 1 52c0 18 0 36 -1 54c-3 -1 -33 -5 -64 -5c-156 0 -266 148 -266 308c0 143 94 255 180 370c-41 107 -50 147 -50 292zM379 -148c8 4 71 37 71 116
c0 62 -42 123 -111 139c16 -76 32 -171 40 -255zM271 -166c1 0 32 0 57 3c-5 56 -20 164 -42 273c-57 -6 -89 -44 -89 -86c0 -32 18 -66 59 -89c6 -6 9 -13 9 -19c0 -14 -12 -27 -27 -27c-18 0 -108 55 -108 158c0 74 48 146 133 166c-11 44 -24 87 -38 130
c-77 -103 -153 -207 -153 -335c0 -112 114 -174 199 -174zM307 841c-74 -39 -121 -116 -121 -200c0 -29 13 -64 35 -127c54 78 96 160 96 256c0 37 -4 51 -10 71z" />
    <glyph glyph-name="clefs.GG" unicode="&#xe087;" horiz-adv-x="1016" 
d="M796 -261c-5 -1 -43 -7 -86 -7c-64 0 -122 19 -171 53c-21 -15 -43 -25 -67 -33c2 -30 3 -60 3 -90v-25c20 16 45 25 72 25c54 0 95 -47 95 -103c0 -52 -43 -95 -95 -95c-6 0 -11 0 -16 1c25 -32 62 -52 105 -52c92 0 154 88 160 187c1 21 2 42 2 63c0 25 -1 51 -2 76z
M1026 2c0 -116 -75 -215 -179 -250c2 -30 3 -60 3 -90c0 -23 -1 -47 -2 -70c-8 -124 -94 -231 -215 -231c-85 0 -158 53 -186 129c-14 -30 -69 -129 -189 -129c-109 0 -198 88 -198 198c0 58 53 103 112 103c54 0 95 -47 95 -103c0 -52 -43 -95 -95 -95c-6 0 -11 0 -16 1
c25 -32 62 -52 105 -52c92 0 154 88 160 187c1 21 2 42 2 63c0 25 -1 51 -2 76c-5 -1 -43 -7 -86 -7c-195 0 -333 183 -333 380c0 176 125 308 237 445c-43 113 -63 173 -63 350c0 179 136 287 161 287c7 0 13 -3 18 -7c70 -77 139 -239 139 -355c0 -140 -79 -252 -168 -361
c23 -67 43 -134 60 -202c9 0 17 0 25 -1c45 104 127 196 203 289c-43 113 -63 173 -63 350c0 179 136 287 161 287c7 0 13 -3 18 -7c70 -77 139 -239 139 -355c0 -140 -79 -252 -168 -361c23 -67 43 -134 60 -202h4c159 0 261 -131 261 -267zM843 -197c57 23 101 82 101 155
c0 84 -59 167 -154 184c27 -128 45 -256 53 -339zM713 -216c1 0 45 0 79 5c-7 72 -25 214 -55 355c-47 -4 -81 -23 -101 -51c10 -29 15 -60 15 -91c0 -17 -2 -35 -5 -52c31 -36 54 -32 54 -55c0 -14 -11 -27 -26 -27c-12 0 -33 15 -46 25c-11 -25 -28 -49 -48 -71
c40 -24 87 -38 133 -38zM662 424c-51 -62 -102 -124 -140 -190c23 -14 44 -31 61 -51c28 39 71 68 126 80c-14 54 -29 108 -47 161zM770 1026c-98 -43 -162 -140 -162 -247c0 -40 17 -95 45 -173c75 97 135 198 135 321c0 50 -6 70 -18 99zM462 -141c2 -19 4 -37 6 -56
c10 4 21 9 30 16c-13 12 -25 26 -36 40zM543 53c-17 28 -40 52 -70 68c-9 -33 -15 -67 -15 -103c0 -52 19 -110 77 -163c24 31 34 67 34 103c-17 30 -25 63 -26 95zM338 -216c1 0 45 0 79 5c-7 72 -25 214 -55 355c-78 -6 -122 -58 -122 -114c0 -42 24 -86 77 -117
c6 -6 8 -12 8 -18c0 -14 -11 -27 -26 -27c-18 0 -131 65 -131 192c0 91 60 180 166 203c-14 54 -29 108 -47 161c-102 -123 -204 -247 -204 -406c0 -142 140 -234 255 -234zM395 1026c-98 -43 -162 -140 -162 -247c0 -40 17 -95 45 -173c75 97 135 198 135 321
c0 50 -6 70 -18 99z" />
    <glyph glyph-name="clefs.GG_change" unicode="&#xe088;" horiz-adv-x="813" 
d="M432 752c0 141 101 235 124 235c38 0 131 -177 131 -299c0 -112 -58 -205 -124 -295c19 -57 35 -115 50 -174c129 -1 212 -108 212 -218c0 -95 -62 -174 -142 -202c1 -22 2 -45 2 -67c0 -20 -1 -39 -2 -59c-6 -103 -81 -190 -180 -190c-65 0 -122 39 -147 96
c-32 -58 -88 -96 -153 -96c-89 0 -160 73 -160 162c0 46 42 83 90 83c43 0 76 -38 76 -83c0 -41 -33 -75 -74 -76c18 -21 42 -34 71 -34h3c71 2 118 71 123 146c1 17 1 35 1 52c0 18 0 36 -1 54c-3 -1 -33 -5 -64 -5c-156 0 -266 148 -266 308c0 143 94 255 180 370
c-41 107 -50 147 -50 292c0 141 101 235 124 235c38 0 131 -177 131 -299c0 -112 -58 -205 -124 -295c19 -57 35 -115 50 -174c5 0 9 -1 14 -1c34 86 97 164 155 242c-41 107 -50 147 -50 292zM632 -213c-3 -1 -33 -5 -64 -5c-51 0 -97 15 -136 42c-15 -11 -32 -19 -49 -25
c1 -22 2 -45 2 -67v-17c14 8 31 13 48 13c43 0 76 -38 76 -83c0 -41 -33 -75 -74 -76c18 -21 42 -34 71 -34c70 0 121 68 126 146c1 17 1 35 1 52c0 18 0 36 -1 54zM679 -148c8 4 71 37 71 116c0 62 -42 123 -111 139c16 -76 32 -171 40 -255zM571 -166c1 0 32 0 57 3
c-5 56 -20 164 -42 273c-33 -4 -58 -18 -73 -38c7 -23 12 -47 12 -71c0 -13 -2 -25 -4 -38c24 -28 44 -25 44 -47c0 -14 -12 -27 -27 -27c-4 0 -11 0 -35 18c-8 -17 -19 -33 -32 -48c31 -16 66 -25 100 -25zM525 343c-38 -50 -75 -101 -103 -154c17 -10 31 -22 44 -36
c23 29 56 50 97 60c-11 44 -24 87 -38 130zM607 841c-74 -39 -121 -116 -121 -200c0 -29 13 -64 35 -127c54 78 96 160 96 256c0 37 -4 51 -10 71zM376 -124l3 -24c4 2 9 4 13 7c-5 5 -11 11 -16 17zM430 40c-11 20 -28 36 -48 49c-7 -26 -10 -53 -10 -81
c0 -17 0 -67 53 -116c17 23 25 50 25 76c-12 23 -19 47 -20 72zM271 -166c1 0 32 0 57 3c-5 56 -20 164 -42 273c-57 -6 -89 -44 -89 -86c0 -32 18 -66 59 -89c6 -6 9 -13 9 -19c0 -14 -12 -27 -27 -27c-18 0 -108 55 -108 158c0 74 48 146 133 166c-11 44 -24 87 -38 130
c-77 -103 -153 -207 -153 -335c0 -112 114 -174 199 -174zM307 841c-74 -39 -121 -116 -121 -200c0 -29 13 -64 35 -127c54 78 96 160 96 256c0 37 -4 51 -10 71z" />
    <glyph glyph-name="clefs.tenorG" unicode="&#xe089;" horiz-adv-x="828" 
d="M335 -268c-195 0 -333 183 -333 380c0 176 125 308 237 445c-1 1 -1 3 -2 4h-153c-8 0 -14 7 -14 14c0 3 1 7 3 10l85 99c3 3 7 5 11 5h26c-15 62 -19 130 -19 218c0 179 136 287 161 287c7 0 13 -3 18 -7c70 -77 139 -239 139 -355c0 -51 -11 -98 -29 -143h223v436
c0 42 42 71 87 71c34 0 55 -34 55 -71c0 -30 -25 -55 -55 -55c-17 0 -35 11 -45 26v-521c0 -8 -6 -14 -14 -14h-321c-21 -31 -45 -60 -69 -90c4 -11 8 -21 11 -32h379c8 0 14 -6 14 -14v-521c10 15 28 26 45 26c30 0 55 -25 55 -55c0 -37 -21 -71 -55 -71
c-45 0 -87 29 -87 71v436h-314l12 -42h4c159 0 261 -131 261 -267c0 -116 -75 -215 -179 -250c2 -30 3 -60 3 -90c0 -23 -1 -47 -2 -70c-8 -124 -94 -231 -215 -231c-109 0 -198 88 -198 198c0 58 53 103 112 103c54 0 95 -47 95 -103c0 -52 -43 -95 -95 -95
c-6 0 -11 0 -16 1c25 -32 62 -52 105 -52c92 0 154 88 160 187c1 21 2 42 2 63c0 25 -1 51 -2 76c-5 -1 -43 -7 -86 -7zM299 -132c-18 0 -131 65 -131 192c0 91 60 180 166 203l-12 48h-124c-65 -89 -115 -182 -115 -293c0 -142 140 -234 255 -234c1 0 45 0 79 5
c-7 72 -25 214 -55 355c-78 -6 -122 -58 -122 -114c0 -42 24 -86 77 -117c6 -6 8 -12 8 -18c0 -14 -11 -27 -26 -27zM233 779c0 -21 2 -39 17 -90h86c45 72 77 150 77 238c0 50 -6 70 -18 99c-98 -43 -162 -140 -162 -247zM468 -197c57 23 101 82 101 155
c0 84 -59 167 -154 184c27 -128 45 -256 53 -339z" />
    <glyph glyph-name="clefs.tenorG_change" unicode="&#xe08a;" horiz-adv-x="663" 
d="M268 -218c-156 0 -266 148 -266 308c0 143 94 255 180 370c-14 37 -27 75 -36 114h-103c-10 0 -15 12 -9 19l68 79c2 3 6 4 9 4h22c0 1 -1 69 -1 76c0 141 101 235 124 235c37 0 136 -181 131 -311h163v224c0 33 34 57 70 57c27 0 44 -28 44 -57c0 -24 -20 -44 -44 -44
c-14 0 -28 9 -36 21v-292c0 -6 -5 -11 -11 -11h-206c-18 -52 -47 -101 -80 -148h286c6 0 11 -5 11 -11v-292c8 12 22 21 36 21c24 0 44 -20 44 -44c0 -29 -17 -57 -44 -57c-36 0 -70 24 -70 57v224h-265c10 -35 19 -70 28 -105c129 -1 212 -108 212 -218
c0 -95 -62 -174 -142 -202c1 -22 2 -45 2 -67c0 -20 -1 -39 -2 -59c-6 -103 -81 -190 -180 -190c-89 0 -160 73 -160 162c0 46 42 83 90 83c43 0 76 -38 76 -83c0 -41 -33 -75 -74 -76c18 -21 42 -34 71 -34c70 0 121 68 126 146c1 17 1 35 1 52c0 18 0 36 -1 54
c-3 -1 -33 -5 -64 -5zM238 -111c-18 0 -108 55 -108 158c0 74 48 146 133 166c-9 37 -19 74 -31 111h-21c-72 -97 -139 -196 -139 -316c0 -112 114 -174 199 -174c1 0 32 0 57 3c-5 56 -20 164 -42 273c-57 -6 -89 -44 -89 -86c0 -32 18 -66 59 -89c6 -6 9 -13 9 -19
c0 -14 -12 -27 -27 -27zM200 574c6 -20 14 -40 21 -60c14 20 26 40 38 60h-59zM189 676h115c9 30 13 61 13 94c0 37 -4 51 -10 71c-64 -34 -107 -95 -118 -165zM379 -148c8 4 71 37 71 116c0 62 -42 123 -111 139c16 -76 32 -171 40 -255z" />
    <glyph glyph-name="clefs.percussion" unicode="&#xe08b;" horiz-adv-x="499" 
d="M482 -250h-77c-10 0 -17 8 -17 18v464c0 10 7 18 17 18h77c10 0 18 -8 18 -18v-464c0 -10 -8 -18 -18 -18zM262 -250h-77c-10 0 -18 8 -18 18v464c0 10 8 18 18 18h77c10 0 18 -8 18 -18v-464c0 -10 -8 -18 -18 -18z" />
    <glyph glyph-name="clefs.percussion_change" unicode="&#xe08c;" horiz-adv-x="400" 
d="M382 -200h-54c-10 0 -18 8 -18 18v364c0 10 8 18 18 18h54c10 0 18 -8 18 -18v-364c0 -10 -8 -18 -18 -18zM206 -200h-54c-10 0 -18 8 -18 18v364c0 10 8 18 18 18h54c10 0 18 -8 18 -18v-364c0 -10 -8 -18 -18 -18z" />
    <glyph glyph-name="clefs.varpercussion" unicode="&#xe08d;" horiz-adv-x="437" 
d="M185 419h235c10 0 18 -8 18 -18v-802c0 -10 -8 -18 -18 -18h-235c-10 0 -18 8 -18 18v802c0 10 8 18 18 18zM394 331h-183v-662h183v662z" />
    <glyph glyph-name="clefs.varpercussion_change" unicode="&#xe08e;" horiz-adv-x="350" 
d="M350 318v-636c0 -10 -7 -17 -17 -17h-181c-10 0 -18 7 -18 17v636c0 10 8 17 18 17h181c10 0 17 -7 17 -17zM315 265h-146v-530h146v530z" />
    <glyph glyph-name="clefs.tab" unicode="&#xe08f;" horiz-adv-x="700" 
d="M208 -722c-49 0 -100 59 -100 62c0 11 12 26 24 26c16 0 34 -37 72 -37c65 0 89 99 89 195v8c0 35 9 109 18 163c-39 -13 -70 -40 -70 -70c0 -32 26 -27 26 -50c0 -9 -1 -27 -43 -27c-41 0 -84 28 -84 75c0 82 118 130 234 130c71 0 215 -11 215 -103
c0 -18 -6 -70 -69 -110c58 -11 102 -36 102 -91c0 -85 -90 -158 -179 -158c-73 0 -111 51 -111 60c0 12 16 25 28 25c13 0 17 -25 54 -25c44 0 95 41 95 93c0 46 -49 63 -100 63h-1v1c-5 0 -8 6 -8 15c0 11 5 24 18 24c36 0 69 39 69 77c0 35 -23 66 -80 76
c-11 -62 -31 -173 -40 -220c-20 -102 -84 -202 -159 -202zM70 -119c13 0 31 -20 57 -20c71 0 243 203 305 390c9 27 33 37 57 37c29 0 57 -15 57 -31c0 -8 -18 -361 -18 -365c0 -10 0 -30 21 -30c18 0 47 20 55 20c5 0 9 -8 9 -17c0 -8 -3 -16 -12 -19
c-30 -9 -57 -34 -87 -34c-32 0 -45 29 -53 58c-16 61 -26 125 -31 191c-27 -35 -56 -68 -87 -101c6 -10 24 -33 64 -33c7 0 11 1 12 1c5 0 8 -7 8 -15c0 -6 0 -29 -56 -29c-17 0 -51 4 -70 33c-67 -63 -123 -105 -173 -105h-3c-31 1 -50 21 -75 32c-3 1 -5 5 -5 9
c0 11 11 28 25 28zM288 540c0 -9 -1 -24 -42 -24c-49 0 -91 36 -91 84c0 30 17 120 232 120c46 0 120 -41 171 -41c69 0 108 44 119 44s23 -11 23 -19c0 -7 -63 -75 -150 -75c-17 0 -30 2 -44 6c-9 -59 -26 -151 -35 -193c-22 -96 -88 -185 -163 -185c-6 0 -12 1 -19 2
c-36 8 -67 43 -96 62c-3 2 -4 5 -4 9c0 11 12 26 23 26c17 0 43 -48 82 -48c56 0 82 77 85 150c2 45 13 150 22 208c-12 3 -23 5 -32 5c-62 0 -113 -28 -113 -70c0 -39 32 -36 32 -61z" />
    <glyph glyph-name="clefs.tab_change" unicode="&#xe090;" horiz-adv-x="560" 
d="M167 -577c-39 0 -81 47 -81 49c0 9 10 21 19 21c13 0 28 -30 59 -30c52 0 71 79 71 156v7c0 28 7 87 14 130c-32 -11 -56 -32 -56 -56c0 -25 20 -21 20 -40c0 -7 1 -21 -33 -21c-33 0 -68 22 -68 59c0 66 94 104 187 104c57 0 173 -9 173 -82c0 -14 -5 -56 -56 -88
c46 -9 82 -29 82 -73c0 -68 -73 -126 -144 -126c-59 0 -88 41 -88 48c0 10 12 20 22 20c11 0 14 -20 44 -20c35 0 76 32 76 74c0 37 -40 51 -81 51c-4 0 -7 5 -7 12c0 9 5 20 15 20c29 0 55 31 55 62c0 28 -19 52 -64 60c-9 -50 -25 -138 -32 -176
c-16 -82 -67 -161 -127 -161zM102 -150c-25 0 -66 26 -66 32c0 9 9 23 20 23s25 -16 46 -16c57 0 193 162 243 312c7 22 27 29 46 29c23 0 45 -11 45 -24c0 -6 -14 -289 -14 -292c0 -8 1 -25 17 -25c14 0 38 16 44 16c4 0 7 -6 7 -13c0 -6 -2 -13 -9 -15
c-24 -8 -46 -28 -70 -28c-26 0 -36 24 -42 47c-13 49 -21 100 -25 153c-21 -28 -44 -55 -69 -81c15 -26 39 -26 60 -26c4 0 6 -6 6 -12c0 -5 0 -23 -45 -23c-13 0 -40 4 -55 27c-54 -51 -99 -84 -139 -84zM247 205c-45 0 -96 58 -96 59c0 9 9 21 18 21c14 0 35 -39 66 -39
c45 0 66 62 68 121c1 36 11 120 18 166c-10 2 -19 4 -26 4c-50 0 -90 -22 -90 -56c0 -31 25 -29 25 -49c0 -7 0 -19 -33 -19c-39 0 -73 29 -73 67c0 24 14 96 186 96c37 0 95 -33 136 -33c55 0 86 35 95 35s19 -9 19 -15c0 -5 -50 -60 -120 -60c-13 0 -24 2 -35 5
c-7 -47 -20 -122 -28 -155c-17 -77 -70 -148 -130 -148z" />
    <glyph glyph-name="timesig.C44" unicode="&#xe091;" horiz-adv-x="412" 
d="M250 269c113 0 163 -122 163 -169c0 -36 -28 -65 -61 -65c-28 0 -68 22 -68 68c0 35 25 69 65 70c-23 35 -57 58 -99 58c-108 0 -113 -77 -113 -195v-36v-36c0 -118 5 -195 113 -195c73 0 120 71 137 147c2 10 10 15 18 15c10 0 19 -8 19 -19c0 -17 -45 -181 -174 -181
c-141 0 -250 85 -250 269c0 64 18 269 250 269z" />
    <glyph glyph-name="timesig.C22" unicode="&#xe092;" horiz-adv-x="412" 
d="M424 -88c0 -17 -45 -181 -174 -181c-7 0 -15 1 -22 1v-64c0 -10 -8 -18 -18 -18h-15c-10 0 -17 8 -17 18v72c-65 16 -178 70 -178 260c0 79 23 222 178 260v72c0 10 7 18 17 18h15c10 0 18 -8 18 -18v-64c7 0 15 1 22 1c113 0 163 -122 163 -169c0 -36 -28 -65 -61 -65
c-28 0 -68 22 -68 68c0 35 25 69 65 70c-23 35 -57 58 -99 58c-8 0 -15 0 -22 -1v-460c7 -1 14 -1 22 -1c73 0 120 71 137 147c2 10 10 15 18 15c10 0 19 -8 19 -19zM178 -211v422c-38 -30 -41 -93 -41 -175v-36v-36c0 -82 3 -145 41 -175z" />
    <glyph glyph-name="pedal.*" unicode="&#xe093;" horiz-adv-x="388" 
d="M165 194c0 -16 13 -29 29 -29s30 13 30 29s-14 30 -30 30s-29 -14 -29 -30zM210 278c0 -23 16 -30 33 -13c19 19 6 81 57 81c24 0 46 -22 46 -46c0 -51 -62 -38 -81 -57c-17 -17 -10 -33 13 -33c25 0 41 29 66 29c30 0 45 -22 45 -45s-15 -45 -45 -45
c-25 0 -41 30 -66 30c-23 0 -30 -16 -13 -33c19 -19 81 -6 81 -57c0 -24 -22 -46 -46 -46c-51 0 -38 62 -57 81c-17 17 -33 10 -33 -13c0 -25 29 -41 29 -66c0 -30 -22 -45 -45 -45s-45 15 -45 45c0 25 30 41 30 66c0 23 -16 30 -33 13c-19 -19 -6 -81 -57 -81
c-24 0 -46 22 -46 46c0 51 62 38 81 57c17 17 10 33 -13 33c-25 0 -41 -30 -66 -30c-30 0 -45 22 -45 45s15 45 45 45c25 0 41 -29 66 -29c23 0 30 16 13 33c-19 19 -81 6 -81 57c0 24 22 46 46 46c51 0 38 -62 57 -81c17 -17 33 -10 33 13c0 25 -30 41 -30 66
c0 30 22 45 45 45s45 -15 45 -45c0 -25 -29 -41 -29 -66z" />
    <glyph glyph-name="pedal.M" unicode="&#xe094;" horiz-adv-x="263" 
d="M0 146l44 77c16 14 39 17 64 17c30 0 62 -5 92 -5c25 0 48 3 64 17l-44 -76c-16 -14 -39 -17 -64 -17c-30 0 -62 5 -92 5c-25 0 -48 -4 -64 -18z" />
    <glyph glyph-name="pedal.." unicode="&#xe095;" horiz-adv-x="87" 
d="M0 44c0 24 20 44 44 44s44 -20 44 -44s-20 -44 -44 -44s-44 20 -44 44z" />
    <glyph glyph-name="pedal.P" unicode="&#xe096;" horiz-adv-x="416" 
d="M43 326c0 -37 28 -50 38 -50c21 0 37 38 37 74c0 6 7 9 14 9s13 -3 13 -9c0 -77 -42 -156 -90 -156c-24 0 -69 26 -69 90c0 92 94 216 264 216c113 0 175 -86 175 -153c0 -51 -35 -73 -57 -73c-53 0 -99 113 -99 115c0 7 10 13 17 13c11 0 24 -46 54 -46c11 0 27 9 27 31
c0 35 -43 87 -117 87c-4 0 -8 -1 -12 -1c0 -1 -26 -76 -26 -91c0 -48 101 -121 101 -172c0 -18 -29 -57 -53 -90c77 -3 103 -27 109 -27c17 0 28 19 35 19s15 -10 15 -17c0 -11 -104 -85 -109 -88c-46 -27 -39 72 -71 85c-22 -29 -43 -54 -51 -62c-13 -13 -56 -30 -74 -30
c-11 0 -20 7 -20 17c0 13 17 41 26 51c18 20 75 48 106 52c18 22 22 27 22 39c0 48 -86 115 -86 154c0 20 30 117 47 157c-105 -16 -166 -91 -166 -144z" />
    <glyph glyph-name="pedal.d" unicode="&#xe097;" horiz-adv-x="333" 
d="M3 438c58 0 332 -105 332 -288c0 -73 -49 -150 -113 -150c-62 0 -111 76 -111 143c0 51 40 104 87 131c-47 69 -122 124 -198 137c-5 1 -7 6 -7 11c0 7 4 16 10 16zM213 250c-26 -23 -36 -70 -36 -107c0 -39 11 -90 45 -90c23 0 30 23 30 51c0 26 -4 85 -39 146z" />
    <glyph glyph-name="pedal.e" unicode="&#xe098;" horiz-adv-x="199" 
d="M71 125c30 -53 44 -68 64 -55c15 10 48 42 52 42c6 0 15 -8 15 -16c0 -9 -86 -80 -87 -81c-11 -8 -26 -13 -40 -13c-31 0 -49 15 -64 76c0 0 -26 9 -5 27c-4 22 -6 39 -6 53c0 4 1 135 95 135c33 0 54 -22 54 -51c0 -36 -33 -79 -65 -106zM75 249c-16 0 -34 -12 -34 -41
c0 -19 8 -42 17 -60l9 9c19 16 38 41 38 62c0 18 -13 30 -30 30z" />
    <glyph glyph-name="pedal.Ped" unicode="&#xe099;" horiz-adv-x="797" 
d="M43 326c0 -37 28 -50 38 -50c21 0 37 38 37 74c0 6 7 9 14 9s13 -3 13 -9c0 -77 -42 -156 -90 -156c-24 0 -69 26 -69 90c0 92 94 216 264 216c113 0 175 -86 175 -153c0 -51 -35 -73 -57 -73c-53 0 -99 113 -99 115c0 7 10 13 17 13c11 0 24 -46 54 -46c11 0 27 9 27 31
c0 35 -43 86 -117 86h-12c0 -1 -26 -76 -26 -91c0 -48 101 -121 101 -172c0 -18 -29 -57 -53 -90c77 -3 103 -27 109 -27c17 0 28 19 35 19c-3 20 -5 34 -5 46c0 4 1 135 95 135c33 0 55 -22 55 -51c0 -36 -33 -79 -65 -106l-14 -11c41 -72 48 -75 110 -17
c-3 12 -4 23 -4 35c0 51 40 104 87 131c-47 69 -122 124 -198 137c-5 1 -7 6 -7 11c0 7 4 16 10 16c58 0 332 -105 332 -288c0 -73 -49 -150 -113 -150c-42 0 -79 36 -98 80c-61 -57 -83 -78 -114 -78s-49 15 -64 76c-2 0 -3 1 -5 2c-26 -22 -83 -65 -96 -73
c-46 -27 -39 72 -71 85c-22 -29 -43 -54 -51 -62c-13 -13 -56 -30 -74 -30c-11 0 -20 7 -20 17c0 13 17 41 26 51c18 20 75 48 106 52c18 22 22 27 22 39c0 48 -86 115 -86 154c0 20 30 117 47 157c-105 -16 -166 -91 -166 -144zM475 249c-16 0 -34 -12 -34 -41
c0 -19 7 -42 16 -60l10 9c19 16 38 41 38 62c0 18 -13 30 -30 30zM678 250c-26 -23 -36 -70 -36 -107c0 -39 11 -90 45 -90c23 0 30 23 30 51c0 26 -4 85 -39 146z" />
    <glyph glyph-name="brackettips.up" unicode="&#xe09a;" horiz-adv-x="474" 
d="M437 328c13 0 24 -11 24 -24c0 -4 -1 -8 -3 -12c-82 -141 -184 -348 -344 -348h-114v74c0 21 17 38 38 38h76c142 0 230 134 303 260c4 8 12 12 20 12z" />
    <glyph glyph-name="brackettips.down" unicode="&#xe09b;" horiz-adv-x="474" 
d="M461 -304c0 -13 -11 -24 -24 -24c-8 0 -16 4 -20 12c-73 126 -161 260 -303 260h-76c-21 0 -38 17 -38 38v74h114c160 0 262 -207 344 -348c2 -4 3 -8 3 -12z" />
    <glyph glyph-name="accordion.discant" unicode="&#xe09c;" horiz-adv-x="399" 
d="M400 375c0 -218 -181 -392 -400 -392s-400 174 -400 392s181 392 400 392s400 -174 400 -392zM334 267c11 34 16 71 16 108s-5 74 -16 108h-668c-11 -34 -16 -71 -16 -108s5 -74 16 -108h668zM322 233h-644c54 -126 177 -216 322 -216s268 90 322 216zM-322 517h644
c-54 126 -177 216 -322 216s-268 -90 -322 -216z" />
    <glyph glyph-name="accordion.dot" unicode="&#xe09d;" horiz-adv-x="62" 
d="M-62 0c0 35 27 63 62 63s63 -28 63 -63s-28 -63 -63 -63s-62 28 -62 63z" />
    <glyph glyph-name="accordion.freebass" unicode="&#xe09e;" horiz-adv-x="274" 
d="M275 250c0 -149 -125 -267 -275 -267s-275 118 -275 267s125 267 275 267s275 -118 275 -267zM225 233h-450c9 -119 105 -216 225 -216s216 97 225 216zM-225 267h450c-9 119 -105 216 -225 216s-216 -97 -225 -216z" />
    <glyph glyph-name="accordion.stdbass" unicode="&#xe09f;" horiz-adv-x="524" 
d="M525 500c0 -287 -237 -517 -525 -517s-525 230 -525 517s237 517 525 517s525 -230 525 -517zM475 483h-950c3 -78 23 -152 58 -216h834c35 64 55 138 58 216zM396 233h-792c85 -130 230 -216 396 -216s311 86 396 216zM-475 517h950c-3 78 -23 152 -58 216h-834
c-35 -64 -55 -138 -58 -216zM-396 767h792c-85 130 -230 216 -396 216s-311 -86 -396 -216z" />
    <glyph glyph-name="accordion.bayanbass" unicode="&#xe0a0;" horiz-adv-x="274" 
d="M250 799c14 0 25 -11 25 -25v-750c0 -14 -11 -24 -25 -24h-500c-14 0 -25 10 -25 24v750c0 14 11 25 25 25h500zM225 49v201h-450v-201h450zM225 299v201h-450v-201h450zM225 549v201h-450v-201h450z" />
    <glyph glyph-name="accordion.oldEE" unicode="&#xe0a1;" horiz-adv-x="274" 
d="M225 267c0 127 -99 233 -225 233s-225 -106 -225 -233s99 -233 225 -233s225 106 225 233zM275 267c0 -149 -125 -267 -275 -267s-275 118 -275 267s125 267 275 267s275 -118 275 -267zM57 373c0 27 22 49 49 49s49 -22 49 -49s-22 -49 -49 -49c-2 0 -5 1 -7 1l-41 -34
l53 6c9 12 23 19 39 19c27 0 49 -22 49 -49s-22 -49 -49 -49c-16 0 -30 8 -39 20l-53 5l41 -33h7c27 0 49 -22 49 -49s-22 -49 -49 -49s-49 22 -49 49c0 2 1 5 1 7l-34 42l5 -54c12 -9 20 -23 20 -39c0 -27 -22 -49 -49 -49s-49 22 -49 49c0 16 8 30 20 39l5 54l-34 -42
c0 -2 1 -5 1 -7c0 -27 -22 -49 -49 -49s-49 22 -49 49s22 49 49 49h7l41 33l-53 -5c-9 -12 -23 -20 -39 -20c-27 0 -49 22 -49 49s22 49 49 49c16 0 30 -7 39 -19l53 -6l-41 34c-2 0 -5 -1 -7 -1c-27 0 -49 22 -49 49s22 49 49 49s49 -22 49 -49c0 -2 -1 -4 -1 -6l34 -42
l-5 53c-12 9 -20 23 -20 39c0 27 22 49 49 49s49 -22 49 -49c0 -16 -8 -30 -20 -39l-5 -53l34 42c0 2 -1 4 -1 6z" />
    <glyph glyph-name="accordion.push" unicode="&#xe0a2;" horiz-adv-x="0" 
d="M-245 588c0 14 11 26 25 26c8 0 15 -4 20 -11l196 -282c3 -4 4 -9 4 -14s-1 -11 -4 -15l-196 -281c-5 -7 -12 -11 -20 -11c-14 0 -25 11 -25 25c0 5 1 11 4 15l185 267l-185 267c-3 4 -4 9 -4 14z" />
    <glyph glyph-name="accordion.pull" unicode="&#xe0a3;" horiz-adv-x="50" 
d="M50 25c0 -14 -11 -25 -25 -25s-25 11 -25 25v488h-170c-14 0 -25 11 -25 25v50c0 14 11 26 25 26h195c14 0 25 -12 25 -26v-563z" />
    <glyph glyph-name="ties.lyric.short" unicode="&#xe0a4;" horiz-adv-x="0" 
d="M179 -100c0 -19 -70 -96 -179 -96s-179 77 -179 96c0 12 11 23 23 23c32 0 6 -44 127 -44c10 0 20 1 29 1s19 -1 29 -1c121 0 95 44 127 44c12 0 23 -11 23 -23z" />
    <glyph glyph-name="ties.lyric.default" unicode="&#xe0a5;" horiz-adv-x="0" 
d="M242 -100c0 -22 -103 -102 -242 -102s-242 80 -242 102c0 12 11 23 23 23c35 0 11 -49 189 -49h30h30c178 0 154 49 189 49c12 0 23 -11 23 -23z" />
    <glyph glyph-name="plus" unicode="+" horiz-adv-x="250" 
d="M125 125c-21 0 -38 17 -38 38v49h-49c-21 0 -38 17 -38 38s17 38 38 38h49v49c0 21 17 38 38 38s38 -17 38 -38v-49h49c21 0 38 -17 38 -38s-17 -38 -38 -38h-49v-49c0 -21 -17 -38 -38 -38z" />
    <glyph glyph-name="comma" unicode="," horiz-adv-x="101" 
d="M54 -23c0 33 -54 22 -54 74c0 28 23 51 51 51s51 -23 51 -51c0 -61 -25 -119 -51 -175c-3 -7 -10 -10 -16 -10c-9 0 -19 7 -19 17c0 15 38 65 38 94z" />
    <glyph glyph-name="hyphen" unicode="-" horiz-adv-x="166" 
d="M149 149h-131c-10 0 -18 8 -18 18s8 18 18 18h131c10 0 18 -8 18 -18s-8 -18 -18 -18z" />
    <glyph glyph-name="period" unicode="." horiz-adv-x="101" 
d="M0 51c0 28 23 51 51 51s51 -23 51 -51s-23 -51 -51 -51s-51 23 -51 51z" />
    <glyph glyph-name="zero" unicode="0" horiz-adv-x="380" 
d="M190 464c-54 0 -61 -71 -61 -141v-73v-73c0 -70 7 -141 61 -141s62 71 62 141c0 26 -1 51 -1 73s1 47 1 73c0 70 -8 141 -62 141zM190 500c118 0 190 -122 190 -250s-72 -250 -190 -250s-190 122 -190 250s72 250 190 250z" />
    <glyph glyph-name="one" unicode="1" horiz-adv-x="354" 
d="M129 129h130c0 -52 32 -100 81 -100c10 0 14 -8 14 -15s-4 -14 -14 -14c-49 0 -97 14 -146 14s-96 -14 -145 -14c-10 0 -15 7 -15 14s5 15 15 15c49 0 80 48 80 100zM194 486c22 0 41 15 49 15s16 -9 16 -21v-351h-130v215c0 15 -11 23 -20 23c-5 0 -9 -2 -11 -7
l-66 -127c-4 -7 -9 -9 -15 -9c-9 0 -19 7 -19 17c0 3 0 6 2 9l129 250c7 14 36 -14 65 -14z" />
    <glyph glyph-name="two" unicode="2" horiz-adv-x="380" 
d="M234 0c-91 0 -93 69 -145 69c-29 0 -57 -21 -60 -56c-1 -9 -7 -13 -14 -13s-15 5 -15 14c0 154 232 168 232 341c0 56 -13 116 -61 116c-33 0 -66 -14 -66 -44c0 -24 31 -37 31 -61c0 -34 -27 -61 -61 -61s-61 27 -61 61c0 79 74 134 157 134c98 0 190 -55 190 -145
c0 -143 -134 -156 -232 -206h7c86 0 113 -61 170 -61c51 0 39 42 59 42c7 0 15 -5 15 -14c0 -24 -46 -116 -146 -116z" />
    <glyph glyph-name="three" unicode="3" horiz-adv-x="345" 
d="M270 266c0 -39 76 -28 76 -125c0 -94 -83 -141 -186 -141c-82 0 -160 45 -160 119c0 32 26 58 58 58s58 -26 58 -58c0 -22 -36 -26 -36 -48c0 -33 42 -42 80 -42c46 0 56 58 56 112v38c0 40 -4 69 -43 69h-74c-12 0 -18 9 -18 18s6 18 18 18h74c40 0 43 31 43 73v30
c0 50 -16 84 -61 84c-34 0 -71 -8 -71 -38c0 -19 32 -23 32 -42c0 -28 -23 -51 -51 -51s-51 23 -51 51c0 67 68 109 141 109c93 0 174 -31 174 -113c0 -112 -59 -78 -59 -121z" />
    <glyph glyph-name="four" unicode="4" horiz-adv-x="414" 
d="M140 501c6 0 42 -15 80 -15c39 0 74 15 83 15c10 0 17 -7 17 -14c0 -2 0 -5 -2 -7l-282 -319h152v96c0 40 39 31 75 79c23 31 23 59 39 59c8 0 16 -6 16 -17v-217h79c12 0 18 -9 18 -18s-6 -18 -18 -18h-79c2 -51 33 -96 80 -96c10 0 15 -8 15 -15s-5 -14 -15 -14
c-49 0 -96 14 -145 14s-97 -14 -146 -14c-10 0 -14 7 -14 14s4 15 14 15c47 0 79 45 81 96h-152c-29 0 -38 17 -38 28c0 13 125 127 125 327c0 11 8 21 17 21z" />
    <glyph glyph-name="four.alt" unicode="&#xe0a6;" horiz-adv-x="414" 
d="M140 501c6 0 42 -15 80 -15c39 0 74 15 83 15c10 0 17 -7 17 -14c0 -2 0 -5 -2 -7l-282 -319h152v3c0 40 39 31 75 79c23 31 23 59 39 59c8 0 16 -6 16 -17v-124h79c12 0 18 -9 18 -18s-6 -18 -18 -18h-79c2 -51 33 -96 80 -96c10 0 15 -8 15 -15s-5 -14 -15 -14
c-49 0 -96 14 -145 14s-97 -14 -146 -14c-10 0 -14 7 -14 14s4 15 14 15c47 0 79 45 81 96h-152c-29 0 -38 17 -38 28c0 13 125 127 125 327c0 11 8 21 17 21z" />
    <glyph glyph-name="five" unicode="5" horiz-adv-x="349" 
d="M176 285c-113 0 -98 -46 -124 -46c-9 0 -18 7 -18 18v223c0 11 7 20 17 20c1 0 74 -14 140 -14c65 0 141 14 142 14c11 0 18 -7 18 -14c0 -8 -93 -107 -261 -107c-11 0 -20 -10 -20 -21v-73c27 27 67 36 106 36c117 0 188 -50 188 -161c0 -97 -96 -160 -200 -160
c-84 0 -164 43 -164 119c0 32 26 58 58 58s58 -26 58 -58c0 -22 -36 -26 -36 -48c0 -35 44 -42 84 -42c55 0 71 67 71 131c0 59 -8 125 -59 125z" />
    <glyph glyph-name="six" unicode="6" horiz-adv-x="352" 
d="M176 258c-42 0 -47 -31 -47 -75v-40v-39c0 -44 5 -75 47 -75c55 0 55 50 55 114s0 115 -55 115zM129 274c14 8 30 13 47 13c104 0 176 -46 176 -144s-72 -143 -176 -143c-114 0 -176 124 -176 250c0 129 77 250 197 250c73 0 141 -42 141 -109c0 -32 -26 -58 -58 -58
s-58 26 -58 58c0 21 35 23 35 44c0 26 -31 36 -60 36c-60 0 -70 -54 -70 -121c0 -24 1 -51 2 -76z" />
    <glyph glyph-name="seven" unicode="7" horiz-adv-x="344" 
d="M371 482c0 -18 -149 -186 -149 -383c0 -48 9 -77 9 -82c0 -9 -8 -18 -17 -18c-7 0 -43 15 -81 15s-74 -15 -82 -15c-9 0 -16 8 -16 16c0 4 25 93 206 343c-18 -8 -35 -13 -52 -13c-61 0 -68 52 -111 52c-34 0 -42 -53 -42 -77v-52c0 -12 -9 -18 -18 -18s-18 6 -18 18v214
c0 12 9 18 18 18s18 -6 18 -18v-16c0 -11 15 -21 18 -16c23 33 54 50 86 50c65 0 73 -55 120 -55c55 0 76 55 93 55c10 0 18 -8 18 -18z" />
    <glyph glyph-name="seven.alt" unicode="&#xe0a7;" horiz-adv-x="344" 
d="M371 482c0 -18 -149 -186 -149 -383c0 -48 9 -77 9 -82c0 -9 -8 -18 -17 -18c-7 0 -43 15 -81 15s-74 -15 -82 -15c-9 0 -16 8 -16 16c0 4 25 93 206 343c-18 -8 -35 -13 -52 -13c-61 0 -68 52 -111 52c-34 0 -42 -53 -42 -77c0 -12 -9 -18 -18 -18s-18 6 -18 18v162
c0 12 9 18 18 18s18 -6 18 -18v-16c0 -11 15 -21 18 -16c23 33 54 50 86 50c65 0 73 -55 120 -55c55 0 76 55 93 55c10 0 18 -8 18 -18z" />
    <glyph glyph-name="eight" unicode="8" horiz-adv-x="380" 
d="M266 297c24 28 41 59 41 96c0 50 -53 78 -109 78c-43 0 -68 -33 -68 -64c0 -18 9 -36 27 -47zM304 275c26 -15 81 -56 81 -127c0 -75 -67 -148 -195 -148c-97 0 -190 54 -190 143c0 49 35 84 71 119c-35 28 -53 66 -53 102c0 69 62 136 180 136c82 0 163 -35 163 -107
c0 -46 -26 -84 -57 -118zM107 239c-29 -27 -53 -56 -53 -96c0 -67 64 -114 136 -114c52 0 82 39 82 77c0 22 -10 44 -32 57z" />
    <glyph glyph-name="nine" unicode="9" horiz-adv-x="352" 
d="M176 242c42 0 47 31 47 75v40v39c0 44 -5 75 -47 75c-55 0 -55 -50 -55 -114s0 -115 55 -115zM223 226c-14 -8 -30 -13 -47 -13c-104 0 -176 46 -176 144s72 143 176 143c114 0 176 -124 176 -250c0 -129 -77 -250 -197 -250c-73 0 -141 42 -141 109c0 32 26 58 58 58
s58 -26 58 -58c0 -21 -34 -23 -34 -44c0 -26 30 -36 59 -36c60 0 70 54 70 121c0 24 -1 51 -2 76z" />
    <glyph glyph-name="fixedwidth.zero" unicode="&#xe0a8;" horiz-adv-x="414" 
d="M207 464c-54 0 -61 -71 -61 -141c0 -26 1 -51 1 -73s-1 -47 -1 -73c0 -70 7 -141 61 -141s62 71 62 141c0 26 -1 51 -1 73s1 47 1 73c0 70 -8 141 -62 141zM207 500c118 0 190 -122 190 -250s-72 -250 -190 -250s-190 122 -190 250s72 250 190 250z" />
    <glyph glyph-name="fixedwidth.one" unicode="&#xe0a9;" horiz-adv-x="414" 
d="M166 129h129c0 -52 32 -100 81 -100c10 0 14 -8 14 -15s-4 -14 -14 -14c-49 0 -97 14 -146 14s-96 -14 -145 -14c-10 0 -15 7 -15 14s5 15 15 15c49 0 81 48 81 100zM230 486c22 0 41 15 49 15s16 -9 16 -21v-351h-129v215c0 15 -11 23 -20 23c-5 0 -10 -2 -12 -7
l-66 -127c-4 -7 -9 -9 -15 -9c-9 0 -19 7 -19 17c0 3 0 6 2 9l130 250c7 14 35 -14 64 -14z" />
    <glyph glyph-name="fixedwidth.two" unicode="&#xe0aa;" horiz-adv-x="414" 
d="M251 0c-91 0 -93 69 -145 69c-29 0 -57 -21 -60 -56c-1 -9 -7 -13 -14 -13s-15 5 -15 14c0 154 232 168 232 341c0 56 -13 116 -61 116c-33 0 -65 -15 -65 -44c0 -24 31 -37 31 -61c0 -34 -27 -61 -61 -61s-61 27 -61 61c0 78 74 134 156 134c98 0 190 -55 190 -145
c0 -143 -134 -156 -232 -206h7c86 0 113 -61 170 -61c51 0 40 42 60 42c7 0 14 -5 14 -14c0 -24 -46 -116 -146 -116z" />
    <glyph glyph-name="fixedwidth.three" unicode="&#xe0ab;" horiz-adv-x="414" 
d="M304 266c0 -39 76 -28 76 -125c0 -94 -83 -141 -186 -141c-82 0 -159 45 -159 119c0 32 26 58 58 58s58 -26 58 -58c0 -22 -36 -26 -36 -48c0 -33 41 -42 79 -42c46 0 57 58 57 112v38c0 40 -5 69 -44 69h-74c-12 0 -18 9 -18 18s6 18 18 18h74c40 0 44 31 44 73v30
c0 50 -16 84 -61 84c-33 0 -68 -9 -68 -38c0 -19 31 -23 31 -42c0 -28 -22 -51 -50 -51s-51 23 -51 51c0 66 66 109 138 109c93 0 174 -31 174 -113c0 -112 -60 -78 -60 -121z" />
    <glyph glyph-name="fixedwidth.four" unicode="&#xe0ac;" horiz-adv-x="414" 
d="M140 501c6 0 42 -15 80 -15c39 0 74 15 83 15c10 0 17 -7 17 -14c0 -2 0 -5 -2 -7l-282 -319h152v96c0 40 39 31 75 79c23 31 23 59 39 59c8 0 16 -6 16 -17v-217h79c12 0 18 -9 18 -18s-6 -18 -18 -18h-79c2 -51 33 -96 80 -96c10 0 15 -8 15 -15s-5 -14 -15 -14
c-49 0 -96 14 -145 14s-97 -14 -146 -14c-10 0 -14 7 -14 14s4 15 14 15c47 0 79 45 81 96h-152c-29 0 -38 17 -38 28c0 13 125 127 125 327c0 11 8 21 17 21z" />
    <glyph glyph-name="fixedwidth.four.alt" unicode="&#xe0ad;" horiz-adv-x="414" 
d="M140 501c6 0 42 -15 80 -15c39 0 74 15 83 15c10 0 17 -7 17 -14c0 -2 0 -5 -2 -7l-282 -319h152v3c0 40 39 31 75 79c23 31 23 59 39 59c8 0 16 -6 16 -17v-124h79c12 0 18 -9 18 -18s-6 -18 -18 -18h-79c2 -51 33 -96 80 -96c10 0 15 -8 15 -15s-5 -14 -15 -14
c-49 0 -96 14 -145 14s-97 -14 -146 -14c-10 0 -14 7 -14 14s4 15 14 15c47 0 79 45 81 96h-152c-29 0 -38 17 -38 28c0 13 125 127 125 327c0 11 8 21 17 21z" />
    <glyph glyph-name="fixedwidth.five" unicode="&#xe0ae;" horiz-adv-x="414" 
d="M74 500c1 0 74 -14 140 -14c65 0 141 14 142 14c11 0 18 -7 18 -14c0 -8 -93 -107 -261 -107c-11 0 -21 -10 -21 -21v-73c27 27 67 36 106 36c117 0 189 -50 189 -161c0 -97 -96 -160 -200 -160c-84 0 -164 43 -164 119c0 32 26 58 58 58s58 -26 58 -58
c0 -22 -36 -26 -36 -48c0 -35 44 -42 84 -42c55 0 70 67 70 131c0 59 -8 125 -59 125c-113 0 -97 -46 -123 -46c-9 0 -19 7 -19 18v223c0 11 8 20 18 20z" />
    <glyph glyph-name="fixedwidth.six" unicode="&#xe0af;" horiz-adv-x="414" 
d="M207 258c-42 0 -47 -31 -47 -75c0 -12 1 -26 1 -40s-1 -27 -1 -39c0 -44 5 -75 47 -75c55 0 55 50 55 114s0 115 -55 115zM160 274c14 8 30 13 47 13c104 0 177 -46 177 -144s-73 -143 -177 -143c-114 0 -176 124 -176 250c0 129 77 250 197 250c73 0 141 -42 141 -109
c0 -32 -26 -58 -58 -58s-58 26 -58 58c0 21 35 23 35 44c0 26 -31 36 -60 36c-60 0 -70 -54 -70 -121c0 -24 1 -51 2 -76z" />
    <glyph glyph-name="fixedwidth.seven" unicode="&#xe0b0;" horiz-adv-x="414" 
d="M418 482c0 -21 -160 -195 -160 -389c0 -44 8 -71 8 -76c0 -9 -8 -18 -17 -18c-7 0 -43 15 -81 15s-74 -15 -82 -15c-9 0 -16 8 -16 16c0 4 15 78 215 341c-18 -8 -35 -12 -52 -12c-63 0 -71 55 -117 55c-38 0 -45 -56 -45 -79v-52c0 -12 -9 -18 -18 -18s-18 6 -18 18v214
c0 12 9 18 18 18s18 -6 18 -18v-16c0 -11 15 -21 18 -16c23 33 56 50 90 50c69 0 75 -56 125 -56c57 0 79 56 96 56c10 0 18 -8 18 -18z" />
    <glyph glyph-name="fixedwidth.seven.alt" unicode="&#xe0b1;" horiz-adv-x="414" 
d="M418 482c0 -21 -160 -195 -160 -389c0 -44 8 -71 8 -76c0 -9 -8 -18 -17 -18c-7 0 -43 15 -81 15s-74 -15 -82 -15c-9 0 -16 8 -16 16c0 4 15 78 215 341c-18 -8 -35 -12 -52 -12c-63 0 -71 55 -117 55c-38 0 -45 -56 -45 -79c0 -12 -9 -18 -18 -18s-18 6 -18 18v162
c0 12 9 18 18 18s18 -6 18 -18v-16c0 -11 15 -21 18 -16c23 33 56 50 90 50c69 0 75 -56 125 -56c57 0 79 56 96 56c10 0 18 -8 18 -18z" />
    <glyph glyph-name="fixedwidth.eight" unicode="&#xe0b2;" horiz-adv-x="414" 
d="M283 297c24 28 41 59 41 96c0 50 -53 78 -109 78c-43 0 -68 -33 -68 -64c0 -18 9 -36 27 -47zM321 275c26 -15 81 -56 81 -127c0 -75 -67 -148 -195 -148c-97 0 -190 54 -190 143c0 49 35 84 71 119c-35 28 -53 66 -53 102c0 69 62 136 180 136c82 0 163 -35 163 -107
c0 -46 -26 -84 -57 -118zM124 239c-29 -27 -53 -56 -53 -96c0 -67 64 -114 136 -114c52 0 82 39 82 77c0 22 -10 44 -32 57z" />
    <glyph glyph-name="fixedwidth.nine" unicode="&#xe0b3;" horiz-adv-x="414" 
d="M207 242c42 0 47 31 47 75v40v39c0 44 -5 75 -47 75c-55 0 -55 -50 -55 -114s0 -115 55 -115zM254 226c-14 -8 -30 -13 -47 -13c-104 0 -176 46 -176 144s72 143 176 143c114 0 177 -124 177 -250c0 -129 -78 -250 -198 -250c-73 0 -141 42 -141 109c0 32 26 58 58 58
s59 -26 59 -58c0 -21 -35 -23 -35 -44c0 -26 30 -36 59 -36c60 0 70 54 70 121c0 24 -1 51 -2 76z" />
    <glyph glyph-name="fattened.zero" unicode="&#xe0b4;" horiz-adv-x="380" 
d="M190 446c-56 0 -61 -84 -61 -155v-41v-41c0 -71 5 -155 61 -155s61 84 61 155v41v41c0 71 -5 155 -61 155zM190 500c118 0 190 -122 190 -250s-72 -250 -190 -250s-190 122 -190 250s72 250 190 250z" />
    <glyph glyph-name="fattened.one" unicode="&#xe0b5;" horiz-adv-x="361" 
d="M194 486c16 0 29 15 41 15c13 0 24 -13 24 -31v-341c0 -47 35 -86 81 -86c14 0 21 -10 21 -21s-7 -22 -21 -22c-49 0 -97 14 -146 14s-96 -14 -145 -14c-14 0 -22 11 -22 22s8 21 22 21c46 0 80 39 80 86v137c0 23 -16 35 -30 35c-7 0 -13 -4 -17 -11l-34 -65
c-5 -10 -14 -15 -23 -15c-14 0 -28 12 -28 27c0 4 1 8 3 13l129 250c2 4 7 6 11 6c18 0 37 -20 54 -20z" />
    <glyph glyph-name="fattened.two" unicode="&#xe0b6;" horiz-adv-x="380" 
d="M94 66c-60 0 -39 -66 -72 -66c-11 0 -22 7 -22 21c0 154 232 162 232 334c0 50 -17 102 -61 102c-33 0 -66 -14 -66 -44c0 -24 31 -37 31 -61c0 -34 -27 -61 -61 -61s-61 27 -61 61c0 84 72 148 157 148c98 0 190 -55 190 -145c0 -140 -131 -154 -225 -205
c85 -2 113 -61 165 -61c45 0 28 41 57 41c11 0 22 -8 22 -21c0 -29 -48 -109 -144 -109c-92 0 -96 66 -142 66z" />
    <glyph glyph-name="fattened.three" unicode="&#xe0b7;" horiz-adv-x="345" 
d="M261 266c0 -54 85 -40 85 -125c0 -94 -83 -141 -186 -141c-84 0 -160 54 -160 133c0 32 26 58 58 58s58 -26 58 -58c0 -22 -36 -26 -36 -48c0 -33 42 -42 80 -42c41 0 56 50 56 98v21c0 44 -2 77 -43 77h-65c-18 0 -27 14 -27 27s9 27 27 27h65c42 0 43 36 43 83v11
c0 43 -20 70 -61 70c-34 0 -71 -8 -71 -38c0 -19 32 -23 32 -42c0 -28 -23 -51 -51 -51s-51 23 -51 51c0 72 66 123 141 123c93 0 174 -31 174 -113c0 -94 -68 -67 -68 -121z" />
    <glyph glyph-name="fattened.four" unicode="&#xe0b8;" horiz-adv-x="414" 
d="M148 501c10 0 41 -15 72 -15c32 0 63 15 76 15c15 0 26 -11 26 -21c0 -4 -1 -7 -4 -10l-264 -291h134v35c0 60 50 41 75 85c7 11 8 24 14 36c3 7 10 10 17 10c11 0 24 -8 24 -25v-141h70c18 0 27 -14 27 -27s-9 -27 -27 -27h-70c2 -45 36 -82 80 -82c14 0 22 -10 22 -21
s-8 -22 -22 -22c-49 0 -96 14 -145 14s-97 -14 -146 -14c-14 0 -21 11 -21 22s7 21 21 21c44 0 79 37 81 82h-134c-43 0 -57 25 -57 42c0 5 1 10 3 12c73 81 123 182 123 291c0 17 11 31 25 31z" />
    <glyph glyph-name="fattened.four.alt" unicode="&#xe0b9;" horiz-adv-x="414" 
d="M148 501c10 0 41 -15 72 -15c32 0 63 15 76 15c15 0 26 -11 26 -21c0 -4 -1 -7 -4 -10l-264 -291h134v4c0 60 50 41 75 85c7 11 8 24 14 36c3 7 10 10 17 10c11 0 24 -8 24 -25v-110h70c18 0 27 -14 27 -27s-9 -27 -27 -27h-70c2 -45 36 -82 80 -82c14 0 22 -10 22 -21
s-8 -22 -22 -22c-49 0 -96 14 -145 14s-97 -14 -146 -14c-14 0 -21 11 -21 22s7 21 21 21c44 0 79 37 81 82h-134c-43 0 -57 25 -57 42c0 5 1 10 3 12c73 81 123 182 123 291c0 17 11 31 25 31z" />
    <glyph glyph-name="fattened.five" unicode="&#xe0ba;" horiz-adv-x="349" 
d="M60 500c8 0 69 -14 131 -14c54 0 133 15 134 15c17 0 28 -12 28 -22c0 -13 -89 -100 -235 -100c-17 0 -30 -14 -30 -31v-41c25 25 62 25 97 25h5c115 0 181 -55 181 -166c0 -99 -96 -166 -202 -166c-88 0 -169 52 -169 133c0 32 26 58 58 58s58 -26 58 -58
c0 -22 -36 -26 -36 -48c0 -36 47 -42 89 -42c52 0 73 63 73 123c0 53 -6 112 -52 112c-133 0 -87 -44 -129 -44c-14 0 -27 10 -27 27v209c0 17 11 30 26 30z" />
    <glyph glyph-name="fattened.six" unicode="&#xe0bb;" horiz-adv-x="352" 
d="M176 226c-44 0 -47 -40 -47 -92s3 -91 47 -91c46 0 55 38 55 91s-9 92 -55 92zM129 257c14 8 30 12 47 12c103 0 176 -41 176 -135s-73 -134 -176 -134c-114 0 -176 124 -176 250c0 129 77 250 197 250c75 0 141 -52 141 -123c0 -32 -26 -58 -58 -58s-58 26 -58 58
c0 21 35 23 35 44c0 26 -31 36 -60 36c-61 0 -69 -60 -69 -129c0 -23 1 -48 1 -71z" />
    <glyph glyph-name="fattened.seven" unicode="&#xe0bc;" horiz-adv-x="326" 
d="M367 473c0 -21 -128 -163 -128 -357c0 -53 10 -84 10 -91c0 -14 -12 -26 -25 -26c-11 0 -42 15 -73 15c-32 0 -62 -15 -74 -15c-14 0 -25 11 -25 23c0 4 47 128 172 326c-10 -3 -20 -4 -29 -4c-56 0 -62 42 -94 42c-26 0 -47 -53 -47 -75v-34c0 -18 -14 -27 -27 -27
s-27 9 -27 27v196c0 18 14 27 27 27s27 -9 27 -27v-16c0 -10 13 -19 21 -19c9 0 35 57 85 57c49 0 60 -46 94 -46c47 0 60 51 85 51c14 0 28 -12 28 -27z" />
    <glyph glyph-name="fattened.seven.alt" unicode="&#xe0bd;" horiz-adv-x="326" 
d="M367 473c0 -21 -128 -163 -128 -357c0 -53 10 -84 10 -91c0 -14 -12 -26 -25 -26c-11 0 -42 15 -73 15c-32 0 -62 -15 -74 -15c-14 0 -25 11 -25 23c0 4 47 128 172 326c-10 -3 -20 -4 -29 -4c-56 0 -62 42 -94 42c-26 0 -47 -53 -47 -75c0 -18 -14 -27 -27 -27
s-27 9 -27 27v162c0 18 14 27 27 27s27 -9 27 -27v-16c0 -10 13 -19 21 -19c9 0 35 57 85 57c49 0 60 -46 94 -46c47 0 60 51 85 51c14 0 28 -12 28 -27z" />
    <glyph glyph-name="fattened.eight" unicode="&#xe0be;" horiz-adv-x="380" 
d="M241 312c23 26 39 55 39 90c0 37 -41 55 -82 55c-40 0 -63 -30 -63 -58c0 -15 7 -30 22 -39zM296 280c21 -12 89 -52 89 -132c0 -75 -67 -148 -195 -148c-99 0 -190 60 -190 152c0 47 31 82 65 115c-32 27 -47 62 -47 97c0 69 62 136 180 136c80 0 163 -28 163 -98
c0 -49 -31 -87 -65 -122zM119 233c-22 -23 -38 -48 -38 -81c0 -60 49 -109 109 -109c49 0 77 37 77 71c0 19 -8 38 -27 49z" />
    <glyph glyph-name="fattened.nine" unicode="&#xe0bf;" horiz-adv-x="352" 
d="M176 274c44 0 47 40 47 92s-3 91 -47 91c-46 0 -55 -38 -55 -91s9 -92 55 -92zM223 243c-14 -8 -30 -12 -47 -12c-103 0 -176 41 -176 135s73 134 176 134c114 0 176 -124 176 -250c0 -129 -77 -250 -197 -250c-75 0 -141 52 -141 123c0 32 26 58 58 58s58 -26 58 -58
c0 -21 -34 -23 -34 -44c0 -26 30 -36 59 -36c61 0 69 60 69 129c0 23 -1 48 -1 71z" />
    <glyph glyph-name="fattened.fixedwidth.zero" unicode="&#xe0c0;" horiz-adv-x="414" 
d="M207 446c-56 0 -60 -84 -60 -155v-41v-41c0 -71 4 -155 60 -155s61 84 61 155v41v41c0 71 -5 155 -61 155zM207 500c118 0 190 -122 190 -250s-72 -250 -190 -250s-190 122 -190 250s72 250 190 250z" />
    <glyph glyph-name="fattened.fixedwidth.one" unicode="&#xe0c1;" horiz-adv-x="414" 
d="M226 486c16 0 29 15 41 15c13 0 24 -13 24 -31v-341c0 -47 35 -86 81 -86c14 0 21 -10 21 -21s-7 -22 -21 -22c-49 0 -97 14 -146 14s-97 -14 -146 -14c-14 0 -21 11 -21 22s7 21 21 21c46 0 81 39 81 86v137c0 23 -16 35 -30 35c-7 0 -13 -4 -17 -11l-34 -65
c-5 -10 -14 -15 -23 -15c-14 0 -28 12 -28 27c0 4 1 8 3 13l129 250c2 4 7 6 11 6c18 0 37 -20 54 -20z" />
    <glyph glyph-name="fattened.fixedwidth.two" unicode="&#xe0c2;" horiz-adv-x="414" 
d="M111 66c-60 0 -39 -66 -72 -66c-11 0 -22 7 -22 21c0 154 232 162 232 334c0 50 -17 102 -61 102c-33 0 -65 -15 -65 -44c0 -24 31 -37 31 -61c0 -34 -27 -61 -61 -61s-61 27 -61 61c0 83 71 148 156 148c98 0 190 -55 190 -145c0 -140 -131 -154 -225 -205
c85 -2 113 -61 165 -61c45 0 28 41 57 41c11 0 23 -8 23 -21c0 -29 -49 -109 -145 -109c-92 0 -96 66 -142 66z" />
    <glyph glyph-name="fattened.fixedwidth.three" unicode="&#xe0c3;" horiz-adv-x="414" 
d="M296 266c0 -54 84 -40 84 -125c0 -94 -83 -141 -186 -141c-84 0 -159 54 -159 133c0 32 26 58 58 58s58 -26 58 -58c0 -22 -36 -26 -36 -48c0 -33 41 -42 79 -42c41 0 57 50 57 98v21c0 44 -3 77 -44 77h-65c-18 0 -27 14 -27 27s9 27 27 27h65c42 0 44 36 44 83v11
c0 43 -20 70 -61 70c-33 0 -68 -9 -68 -38c0 -19 31 -23 31 -42c0 -28 -22 -51 -50 -51s-51 23 -51 51c0 71 64 123 138 123c93 0 174 -31 174 -113c0 -94 -68 -67 -68 -121z" />
    <glyph glyph-name="fattened.fixedwidth.four" unicode="&#xe0c4;" horiz-adv-x="414" 
d="M148 501c10 0 41 -15 72 -15c32 0 63 15 76 15c15 0 26 -11 26 -21c0 -4 -1 -7 -4 -10l-264 -291h134v35c0 60 50 41 75 85c7 11 8 24 14 36c3 7 10 10 17 10c11 0 24 -8 24 -25v-141h70c18 0 27 -14 27 -27s-9 -27 -27 -27h-70c2 -45 36 -82 80 -82c14 0 22 -10 22 -21
s-8 -22 -22 -22c-49 0 -96 14 -145 14s-97 -14 -146 -14c-14 0 -21 11 -21 22s7 21 21 21c44 0 79 37 81 82h-134c-43 0 -57 25 -57 42c0 5 1 10 3 12c73 81 123 182 123 291c0 17 11 31 25 31z" />
    </font>
</defs>
</svg>
