<?xml version="1.0" standalone="no"?>
<!DOCTYPE svg PUBLIC "-//W3C//DTD SVG 1.1//EN" "http://www.w3.org/Graphics/SVG/1.1/DTD/svg11.dtd" >
<!--
2023-2-10: Created with FontForge (http://fontforge.org)
-->
<svg xmlns="http://www.w3.org/2000/svg" xmlns:xlink="http://www.w3.org/1999/xlink" version="1.1">
<metadata>
Created by FontForge 20230101 at Fri Feb 10 18:20:54 2023
 By Jonas Hahnfeld
This font is distributed under the GNU General Public License.
As a special exception, if you create a document which uses
this font, and embed this font or unaltered portions of this
font into the document, this font does not by itself cause the
resulting document to be covered by the GNU General Public License.

</metadata>
<defs>
<font id="Emmentaler-20" horiz-adv-x="244" >
  <font-face 
    font-family="Emmentaler-20"
    font-weight="400"
    font-stretch="normal"
    units-per-em="1000"
    panose-1="2 0 5 3 0 0 0 0 0 0"
    ascent="800"
    descent="-200"
    x-height="267"
    bbox="-516 -2314 1300 2127"
    underline-thickness="50"
    underline-position="-100"
    unicode-range="U+0020-1D12B"
  />
    <missing-glyph />
    <glyph glyph-name="rests.0" unicode="&#xe000;" horiz-adv-x="375" 
d="M365 -156h-355c-6 0 -10 4 -10 10v136c0 6 4 10 10 10h355c6 0 10 -4 10 -10v-136c0 -6 -4 -10 -10 -10z" />
    <glyph glyph-name="rests.1" unicode="&#xe001;" horiz-adv-x="375" 
d="M365 0h-355c-6 0 -10 4 -10 10v136c0 6 4 10 10 10h355c6 0 10 -4 10 -10v-136c0 -6 -4 -10 -10 -10z" />
    <glyph glyph-name="rests.0o" unicode="&#xe002;" horiz-adv-x="375" 
d="M365 -156h-355c-6 0 -10 4 -10 10v121h-131c-14 0 -25 11 -25 25s11 25 25 25h637c14 0 25 -11 25 -25s-11 -25 -25 -25h-131v-121c0 -6 -4 -10 -10 -10z" />
    <glyph glyph-name="rests.1o" unicode="&#xe003;" horiz-adv-x="375" 
d="M506 -25h-637c-14 0 -25 11 -25 25s11 25 25 25h131v121c0 6 4 10 10 10h355c6 0 10 -4 10 -10v-121h131c14 0 25 -11 25 -25s-11 -25 -25 -25z" />
    <glyph glyph-name="rests.M3" unicode="&#xe004;" horiz-adv-x="450" 
d="M440 -250h-130c-6 0 -10 4 -10 10v480c0 6 4 10 10 10h130c6 0 10 -4 10 -10v-480c0 -6 -4 -10 -10 -10zM140 -250h-130c-6 0 -10 4 -10 10v480c0 6 4 10 10 10h130c6 0 10 -4 10 -10v-480c0 -6 -4 -10 -10 -10z" />
    <glyph glyph-name="rests.M2" unicode="&#xe005;" horiz-adv-x="150" 
d="M140 -250h-130c-6 0 -10 4 -10 10v480c0 6 4 10 10 10h130c6 0 10 -4 10 -10v-480c0 -6 -4 -10 -10 -10z" />
    <glyph glyph-name="rests.M1" unicode="&#xe006;" horiz-adv-x="150" 
d="M140 0h-130c-6 0 -10 4 -10 10v230c0 6 4 10 10 10h130c6 0 10 -4 10 -10v-230c0 -6 -4 -10 -10 -10z" />
    <glyph glyph-name="rests.M1o" unicode="&#xe007;" horiz-adv-x="150" 
d="M250 -25h-350c-14 0 -25 11 -25 25s11 25 25 25h100v200h-100c-14 0 -25 11 -25 25s11 25 25 25h350c14 0 25 -11 25 -25s-11 -25 -25 -25h-100v-200h100c14 0 25 -11 25 -25s-11 -25 -25 -25z" />
    <glyph glyph-name="rests.2" unicode="&#xe008;" horiz-adv-x="237" 
d="M-6 78c0 59 124 83 124 182c0 24 -8 49 -25 69l-35 42c-3 3 -4 7 -4 10c0 9 9 15 17 15c4 0 8 -1 11 -5l151 -180c7 -9 10 -17 10 -25c0 -59 -124 -83 -124 -182c0 -24 7 -49 24 -69l84 -99c3 -3 4 -7 4 -10c0 -9 -8 -16 -16 -16s-45 44 -109 44c-16 0 -53 0 -53 -67
c0 -35 11 -74 28 -94c7 -8 -5 -19 -12 -11c-45 54 -92 148 -92 202c0 41 27 42 40 42c33 0 78 -13 119 -31l-132 158c-7 9 -10 17 -10 25z" />
    <glyph glyph-name="rests.2classical" unicode="&#xe009;" horiz-adv-x="250" 
d="M180 205c40 0 73 -32 73 -72c0 -45 -40 -79 -87 -79c-36 0 -71 10 -105 22l117 -326c-8 -7 -18 -10 -28 -10s-19 3 -27 10l-123 420c5 12 22 12 28 0c7 -15 45 -63 61 -63c45 0 12 98 91 98z" />
    <glyph glyph-name="rests.2z" unicode="&#xe00a;" horiz-adv-x="281" 
d="M120 107c45 0 11 98 90 98c40 0 73 -32 73 -72c0 -45 -40 -79 -87 -79c-27 0 -53 8 -79 17l161 -247c10 -11 1 -28 -13 -28c-24 0 -72 97 -103 97c-45 0 -12 -98 -91 -98c-40 0 -73 32 -73 72c0 45 40 79 87 79c27 0 54 -8 80 -17l-162 247c-10 11 -1 28 13 28
c24 0 73 -97 104 -97z" />
    <glyph glyph-name="rests.3" unicode="&#xe00b;" horiz-adv-x="250" 
d="M70 205c79 0 46 -98 91 -98c16 0 54 48 61 63c6 12 23 12 28 0l-123 -420c-8 -7 -17 -10 -27 -10s-20 3 -28 10l117 326c-34 -12 -69 -22 -105 -22c-47 0 -87 34 -87 79c0 40 33 72 73 72z" />
    <glyph glyph-name="rests.4" unicode="&#xe00c;" horiz-adv-x="299" 
d="M125 205c79 0 45 -98 90 -98c15 0 50 49 57 63c6 12 23 12 28 0l-179 -670c-8 -7 -17 -10 -27 -10s-20 3 -28 10l101 327c-34 -12 -70 -23 -106 -23c-47 0 -87 34 -87 79c0 40 32 72 72 72c79 0 46 -98 91 -98c16 0 55 51 60 68l46 151c-34 -12 -68 -22 -104 -22
c-47 0 -87 34 -87 79c0 40 33 72 73 72z" />
    <glyph glyph-name="rests.5" unicode="&#xe00d;" horiz-adv-x="325" 
d="M154 455c79 0 46 -98 91 -98c15 0 46 49 52 63c6 13 23 12 28 0l-216 -920c-8 -7 -18 -10 -28 -10s-19 3 -27 10l86 327c-35 -13 -71 -23 -108 -23c-47 0 -87 34 -87 79c0 40 32 72 72 72c79 0 46 -98 91 -98c17 0 54 54 59 71l39 149c-34 -12 -70 -23 -106 -23
c-47 0 -87 34 -87 79c0 40 33 72 73 72c79 0 45 -98 90 -98c16 0 52 51 56 68l40 151c-33 -12 -68 -22 -103 -22c-47 0 -87 34 -87 79c0 40 32 72 72 72z" />
    <glyph glyph-name="rests.6" unicode="&#xe00e;" horiz-adv-x="349" 
d="M184 455c79 0 46 -98 91 -98c14 0 41 49 47 63c6 13 23 13 28 0l-235 -1170c-8 -7 -18 -10 -28 -10s-19 3 -27 10l73 328c-36 -13 -74 -24 -113 -24c-47 0 -87 34 -87 79c0 40 33 72 73 72c79 0 45 -98 90 -98c17 0 56 55 60 73l33 147c-35 -13 -71 -23 -109 -23
c-47 0 -87 34 -87 79c0 40 32 72 72 72c79 0 46 -98 91 -98c16 0 51 54 55 71l34 149c-34 -12 -70 -23 -106 -23c-47 0 -87 34 -87 79c0 40 33 72 73 72c79 0 45 -98 90 -98c15 0 48 52 52 68l34 151c-33 -12 -67 -22 -102 -22c-47 0 -87 34 -87 79c0 40 32 72 72 72z" />
    <glyph glyph-name="rests.7" unicode="&#xe00f;" horiz-adv-x="375" 
d="M214 705c79 0 46 -98 91 -98c23 0 35 78 60 72c5 -1 8 -4 10 -9l-237 -1420c-8 -7 -18 -10 -28 -10s-19 3 -27 10l61 329c-38 -14 -77 -25 -117 -25c-47 0 -87 34 -87 79c0 40 32 72 72 72c79 0 46 -98 91 -98c18 0 57 57 60 76l27 145c-37 -13 -74 -24 -113 -24
c-47 0 -87 34 -87 79c0 40 32 72 72 72c79 0 46 -98 91 -98c17 0 53 55 56 73l27 147c-35 -13 -71 -23 -108 -23c-47 0 -87 34 -87 79c0 40 32 72 72 72c79 0 46 -98 91 -98c16 0 48 54 51 71l28 148c-34 -12 -69 -22 -105 -22c-47 0 -87 34 -87 79c0 40 32 72 72 72
c79 0 46 -98 91 -98c15 0 44 52 47 68l28 151c-32 -12 -66 -22 -100 -22c-47 0 -87 34 -87 79c0 40 32 72 72 72z" />
    <glyph glyph-name="rests.8" unicode="&#xe010;" horiz-adv-x="375" 
d="M218 705c79 0 46 -98 91 -98c23 0 29 77 55 72c5 -1 9 -4 11 -9l-231 -1670c-8 -7 -17 -10 -27 -10s-20 3 -28 10l51 330c-39 -14 -79 -26 -121 -26c-47 0 -87 34 -87 79c0 40 32 72 72 72c79 0 46 -98 91 -98c18 0 58 58 61 78l22 144c-38 -13 -76 -25 -116 -25
c-47 0 -87 34 -87 79c0 40 32 72 72 72c79 0 46 -98 91 -98c17 0 53 57 56 76l23 145c-36 -13 -74 -24 -113 -24c-47 0 -87 34 -87 79c0 40 33 72 73 72c79 0 46 -98 91 -98c16 0 48 55 51 73l23 147c-35 -12 -71 -23 -108 -23c-47 0 -87 34 -87 79c0 40 33 72 73 72
c79 0 45 -98 90 -98c15 0 45 54 48 71l22 148c-33 -12 -68 -22 -103 -22c-47 0 -87 34 -87 79c0 40 32 72 72 72c79 0 46 -98 91 -98c15 0 41 52 43 68l23 150c-32 -11 -65 -21 -99 -21c-47 0 -87 34 -87 79c0 40 32 72 72 72z" />
    <glyph glyph-name="rests.9" unicode="&#xe011;" horiz-adv-x="375" 
d="M223 955c79 0 46 -98 91 -98c22 0 23 77 50 72c5 -1 9 -4 11 -9l-216 -1920c-8 -7 -17 -10 -27 -10s-20 3 -28 10l42 331c-41 -14 -83 -27 -126 -27c-47 0 -87 34 -87 79c0 40 32 72 72 72c79 0 46 -98 91 -98c19 0 60 60 63 80l18 143c-39 -14 -79 -26 -121 -26
c-47 0 -87 34 -87 79c0 40 33 72 73 72c79 0 45 -98 90 -98c18 0 56 59 58 78l19 144c-38 -13 -76 -25 -116 -25c-47 0 -88 34 -88 79c0 40 33 72 73 72c79 0 46 -98 91 -98c17 0 51 56 53 75l18 146c-36 -13 -73 -24 -111 -24c-47 0 -87 34 -87 79c0 40 32 72 72 72
c79 0 46 -98 91 -98c16 0 46 55 48 73l18 147c-34 -12 -69 -23 -106 -23c-47 0 -87 34 -87 79c0 40 32 72 72 72c79 0 46 -98 91 -98c15 0 41 53 43 70l19 149c-33 -12 -67 -22 -102 -22c-47 0 -87 34 -87 79c0 40 32 72 72 72c79 0 46 -98 91 -98c14 0 36 52 38 68l19 150
c-31 -11 -64 -21 -97 -21c-47 0 -87 34 -87 79c0 40 33 72 73 72z" />
    <glyph glyph-name="rests.10" unicode="&#xe012;" horiz-adv-x="375" 
d="M227 955c79 0 46 -98 91 -98c22 0 18 78 46 73c5 -1 9 -5 11 -10l-196 -2170c-8 -7 -17 -10 -27 -10s-20 3 -28 10l34 332c-42 -15 -85 -28 -130 -28c-47 0 -87 34 -87 79c0 40 33 72 73 72c79 0 45 -98 90 -98c19 0 63 62 65 83l14 141c-40 -14 -81 -27 -124 -27
c-47 0 -87 34 -87 79c0 40 32 72 72 72c79 0 46 -98 91 -98c18 0 57 60 59 80l15 143c-39 -14 -79 -26 -120 -26c-47 0 -87 34 -87 79c0 40 33 72 73 72c79 0 45 -98 90 -98c17 0 53 59 55 78l14 144c-37 -13 -75 -25 -114 -25c-47 0 -87 34 -87 79c0 40 32 72 72 72
c79 0 46 -98 91 -98c16 0 47 58 49 76l15 145c-35 -13 -72 -24 -110 -24c-47 0 -87 34 -87 79c0 40 32 72 72 72c79 0 46 -98 91 -98c16 0 42 56 44 73l15 146c-34 -12 -68 -22 -104 -22c-47 0 -87 34 -87 79c0 40 32 72 72 72c79 0 46 -98 91 -98c15 0 37 54 39 71l15 147
c-32 -11 -66 -21 -100 -21c-47 0 -87 34 -87 79c0 40 32 72 72 72c79 0 46 -98 91 -98c14 0 32 52 34 68l15 149c-31 -11 -61 -20 -94 -20c-47 0 -87 34 -87 79c0 40 32 72 72 72z" />
    <glyph glyph-name="accidentals.sharp" unicode="&#xe013;" horiz-adv-x="275" 
d="M0 119c0 8 5 15 13 18l46 17v158c0 10 8 19 18 19s19 -9 19 -19v-145l83 31v158c0 10 9 19 19 19s18 -9 18 -19v-145l32 12c2 1 5 1 7 1c11 0 20 -9 20 -20v-60c0 -8 -5 -16 -13 -19l-46 -16v-160l32 11c2 1 5 1 7 1c11 0 20 -9 20 -20v-60c0 -8 -5 -15 -13 -18l-46 -17
v-158c0 -10 -8 -19 -18 -19s-19 9 -19 19v145l-83 -31v-158c0 -10 -9 -19 -19 -19s-18 9 -18 19v145l-32 -12c-2 -1 -5 -1 -7 -1c-11 0 -20 9 -20 20v60c0 8 5 16 13 19l46 16v160l-32 -11c-2 -1 -5 -1 -7 -1c-11 0 -20 9 -20 20v60zM179 95l-83 -30v-160l83 30v160z" />
    <glyph glyph-name="accidentals.sharp.figbass" unicode="&#x266f;" horiz-adv-x="275" 
d="M0 355c0 8 5 16 13 19l46 17v109c0 10 8 19 18 19s19 -9 19 -19v-96l83 30v110c0 10 9 19 19 19s18 -9 18 -19v-96l32 12c2 1 5 1 7 1c11 0 20 -9 20 -20v-60c0 -8 -5 -16 -13 -19l-46 -16v-134l32 11c2 1 5 2 7 2c11 0 20 -9 20 -20v-60c0 -8 -5 -16 -13 -19l-46 -17
v-109c0 -10 -8 -19 -18 -19s-19 9 -19 19v96l-83 -30v-110c0 -10 -9 -19 -19 -19s-18 9 -18 19v96l-32 -12c-2 -1 -5 -1 -7 -1c-11 0 -20 9 -20 20v60c0 8 5 16 13 19l46 16v134l-32 -11c-2 -1 -5 -2 -7 -2c-11 0 -20 9 -20 20v60zM179 332l-83 -30v-134l83 30v134z" />
    <glyph glyph-name="accidentals.sharp.arrowup" unicode="&#xe014;" horiz-adv-x="275" 
d="M0 119c0 8 5 15 13 18l46 17v158c0 10 8 19 18 19s19 -9 19 -19v-145l83 31v158v66c0 13 -6 18 -14 18c-17 0 -48 -22 -76 -38c-9 -5 -19 5 -13 14c87 125 113 273 129 234c33 -81 64 -163 114 -234c6 -9 -3 -19 -12 -14c-28 16 -60 38 -77 38c-8 0 -14 -5 -14 -18v-211
l32 12c2 1 5 1 7 1c11 0 20 -9 20 -20v-60c0 -8 -5 -16 -13 -19l-46 -16v-160l32 11c2 1 5 1 7 1c11 0 20 -9 20 -20v-60c0 -8 -5 -15 -13 -18l-46 -17v-158c0 -10 -8 -19 -18 -19s-19 9 -19 19v145l-83 -31v-158c0 -10 -9 -19 -19 -19s-18 9 -18 19v145l-32 -12
c-2 -1 -5 -1 -7 -1c-11 0 -20 9 -20 20v60c0 8 5 16 13 19l46 16v160l-32 -11c-2 -1 -5 -1 -7 -1c-11 0 -20 9 -20 20v60zM179 95l-83 -30v-160l83 30v160z" />
    <glyph glyph-name="accidentals.sharp.arrowdown" unicode="&#xe015;" horiz-adv-x="275" 
d="M0 119c0 8 5 15 13 18l46 17v158c0 10 8 19 18 19s19 -9 19 -19v-145l83 31v158c0 10 9 19 19 19s18 -9 18 -19v-145l32 12c2 1 5 1 7 1c11 0 20 -9 20 -20v-60c0 -8 -5 -16 -13 -19l-46 -16v-160l32 11c2 1 5 1 7 1c11 0 20 -9 20 -20v-60c0 -8 -5 -15 -13 -18l-46 -17
v-158c0 -10 -8 -19 -18 -19s-19 9 -19 19v145l-83 -31v-158v-66c0 -13 6 -18 14 -18c17 0 48 22 76 38c9 5 19 -5 13 -14c-87 -125 -113 -273 -129 -234c-33 81 -64 163 -114 234c-6 9 3 19 12 14c28 -16 60 -38 77 -38c8 0 14 5 14 18v211l-32 -12c-2 -1 -5 -1 -7 -1
c-11 0 -20 9 -20 20v60c0 8 5 16 13 19l46 16v160l-32 -11c-2 -1 -5 -1 -7 -1c-11 0 -20 9 -20 20v60zM179 95l-83 -30v-160l83 30v160z" />
    <glyph glyph-name="accidentals.sharp.arrowboth" unicode="&#xe016;" horiz-adv-x="275" 
d="M0 119c0 8 5 15 13 18l46 17v158c0 10 8 19 18 19s19 -9 19 -19v-145l83 31v158v66c0 13 -6 18 -14 18c-17 0 -48 -22 -76 -38c-9 -5 -19 5 -13 14c87 125 113 273 129 234c33 -81 64 -163 114 -234c6 -9 -3 -19 -12 -14c-28 16 -60 38 -77 38c-8 0 -14 -5 -14 -18v-211
l32 12c2 1 5 1 7 1c11 0 20 -9 20 -20v-60c0 -8 -5 -16 -13 -19l-46 -16v-160l32 11c2 1 5 1 7 1c11 0 20 -9 20 -20v-60c0 -8 -5 -15 -13 -18l-46 -17v-158c0 -10 -8 -19 -18 -19s-19 9 -19 19v145l-83 -31v-158v-66c0 -13 6 -18 14 -18c17 0 48 22 76 38c9 5 19 -5 13 -14
c-87 -125 -113 -273 -129 -234c-33 81 -64 163 -114 234c-6 9 3 19 12 14c28 -16 60 -38 77 -38c8 0 14 5 14 18v211l-32 -12c-2 -1 -5 -1 -7 -1c-11 0 -20 9 -20 20v60c0 8 5 16 13 19l46 16v160l-32 -11c-2 -1 -5 -1 -7 -1c-11 0 -20 9 -20 20v60zM179 95l-83 -30v-160
l83 30v160z" />
    <glyph glyph-name="accidentals.sharp.slashslash.stem" unicode="&#xe017;" horiz-adv-x="175" 
d="M106 -314c0 -10 -8 -18 -18 -18s-19 8 -19 18v119l-39 -22c-3 -2 -7 -3 -10 -3c-10 0 -20 8 -20 20v60c0 7 4 14 10 18l59 33v156l-39 -22c-3 -2 -7 -2 -10 -2c-10 0 -20 8 -20 20v60c0 7 4 13 10 17l59 34v140c0 10 9 19 19 19s18 -9 18 -19v-119l39 22c3 2 7 3 10 3
c10 0 20 -8 20 -20v-60c0 -7 -4 -14 -10 -18l-59 -33v-156l39 22c3 2 7 2 10 2c10 0 20 -8 20 -20v-60c0 -7 -4 -13 -10 -17l-59 -34v-140z" />
    <glyph glyph-name="accidentals.sharp.slashslashslash.stemstem" unicode="&#xe018;" horiz-adv-x="275" 
d="M216 -316c0 -10 -8 -19 -18 -19s-19 9 -19 19v139l-83 -28v-151c0 -10 -9 -19 -19 -19s-18 9 -18 19v139l-16 -5c-2 -1 -5 -1 -7 -1c-11 0 -20 9 -20 20v40c0 9 6 16 14 19l29 9v62l-33 -10c-2 -1 -4 -1 -6 -1c-11 0 -20 9 -20 20v51c0 9 6 16 14 19l45 14v63l-16 -5
c-2 -1 -5 -1 -7 -1c-11 0 -20 9 -20 20v40c0 9 6 16 14 19l29 9v151c0 10 8 19 18 19s19 -9 19 -19v-139l83 28v151c0 10 9 19 19 19s18 -9 18 -19v-139l16 5c2 1 5 1 7 1c11 0 20 -9 20 -20v-40c0 -9 -6 -16 -14 -19l-29 -9v-62l33 10c2 1 4 1 6 1c11 0 20 -9 20 -20v-51
c0 -9 -6 -16 -14 -19l-45 -14v-63l16 5c2 1 5 1 7 1c11 0 20 -9 20 -20v-40c0 -9 -6 -16 -14 -19l-29 -9v-151zM96 -60v-63l83 28v62zM96 33l83 27v63l-83 -28v-62z" />
    <glyph glyph-name="accidentals.sharp.slashslashslash.stem" unicode="&#xe019;" horiz-adv-x="237" 
d="M138 -314c0 -10 -9 -19 -19 -19s-19 9 -19 19v114l-48 -20c-3 -1 -5 -2 -8 -2c-11 0 -20 8 -20 20v40c0 8 5 16 12 19l64 27v56l-72 -30c-3 -1 -5 -2 -8 -2c-11 0 -20 8 -20 20v60c0 8 5 16 12 19l88 37v56l-48 -20c-3 -1 -5 -2 -8 -2c-11 0 -20 8 -20 20v40
c0 8 5 16 12 19l64 27v130c0 10 9 19 19 19s19 -9 19 -19v-114l48 20c3 1 5 2 8 2c11 0 20 -8 20 -20v-40c0 -8 -5 -16 -12 -19l-64 -27v-56l72 30c3 1 5 2 8 2c11 0 20 -8 20 -20v-60c0 -8 -6 -16 -13 -19l-87 -37v-56l48 20c3 1 5 2 8 2c11 0 20 -8 20 -20v-40
c0 -8 -5 -16 -12 -19l-64 -27v-130z" />
    <glyph glyph-name="accidentals.sharp.slash.stem" unicode="&#xe01a;" horiz-adv-x="237" 
d="M138 -314c0 -10 -9 -18 -19 -18s-19 8 -19 18v254l-72 -30c-3 -1 -5 -2 -8 -2c-11 0 -20 8 -20 20v60c0 8 5 16 12 19l88 37v270c0 10 9 19 19 19s19 -9 19 -19v-254l72 30c3 1 5 2 8 2c11 0 20 -8 20 -20v-60c0 -8 -6 -16 -13 -19l-87 -37v-270z" />
    <glyph glyph-name="accidentals.sharp.slashslash.stemstemstem" unicode="&#xe01b;" horiz-adv-x="400" 
d="M219 -328c0 -10 -9 -19 -19 -19s-19 9 -19 19v141l-75 -18v-151c0 -10 -8 -19 -18 -19s-19 9 -19 19v141l-44 -11h-5c-11 0 -20 9 -20 20v60c0 9 6 17 15 19l54 14v161l-44 -11c-2 0 -3 -1 -5 -1c-11 0 -20 9 -20 20v60c0 9 6 18 15 20l54 13v151c0 10 9 19 19 19
s18 -9 18 -19v-142l75 19v151c0 10 9 19 19 19s19 -9 19 -19v-141l75 18v151c0 10 9 19 19 19s18 -9 18 -19v-141l44 11h5c11 0 20 -9 20 -20v-60c0 -9 -6 -17 -15 -19l-54 -14v-161l44 11c2 0 3 1 5 1c11 0 20 -9 20 -20v-60c0 -9 -6 -18 -15 -20l-54 -13v-151
c0 -10 -8 -19 -18 -19s-19 9 -19 19v142l-75 -19v-151zM106 57v-161l75 19v161zM294 104l-75 -19v-161l75 19v161z" />
    <glyph glyph-name="accidentals.doublesharp" unicode="&#xe01c;" horiz-adv-x="250" 
d="M152 0c23 -23 56 -28 89 -28c6 0 10 -4 10 -10l9 -87c1 -6 -4 -11 -10 -10l-87 9c-5 1 -10 5 -10 10c0 33 -5 66 -28 89c-23 -23 -27 -56 -27 -89c0 -5 -5 -9 -10 -10l-88 -9c-6 -1 -11 4 -10 10l9 87c0 6 4 10 10 10c33 0 66 5 89 28c-23 23 -56 28 -89 28
c-6 0 -10 4 -10 10l-9 87c-1 6 4 11 10 10l88 -9c5 -1 9 -5 9 -10c0 -33 5 -66 28 -89c23 23 28 56 28 89c0 5 5 9 10 10l87 9c6 1 11 -4 10 -10l-9 -87c0 -6 -4 -10 -10 -10c-33 0 -66 -5 -89 -28z" />
    <glyph glyph-name="accidentals.doublesharp.figbass" unicode="&#x1d12a;" horiz-adv-x="275" 
d="M164 250c27 -27 64 -40 102 -40c6 0 10 -4 10 -10l9 -88c1 -6 -4 -11 -10 -10l-87 9c-5 1 -10 5 -10 10c0 38 -13 75 -40 102c-27 -27 -40 -64 -40 -102c0 -5 -5 -9 -10 -10l-88 -9c-6 -1 -11 4 -10 10l9 88c0 6 4 10 10 10c38 0 75 13 102 40c-27 27 -64 40 -102 40
c-6 0 -10 4 -10 10l-9 88c-1 6 4 11 10 10l88 -9c5 -1 9 -5 9 -10c0 -38 14 -75 41 -102c27 27 40 64 40 102c0 5 5 9 10 10l87 9c6 1 11 -4 10 -10l-9 -88c0 -6 -4 -10 -10 -10c-38 0 -75 -13 -102 -40z" />
    <glyph glyph-name="accidentals.natural" unicode="&#xe01d;" horiz-adv-x="166" 
d="M-7 375c8 4 17 7 25 7s16 -3 24 -7l-2 -183l106 20h3c10 0 18 -7 18 -17l7 -570c-8 -4 -17 -7 -25 -7s-16 3 -24 7l2 183l-106 -20h-3c-10 0 -18 7 -18 17zM131 112l-92 -17l-3 -207l92 17z" />
    <glyph glyph-name="accidentals.natural.figbass" unicode="&#x266e;" horiz-adv-x="275" 
d="M34 544c8 4 17 6 25 6s16 -2 24 -6l-2 -142l132 22h3c10 0 18 -7 18 -17l7 -451c-8 -4 -17 -6 -25 -6s-16 2 -24 6l2 142l-132 -22h-3c-10 0 -18 7 -18 17zM197 325l-117 -19l-2 -131l117 19z" />
    <glyph glyph-name="accidentals.natural.arrowup" unicode="&#xe01e;" horiz-adv-x="166" 
d="M146 212h3c10 0 18 -7 18 -17l7 -570c-8 -4 -17 -7 -25 -7s-16 3 -24 7l2 183l-106 -20h-3c-10 0 -18 7 -18 17l-3 570l-1 48c0 13 -5 18 -13 18c-17 0 -48 -22 -76 -38c-10 -6 -21 6 -14 15c50 71 83 152 116 232c3 7 14 7 17 0c33 -80 66 -161 116 -232
c7 -9 -4 -21 -14 -15c-28 16 -59 38 -76 38c-8 0 -13 -5 -13 -18l-1 -48l-1 -184zM131 112l-94 -17l-2 -207l93 17z" />
    <glyph glyph-name="accidentals.natural.arrowdown" unicode="&#xe01f;" horiz-adv-x="224" 
d="M22 375c8 4 16 7 24 7s17 -3 25 -7l-3 -183l107 20h3c10 0 17 -7 17 -17l4 -570v-48c0 -13 5 -18 13 -18c17 0 49 22 77 38c10 6 21 -6 14 -15c-50 -71 -84 -152 -117 -232c-3 -7 -13 -7 -16 0c-33 80 -67 161 -117 232c-7 9 4 21 14 15c28 -16 60 -38 77 -38
c8 0 13 5 13 18v48l1 184l-108 -21h-4c-10 0 -17 7 -17 17zM160 112l-93 -17l-2 -207l94 17z" />
    <glyph glyph-name="accidentals.natural.arrowboth" unicode="&#xe020;" horiz-adv-x="224" 
d="M199 -375v-48c0 -13 5 -18 13 -18c17 0 49 22 77 38c10 6 21 -6 14 -15c-50 -71 -84 -152 -117 -232c-3 -7 -13 -7 -16 0c-33 80 -67 161 -117 232c-7 9 4 21 14 15c28 -16 60 -38 77 -38c8 0 13 5 13 18v48l1 184l-108 -21h-4c-10 0 -17 7 -17 17l-3 570
c0 66 -1 66 -14 66c-17 0 -48 -22 -76 -38c-10 -6 -22 6 -15 15c50 71 84 152 117 232c3 7 14 7 17 0c33 -80 66 -161 116 -232c7 -9 -4 -21 -14 -15c-28 16 -60 38 -77 38c-8 0 -13 -5 -13 -18v-48c0 -61 -1 -123 -1 -184l109 21h3c10 0 17 -7 17 -17zM160 112l-95 -17
l-1 -207l95 17z" />
    <glyph glyph-name="accidentals.flat" unicode="&#xe021;" horiz-adv-x="200" 
d="M27 41l-1 -66v-11c0 -22 1 -44 4 -66c45 38 93 80 93 139c0 33 -14 67 -43 67c-31 0 -52 -30 -53 -63zM-15 -138l-12 595c8 5 18 8 27 8s19 -3 27 -8l-7 -345c25 21 58 34 91 34c52 0 89 -48 89 -102c0 -80 -86 -117 -147 -169c-15 -13 -24 -38 -45 -38
c-13 0 -23 11 -23 25z" />
    <glyph glyph-name="accidentals.flat.figbass" unicode="&#x266d;" horiz-adv-x="275" 
d="M82 163l-1 -69c0 -4 -1 -8 -1 -12c0 -21 1 -43 4 -64c43 38 86 81 86 138c0 33 -11 67 -40 67s-47 -29 -48 -60zM82 544l-7 -313c24 21 55 33 87 33c50 0 85 -48 85 -101c0 -79 -82 -117 -141 -169c-15 -13 -22 -38 -43 -38c-18 0 -23 23 -23 44l-12 544c8 5 18 7 27 7
s19 -2 27 -7z" />
    <glyph glyph-name="accidentals.flat.arrowup" unicode="&#xe022;" horiz-adv-x="200" 
d="M27 41l-1 -66v-11c0 -22 1 -44 4 -66c45 38 93 80 93 139c0 33 -14 67 -43 67c-31 0 -52 -30 -53 -63zM18 113c26 21 59 33 93 33c52 0 89 -48 89 -102c0 -80 -86 -117 -147 -169c-15 -13 -24 -38 -45 -38c-13 0 -23 11 -23 25c-3 187 -5 375 -8 562c0 13 -5 18 -13 18
c-17 0 -48 -23 -76 -39c-11 -6 -22 6 -15 16c50 71 86 151 118 231c3 8 15 8 18 0c32 -80 68 -160 118 -231c7 -10 -4 -22 -15 -16c-28 16 -59 39 -76 39c-8 0 -13 -5 -13 -18z" />
    <glyph glyph-name="accidentals.flat.arrowdown" unicode="&#xe023;" horiz-adv-x="200" 
d="M27 41l-1 -66v-11c0 -22 1 -44 4 -66c45 38 93 80 93 139c0 33 -14 67 -43 67c-31 0 -52 -30 -53 -63zM200 44c0 -112 -181 -155 -182 -219v-121c0 -13 5 -18 14 -18c17 0 49 21 77 37c8 5 16 -5 11 -13c-82 -118 -110 -272 -125 -235c-33 81 -62 163 -112 235
c-5 8 3 18 11 13c28 -16 60 -37 77 -37c9 0 14 5 14 18v158l-12 595c8 5 18 8 27 8s19 -3 27 -8l-7 -344c25 21 58 33 91 33c52 0 89 -48 89 -102z" />
    <glyph glyph-name="accidentals.flat.arrowboth" unicode="&#xe024;" horiz-adv-x="200" 
d="M27 41l-1 -66v-11c0 -22 1 -44 4 -66c45 38 93 80 93 139c0 33 -14 67 -43 67c-31 0 -52 -30 -53 -63zM200 44c0 -112 -181 -155 -182 -219v-121c0 -13 5 -18 14 -18c17 0 49 21 77 37c8 5 16 -5 11 -13c-82 -118 -110 -272 -125 -235c-33 81 -62 163 -112 235
c-5 8 3 18 11 13c28 -16 60 -37 77 -37c9 0 14 5 14 18v158c-3 187 -5 375 -8 562c0 13 -5 18 -13 18c-17 0 -48 -23 -76 -39c-11 -6 -22 6 -15 16c50 71 86 151 118 231c3 8 15 8 18 0c32 -80 68 -160 118 -231c7 -10 -4 -22 -15 -16c-28 16 -59 39 -76 39
c-8 0 -13 -5 -13 -18c-1 -104 -4 -207 -5 -311c26 21 59 33 93 33c52 0 89 -48 89 -102z" />
    <glyph glyph-name="accidentals.flat.slash" unicode="&#xe025;" horiz-adv-x="200" 
d="M27 41l-1 -66v-11c0 -22 1 -44 4 -66c45 38 93 80 93 139c0 33 -14 67 -43 67c-31 0 -52 -30 -53 -63zM-22 218l-70 -35c-22 -11 -38 23 -16 34l85 42l-4 198c8 5 18 8 27 8s19 -3 27 -8l-4 -174l69 34c22 11 38 -23 16 -34l-85 -43l-3 -128c25 21 58 34 91 34
c52 0 89 -48 89 -102c0 -80 -86 -117 -147 -169c-15 -13 -24 -38 -45 -38c-13 0 -23 11 -23 25z" />
    <glyph glyph-name="accidentals.flat.slashslash" unicode="&#xe026;" horiz-adv-x="200" 
d="M27 41l-1 -66v-11c0 -22 1 -44 4 -66c45 38 93 80 93 139c0 33 -14 67 -43 67c-31 0 -52 -30 -53 -63zM-21 156l-71 -35c-22 -11 -38 22 -16 33l86 44l-1 82l-69 -34c-22 -11 -38 22 -16 33l84 42l-3 136c8 5 18 8 27 8s19 -3 27 -8l-2 -111l67 33c22 11 38 -22 16 -33
l-84 -43l-2 -83l70 34c22 11 38 -22 16 -33l-87 -44l-1 -65c25 21 58 34 91 34c52 0 89 -48 89 -102c0 -80 -86 -117 -147 -169c-15 -13 -24 -38 -45 -38c-13 0 -23 11 -23 25z" />
    <glyph glyph-name="accidentals.mirroredflat.flat" unicode="&#xe027;" horiz-adv-x="400" 
d="M208 -163h-16c-21 0 -30 25 -45 38c-61 52 -147 89 -147 169c0 54 37 102 89 102c33 0 66 -12 91 -33l-7 344c8 5 18 8 27 8s19 -3 27 -8l-7 -344c25 21 58 33 91 33c52 0 89 -48 89 -102c0 -80 -86 -117 -147 -169c-15 -13 -24 -38 -45 -38zM173 41c-1 33 -22 63 -53 63
c-29 0 -43 -34 -43 -67c0 -59 48 -101 93 -139c3 22 4 44 4 66v11zM227 41l-1 -66v-11c0 -22 1 -44 4 -66c45 38 93 80 93 139c0 33 -14 67 -43 67c-31 0 -52 -30 -53 -63z" />
    <glyph glyph-name="accidentals.mirroredflat" unicode="&#xe028;" horiz-adv-x="200" 
d="M143 41c-1 33 -22 63 -53 63c-29 0 -43 -34 -43 -67c0 -59 48 -101 93 -139c3 22 4 44 4 66v11zM185 -138c0 -14 -10 -25 -23 -25c-21 0 -30 25 -45 38c-61 52 -147 89 -147 169c0 54 37 102 89 102c33 0 66 -13 91 -34l-7 345c8 5 18 8 27 8s19 -3 27 -8z" />
    <glyph glyph-name="accidentals.mirroredflat.backslash" unicode="&#xe029;" horiz-adv-x="200" 
d="M73 41c-1 33 -22 63 -53 63c-29 0 -43 -34 -43 -67c0 -59 48 -101 93 -139c3 22 4 44 4 66v11zM122 197l-7 -335c0 -14 -10 -25 -23 -25c-21 0 -30 25 -45 38c-61 52 -147 89 -147 169c0 54 37 102 89 102c33 0 66 -13 91 -34l-2 107l-86 43c-22 11 -6 45 16 34l69 -35
l-4 196c8 5 18 8 27 8s19 -3 27 -8l-4 -219l85 -42c22 -11 6 -45 -16 -34z" />
    <glyph glyph-name="accidentals.flatflat" unicode="&#xe02a;" horiz-adv-x="362" 
d="M190 41l-1 -66c0 -4 -1 -7 -1 -11c0 -22 1 -44 4 -66c44 37 87 82 87 139c0 33 -11 67 -40 67c-30 0 -48 -30 -49 -63zM189 457l-6 -345c24 21 55 34 87 34c53 0 92 -47 92 -101c0 -80 -86 -118 -147 -170c-15 -13 -23 -38 -44 -38c-13 0 -24 11 -24 25l-2 106
c-27 -34 -66 -62 -98 -93c-13 -13 -19 -38 -39 -38c-13 0 -23 12 -23 26l-12 594c8 5 18 8 27 8s19 -3 27 -8l-7 -345c17 21 43 34 70 34c20 0 38 -8 52 -21l-7 332c8 5 18 8 27 8s19 -3 27 -8zM17 -26v-10c0 -23 1 -45 4 -68c39 38 71 86 71 141c0 32 -6 67 -33 67
s-39 -31 -40 -62z" />
    <glyph glyph-name="accidentals.flatflat.figbass" unicode="&#x1d12b;" horiz-adv-x="412" 
d="M234 163l-2 -69v-12c0 -22 1 -44 4 -66c46 38 93 81 93 140c0 33 -14 67 -43 67c-30 0 -51 -28 -52 -60zM54 544l-7 -313c18 21 44 33 72 33s52 -14 67 -36l-7 316c8 5 18 7 27 7s19 -2 27 -7l-7 -313c26 21 58 33 91 33c54 0 96 -45 96 -100c0 -82 -90 -118 -153 -170
c-16 -13 -24 -38 -45 -38c-18 0 -24 23 -24 44l-2 105c-26 -43 -75 -74 -114 -111c-14 -13 -20 -38 -40 -38c-18 0 -23 23 -23 44l-12 544c8 5 18 7 27 7s19 -2 27 -7zM44 82c0 -23 2 -45 5 -68c41 39 74 86 74 142c0 32 -7 67 -35 67c-41 0 -44 -47 -44 -141z" />
    <glyph glyph-name="accidentals.flatflat.slash" unicode="&#xe02b;" horiz-adv-x="362" 
d="M190 41l-1 -66c0 -4 -1 -7 -1 -11c0 -22 1 -44 4 -66c44 37 87 82 87 139c0 33 -11 67 -40 67c-30 0 -48 -30 -49 -63zM139 260l-117 -65l-2 -83c17 21 43 34 70 34c20 0 38 -8 52 -21zM-132 112c-14 0 -26 11 -26 25c0 9 5 17 13 22l123 68l-5 230c8 5 18 8 27 8
s19 -3 27 -8l-4 -204l115 64l-3 140c8 5 18 8 27 8s19 -3 27 -8l-2 -113l73 40c4 2 8 4 12 4c14 0 25 -11 25 -25c0 -9 -5 -17 -13 -22l-98 -55l-3 -174c24 21 55 34 87 34c53 0 92 -47 92 -101c0 -80 -86 -118 -147 -170c-15 -13 -23 -38 -44 -38c-13 0 -24 11 -24 25
l-2 106c-27 -34 -66 -62 -98 -93c-13 -13 -19 -38 -39 -38c-13 0 -23 12 -23 26l-6 308l-99 -55c-4 -2 -8 -4 -12 -4zM17 -26v-10c0 -23 1 -45 4 -68c39 38 71 86 71 141c0 32 -6 67 -33 67s-39 -31 -40 -62z" />
    <glyph glyph-name="accidentals.sharp.sori" unicode="&#xe02c;" horiz-adv-x="330" 
d="M105 -319c0 -10 -9 -18 -19 -18s-19 8 -19 18v135l-37 -22c-3 -2 -7 -2 -10 -2c-11 0 -20 9 -20 20v44c0 7 4 13 10 17l57 33v188l-57 33c-6 4 -10 10 -10 17v10c0 11 9 20 20 20c3 0 7 -1 10 -3l37 -21v132c0 10 9 19 19 19s19 -9 19 -19v-154l83 -47v238
c0 10 8 18 18 18s19 -8 19 -18v-260l95 -54c6 -4 10 -11 10 -18v-9c0 -7 -4 -13 -10 -17l-95 -55v-188c0 -10 -9 -19 -19 -19s-18 9 -18 19v167l-83 -48v-156zM105 -73l127 73l-127 73v-146z" />
    <glyph glyph-name="accidentals.flat.koron" unicode="&#xe02d;" horiz-adv-x="275" 
d="M-27 -457l6 332v261c0 13 10 22 21 22c4 0 8 -1 11 -3l253 -161c15 -9 14 -30 0 -37l-242 -122l5 -292c-8 -5 -18 -8 -27 -8s-19 3 -27 8zM21 -90l180 90l-180 114v-204z" />
    <glyph glyph-name="accidentals.rightparen" unicode="&#xe02e;" horiz-adv-x="150" 
d="M37 -250c0 17 63 58 63 250s-63 233 -63 250c0 7 6 13 13 13c4 0 7 -2 10 -6c53 -76 90 -164 90 -257s-37 -181 -90 -257c-3 -4 -6 -6 -10 -6c-7 0 -13 6 -13 13z" />
    <glyph glyph-name="accidentals.leftparen" unicode="&#xe02f;" horiz-adv-x="0" 
d="M-37 -250c0 -7 -6 -13 -13 -13c-4 0 -7 2 -10 6c-53 76 -90 164 -90 257s37 181 90 257c3 4 6 6 10 6c7 0 13 -6 13 -13c0 -17 -63 -58 -63 -250s63 -233 63 -250z" />
    <glyph glyph-name="arrowheads.open.01" unicode="&#xe030;" horiz-adv-x="20" 
d="M-250 105c0 11 9 20 20 20c6 0 11 -2 15 -7c54 -62 133 -98 215 -98c13 0 20 -10 20 -20s-7 -20 -20 -20c-82 0 -161 -36 -215 -98c-4 -5 -9 -7 -15 -7c-11 0 -20 9 -20 20c0 17 60 76 138 105c-78 29 -138 88 -138 105z" />
    <glyph glyph-name="arrowheads.open.0M1" unicode="&#xe031;" horiz-adv-x="250" 
d="M250 105c0 -17 -60 -76 -138 -105c78 -29 138 -88 138 -105c0 -11 -9 -20 -20 -20c-6 0 -11 2 -15 7c-54 62 -133 98 -215 98c-13 0 -20 10 -20 20s7 20 20 20c82 0 161 36 215 98c4 5 9 7 15 7c11 0 20 -9 20 -20z" />
    <glyph glyph-name="arrowheads.open.11" unicode="&#xe032;" horiz-adv-x="125" 
d="M-105 -250c-11 0 -20 9 -20 20c0 6 2 11 7 15c62 54 98 133 98 215c0 13 10 20 20 20s20 -7 20 -20c0 -82 36 -161 98 -215c5 -4 7 -9 7 -15c0 -11 -9 -20 -20 -20c-17 0 -76 60 -105 138c-29 -78 -88 -138 -105 -138z" />
    <glyph glyph-name="arrowheads.open.1M1" unicode="&#xe033;" horiz-adv-x="125" 
d="M-105 250c17 0 76 -60 105 -138c29 78 88 138 105 138c11 0 20 -9 20 -20c0 -6 -2 -11 -7 -15c-62 -54 -98 -133 -98 -215c0 -13 -10 -20 -20 -20s-20 7 -20 20c0 82 -36 161 -98 215c-5 4 -7 9 -7 15c0 11 9 20 20 20z" />
    <glyph glyph-name="arrowheads.close.01" unicode="&#xe034;" horiz-adv-x="0" 
d="M0 10c7 0 10 -5 10 -10s-3 -10 -10 -10c-60 0 -194 -64 -232 -111c-6 -8 -20 -2 -18 8c8 37 13 75 13 113c0 87 -19 115 -9 123c4 3 11 2 14 -2c38 -47 172 -111 232 -111z" />
    <glyph glyph-name="arrowheads.close.0M1" unicode="&#xe035;" horiz-adv-x="250" 
d="M0 10c60 0 194 64 232 111c3 4 10 5 14 2c10 -8 -9 -36 -9 -123c0 -38 5 -76 13 -113c2 -10 -12 -16 -18 -8c-38 47 -172 111 -232 111c-7 0 -10 5 -10 10s3 10 10 10z" />
    <glyph glyph-name="arrowheads.close.11" unicode="&#xe036;" horiz-adv-x="125" 
d="M-10 0c0 7 5 10 10 10s10 -3 10 -10c0 -60 64 -194 111 -232c8 -6 2 -20 -8 -18c-37 8 -75 13 -113 13c-87 0 -115 -19 -123 -9c-3 4 -2 11 2 14c47 38 111 172 111 232z" />
    <glyph glyph-name="arrowheads.close.1M1" unicode="&#xe037;" horiz-adv-x="125" 
d="M10 0c0 -7 -5 -10 -10 -10s-10 3 -10 10c0 60 -64 194 -111 232c-8 6 -2 20 8 18c37 -8 75 -13 113 -13c87 0 115 19 123 9c3 -4 2 -11 -2 -14c-47 -38 -111 -172 -111 -232z" />
    <glyph glyph-name="dots.dot" unicode="&#xe038;" horiz-adv-x="112" 
d="M0 0c0 31 25 56 56 56s56 -25 56 -56s-25 -56 -56 -56s-56 25 -56 56z" />
    <glyph glyph-name="scripts.ufermata" unicode="&#xe039;" horiz-adv-x="331" 
d="M-67 48c0 37 30 67 67 67s67 -30 67 -67s-30 -67 -67 -67s-67 30 -67 67zM0 363c255 0 332 -331 332 -366c0 -9 -10 -15 -19 -15s-17 5 -19 18c-26 148 -146 262 -294 262s-268 -114 -294 -262c-2 -13 -10 -18 -19 -18s-19 6 -19 15c0 35 77 366 332 366z" />
    <glyph glyph-name="scripts.dfermata" unicode="&#xe03a;" horiz-adv-x="331" 
d="M-67 -48c0 37 30 67 67 67s67 -30 67 -67s-30 -67 -67 -67s-67 30 -67 67zM0 -363c-255 0 -332 331 -332 366c0 9 10 15 19 15s17 -5 19 -18c26 -148 146 -262 294 -262s268 114 294 262c2 13 10 18 19 18s19 -6 19 -15c0 -35 -77 -366 -332 -366z" />
    <glyph glyph-name="scripts.uhenzeshortfermata" unicode="&#xe03b;" horiz-adv-x="331" 
d="M-67 48c0 37 30 67 67 67s67 -30 67 -67s-30 -67 -67 -67s-67 30 -67 67zM0 363c10 0 19 -9 19 -19v-63c0 -10 -9 -19 -19 -19c-148 0 -268 -114 -294 -262c-2 -13 -10 -18 -19 -18s-19 6 -19 15c0 35 77 366 332 366z" />
    <glyph glyph-name="scripts.dhenzeshortfermata" unicode="&#xe03c;" horiz-adv-x="331" 
d="M-67 -48c0 37 30 67 67 67s67 -30 67 -67s-30 -67 -67 -67s-67 30 -67 67zM0 -363c-255 0 -332 331 -332 366c0 9 10 15 19 15s17 -5 19 -18c26 -148 146 -262 294 -262c10 0 19 -9 19 -19v-63c0 -10 -9 -19 -19 -19z" />
    <glyph glyph-name="scripts.uhenzelongfermata" unicode="&#xe03d;" horiz-adv-x="331" 
d="M-173 48c0 37 29 67 66 67s67 -30 67 -67s-30 -67 -67 -67s-66 30 -66 67zM40 48c0 37 30 67 67 67s66 -30 66 -67s-29 -67 -66 -67s-67 30 -67 67zM0 363c255 0 332 -331 332 -366c0 -9 -10 -15 -19 -15s-17 5 -19 18c-26 148 -146 262 -294 262s-268 -114 -294 -262
c-2 -13 -10 -18 -19 -18s-19 6 -19 15c0 35 77 366 332 366z" />
    <glyph glyph-name="scripts.dhenzelongfermata" unicode="&#xe03e;" horiz-adv-x="331" 
d="M-173 -48c0 37 29 67 66 67s67 -30 67 -67s-30 -67 -67 -67s-66 30 -66 67zM40 -48c0 37 30 67 67 67s66 -30 66 -67s-29 -67 -66 -67s-67 30 -67 67zM0 -363c-255 0 -332 331 -332 366c0 9 10 15 19 15s17 -5 19 -18c26 -148 146 -262 294 -262s268 114 294 262
c2 13 10 18 19 18s19 -6 19 -15c0 -35 -77 -366 -332 -366z" />
    <glyph glyph-name="scripts.ushortfermata" unicode="&#xe03f;" horiz-adv-x="250" 
d="M-91 67c0 37 29 66 66 66s67 -29 67 -66s-30 -67 -67 -67s-66 30 -66 67zM-231 0c-11 0 -19 9 -19 19c0 3 1 4 2 7l231 513c3 7 10 11 17 11s14 -4 17 -11l231 -513c1 -3 2 -4 2 -7c0 -10 -8 -19 -19 -19h-49c-7 0 -14 4 -17 11l-190 418l-189 -418
c-3 -7 -10 -11 -17 -11z" />
    <glyph glyph-name="scripts.dshortfermata" unicode="&#xe040;" horiz-adv-x="250" 
d="M91 -67c0 -37 -29 -66 -66 -66s-67 29 -67 66s30 67 67 67s66 -30 66 -67zM231 0c11 0 19 -9 19 -19c0 -3 -1 -4 -2 -7l-231 -513c-3 -7 -10 -11 -17 -11s-14 4 -17 11l-231 513c-1 3 -2 4 -2 7c0 10 8 19 19 19h49c7 0 14 -4 17 -11l190 -418l189 418c3 7 10 11 17 11z
" />
    <glyph glyph-name="scripts.uveryshortfermata" unicode="&#xe041;" horiz-adv-x="312" 
d="M-109 60c0 33 27 60 60 60s60 -27 60 -60s-27 -60 -60 -60s-60 27 -60 60zM-206 0c-11 0 -19 9 -19 19c0 3 1 5 2 8l169 326c3 6 9 10 16 10s14 -4 17 -10l169 -326c1 -3 2 -5 2 -8c0 -10 -8 -19 -19 -19h-23c-7 0 -13 4 -16 10l-141 272l-141 -272c-3 -6 -9 -10 -16 -10
zM-294 0c-11 0 -19 9 -19 19c0 3 2 5 3 8l293 568c3 6 10 10 17 10s14 -4 17 -10l293 -568c1 -3 3 -5 3 -8c0 -10 -8 -19 -19 -19h-65c-7 0 -14 4 -17 10l-244 473l-245 -473c-3 -6 -10 -10 -17 -10z" />
    <glyph glyph-name="scripts.dveryshortfermata" unicode="&#xe042;" horiz-adv-x="312" 
d="M109 -60c0 -33 -27 -60 -60 -60s-60 27 -60 60s27 60 60 60s60 -27 60 -60zM206 0c11 0 19 -9 19 -19c0 -3 -1 -5 -2 -8l-169 -326c-3 -6 -9 -10 -16 -10s-14 4 -17 10l-169 326c-1 3 -2 5 -2 8c0 10 8 19 19 19h23c7 0 13 -4 16 -10l141 -272l141 272c3 6 9 10 16 10z
M294 0c11 0 19 -9 19 -19c0 -3 -2 -5 -3 -8l-293 -568c-3 -6 -10 -10 -17 -10s-14 4 -17 10l-293 568c-1 3 -3 5 -3 8c0 10 8 19 19 19h65c7 0 14 -4 17 -10l244 -473l245 473c3 6 10 10 17 10z" />
    <glyph glyph-name="scripts.ulongfermata" unicode="&#xe043;" horiz-adv-x="312" 
d="M-67 67c0 37 30 66 67 66s67 -29 67 -66s-30 -67 -67 -67s-67 30 -67 67zM-302 375h605c6 0 10 -4 10 -10v-346c0 -10 -9 -19 -19 -19s-19 9 -19 19v256h-550v-256c0 -10 -9 -19 -19 -19s-18 9 -18 19v346c0 6 4 10 10 10z" />
    <glyph glyph-name="scripts.dlongfermata" unicode="&#xe044;" horiz-adv-x="312" 
d="M-67 -67c0 37 30 67 67 67s67 -30 67 -67s-30 -66 -67 -66s-67 29 -67 66zM-302 -375c-6 0 -10 4 -10 10v346c0 10 8 19 18 19s19 -9 19 -19v-256h550v256c0 10 9 19 19 19s19 -9 19 -19v-346c0 -6 -4 -10 -10 -10h-605z" />
    <glyph glyph-name="scripts.uverylongfermata" unicode="&#xe045;" horiz-adv-x="375" 
d="M-60 60c0 33 27 60 60 60s60 -27 60 -60s-27 -60 -60 -60s-60 27 -60 60zM-240 225h480c6 0 10 -4 10 -10v-196c0 -10 -9 -19 -19 -19s-19 9 -19 19v131h-424v-131c0 -10 -9 -19 -19 -19s-19 9 -19 19v196c0 6 4 10 10 10zM-365 400h730c6 0 10 -4 10 -10v-371
c0 -10 -9 -19 -19 -19s-19 9 -19 19v256h-674v-256c0 -10 -9 -19 -19 -19s-19 9 -19 19v371c0 6 4 10 10 10z" />
    <glyph glyph-name="scripts.dverylongfermata" unicode="&#xe046;" horiz-adv-x="375" 
d="M-60 -60c0 33 27 60 60 60s60 -27 60 -60s-27 -60 -60 -60s-60 27 -60 60zM-240 -225c-6 0 -10 4 -10 10v196c0 10 9 19 19 19s19 -9 19 -19v-131h424v131c0 10 9 19 19 19s19 -9 19 -19v-196c0 -6 -4 -10 -10 -10h-480zM-365 -400c-6 0 -10 4 -10 10v371
c0 10 9 19 19 19s19 -9 19 -19v-256h674v256c0 10 9 19 19 19s19 -9 19 -19v-371c0 -6 -4 -10 -10 -10h-730z" />
    <glyph glyph-name="scripts.thumb" unicode="&#xe047;" horiz-adv-x="100" 
d="M21 -125l3 -51c1 -13 -11 -24 -24 -24s-25 11 -24 24l3 51v2c-49 12 -79 66 -79 123c0 65 40 125 100 125s100 -60 100 -125c0 -57 -30 -111 -79 -123v-2zM48 0c0 45 -9 95 -48 95s-47 -50 -47 -95s8 -95 47 -95s48 50 48 95z" />
    <glyph glyph-name="scripts.sforzato" unicode="&#xe048;" horiz-adv-x="187" 
d="M-173 68c-8 2 -15 9 -15 18c0 10 9 19 19 19c2 0 3 -1 5 -1l337 -86c8 -2 15 -9 15 -18s-7 -16 -15 -18l-337 -86c-2 0 -3 -1 -5 -1c-10 0 -19 9 -19 19c0 9 7 16 15 18l206 53l109 15l-109 15z" />
    <glyph glyph-name="scripts.espr" unicode="&#xe049;" horiz-adv-x="474" 
d="M-44 88l-248 -65l-142 -23l142 -23l248 -65c8 -2 14 -9 14 -18c0 -10 -9 -19 -19 -19c-2 0 -2 1 -4 1l-408 106c-8 2 -14 9 -14 18s6 16 14 18l408 106c2 0 2 1 4 1c10 0 19 -9 19 -19c0 -9 -6 -16 -14 -18zM44 88c-8 2 -14 9 -14 18c0 10 9 19 19 19c2 0 2 -1 4 -1
l408 -106c8 -2 14 -9 14 -18s-6 -16 -14 -18l-408 -106c-2 0 -2 -1 -4 -1c-10 0 -19 9 -19 19c0 9 6 16 14 18l248 65l142 23l-142 23z" />
    <glyph glyph-name="scripts.staccato" unicode="&#xe04a;" horiz-adv-x="49" 
d="M-50 0c0 28 22 50 50 50s50 -22 50 -50s-22 -50 -50 -50s-50 22 -50 50z" />
    <glyph glyph-name="scripts.ustaccatissimo" unicode="&#xe04b;" horiz-adv-x="50" 
d="M-13 0l-37 200c0 2 -1 5 -1 7c0 24 24 43 51 43s51 -19 51 -43c0 -2 -1 -5 -1 -7l-37 -200c-1 -7 -6 -13 -13 -13s-12 6 -13 13z" />
    <glyph glyph-name="scripts.dstaccatissimo" unicode="&#xe04c;" horiz-adv-x="50" 
d="M-13 0c1 7 6 13 13 13s12 -6 13 -13l37 -200c0 -2 1 -5 1 -7c0 -24 -24 -43 -51 -43s-51 19 -51 43c0 2 1 5 1 7z" />
    <glyph glyph-name="scripts.tenuto" unicode="&#xe04d;" horiz-adv-x="150" 
d="M130 -20h-260c-11 0 -20 9 -20 20s9 20 20 20h260c11 0 20 -9 20 -20s-9 -20 -20 -20z" />
    <glyph glyph-name="scripts.uportato" unicode="&#xe04e;" horiz-adv-x="150" 
d="M-40 165c0 22 18 40 40 40s40 -18 40 -40s-18 -40 -40 -40s-40 18 -40 40zM132 -18h-264c-10 0 -18 8 -18 18s8 18 18 18h264c10 0 18 -8 18 -18s-8 -18 -18 -18z" />
    <glyph glyph-name="scripts.dportato" unicode="&#xe04f;" horiz-adv-x="150" 
d="M-40 -165c0 22 18 40 40 40s40 -18 40 -40s-18 -40 -40 -40s-40 18 -40 40zM132 18c10 0 18 -8 18 -18s-8 -18 -18 -18h-264c-10 0 -18 8 -18 18s8 18 18 18h264z" />
    <glyph glyph-name="scripts.umarcato" unicode="&#xe050;" horiz-adv-x="125" 
d="M-112 0c-9 0 -16 10 -12 18l113 250c2 4 6 7 11 7s9 -3 11 -7l113 -250c4 -8 -3 -18 -12 -18h-66c-5 0 -10 3 -12 7l-68 150l-67 -150c-2 -4 -6 -7 -11 -7z" />
    <glyph glyph-name="scripts.dmarcato" unicode="&#xe051;" horiz-adv-x="125" 
d="M112 0c9 0 16 -10 12 -18l-113 -250c-2 -4 -6 -7 -11 -7s-9 3 -11 7l-113 250c-4 8 3 18 12 18h66c5 0 10 -3 12 -7l68 -150l67 150c2 4 6 7 11 7z" />
    <glyph glyph-name="scripts.open" unicode="&#xe052;" horiz-adv-x="100" 
d="M100 0c0 -65 -40 -125 -100 -125s-100 60 -100 125s40 125 100 125s100 -60 100 -125zM57 0c0 47 -16 95 -57 95s-57 -48 -57 -95s16 -95 57 -95s57 48 57 95z" />
    <glyph glyph-name="scripts.halfopen" unicode="&#xe053;" horiz-adv-x="100" 
d="M62 99l53 65c11 13 31 -3 20 -16l-56 -70c14 -22 21 -50 21 -78c0 -65 -40 -125 -100 -125c-25 0 -46 10 -62 26l-53 -65c-11 -13 -31 3 -20 16l56 70c-14 22 -21 50 -21 78c0 65 40 125 100 125c25 0 46 -10 62 -26zM-52 -44l92 115c-9 14 -22 24 -40 24
c-41 0 -57 -48 -57 -95c0 -15 1 -30 5 -44zM-40 -71c9 -14 22 -24 40 -24c41 0 57 48 57 95c0 15 -1 30 -5 44z" />
    <glyph glyph-name="scripts.halfopenvertical" unicode="&#xe054;" horiz-adv-x="100" 
d="M13 124c53 -8 87 -64 87 -124s-34 -116 -87 -124v-64c0 -7 -6 -13 -13 -13s-13 6 -13 13v64c-53 8 -87 64 -87 124s34 116 87 124v64c0 7 6 13 13 13s13 -6 13 -13v-64zM13 -93c31 9 44 52 44 93s-13 84 -44 93v-186zM-13 -93v186c-31 -9 -44 -52 -44 -93s13 -84 44 -93z
" />
    <glyph glyph-name="scripts.stopped" unicode="&#xe055;" horiz-adv-x="137" 
d="M0 -138c-14 0 -25 12 -25 26v87h-87c-14 0 -26 11 -26 25s12 25 26 25h87v87c0 14 11 26 25 26s25 -12 25 -26v-87h87c14 0 26 -11 26 -25s-12 -25 -26 -25h-87v-87c0 -14 -11 -26 -25 -26z" />
    <glyph glyph-name="scripts.upbow" unicode="&#xe056;" horiz-adv-x="162" 
d="M128 508c2 7 9 12 17 12c10 0 18 -7 18 -17c0 -2 -1 -4 -1 -6l-145 -485c-2 -7 -9 -12 -17 -12s-15 5 -17 12l-145 485v6c0 10 7 17 17 17c8 0 15 -5 17 -12l88 -295l40 -164l40 164z" />
    <glyph glyph-name="scripts.downbow" unicode="&#xe057;" horiz-adv-x="187" 
d="M-178 333h356c6 0 10 -4 10 -10v-308c0 -8 -7 -15 -15 -15s-16 7 -16 15v185h-314v-185c0 -8 -7 -15 -15 -15s-16 7 -16 15v308c0 6 4 10 10 10z" />
    <glyph glyph-name="scripts.reverseturn" unicode="&#xe058;" horiz-adv-x="273" 
d="M137 132c75 0 136 -58 136 -132c0 -70 -47 -132 -114 -132c-35 0 -68 21 -68 53c0 31 25 53 54 53c20 0 39 -10 48 -31c27 4 50 26 50 57s-28 54 -61 54c-118 0 -186 -186 -319 -186c-75 0 -136 58 -136 132c0 70 47 132 114 132c35 0 68 -21 68 -53
c0 -31 -25 -53 -54 -53c-20 0 -39 10 -48 31c-27 -4 -50 -26 -50 -57s28 -54 61 -54c118 0 186 186 319 186z" />
    <glyph glyph-name="scripts.turn" unicode="&#xe059;" horiz-adv-x="273" 
d="M137 -132c-133 0 -201 186 -319 186c-33 0 -61 -23 -61 -54s23 -53 50 -57c9 21 28 31 48 31c29 0 54 -22 54 -53c0 -32 -33 -53 -68 -53c-67 0 -114 62 -114 132c0 74 61 132 136 132c133 0 201 -186 319 -186c33 0 61 23 61 54s-23 53 -50 57c-9 -21 -28 -31 -48 -31
c-29 0 -54 22 -54 53c0 32 33 53 68 53c67 0 114 -62 114 -132c0 -74 -61 -132 -136 -132z" />
    <glyph glyph-name="scripts.slashturn" unicode="&#xe05a;" horiz-adv-x="273" 
d="M20 39c41 -43 94 -93 162 -93c33 0 61 23 61 54s-23 53 -50 57c-9 -21 -28 -31 -48 -31c-29 0 -54 22 -54 53c0 32 33 53 68 53c67 0 114 -62 114 -132c0 -74 -61 -132 -136 -132c-45 0 -83 24 -117 54v-78c0 -11 -9 -20 -20 -20s-20 9 -20 20v117c-41 43 -94 93 -162 93
c-33 0 -61 -23 -61 -54s23 -53 50 -57c9 21 28 31 48 31c29 0 54 -22 54 -53c0 -32 -33 -53 -68 -53c-67 0 -114 62 -114 132c0 74 61 132 136 132c45 0 83 -24 117 -54v78c0 11 9 20 20 20s20 -9 20 -20v-117z" />
    <glyph glyph-name="scripts.haydnturn" unicode="&#xe05b;" horiz-adv-x="250" 
d="M252 60c0 -5 -63 -135 -171 -135c-21 0 -41 5 -61 12v-67c0 -11 -9 -20 -20 -20s-20 9 -20 20v85c-2 1 -3 1 -5 2c-34 16 -65 40 -103 40c-70 0 -92 -72 -109 -72c-8 0 -15 7 -15 15c0 5 63 135 171 135c21 0 41 -5 61 -12v67c0 11 9 20 20 20s20 -9 20 -20v-85
c2 -1 3 -1 5 -2c34 -16 65 -40 103 -40c70 0 92 72 109 72c8 0 15 -7 15 -15z" />
    <glyph glyph-name="scripts.trill" unicode="&#xe05c;" horiz-adv-x="212" 
d="M-297 227c0 -15 8 -30 39 -30c10 0 46 2 103 28l5 24c-23 17 -50 29 -81 29c-51 0 -66 -31 -66 -51zM-26 104c0 -61 -47 -115 -98 -115c-39 0 -56 44 -56 91c0 14 1 28 4 41l15 76c-20 -8 -63 -25 -101 -25c-19 0 -60 6 -60 51c0 38 32 80 96 80c31 0 58 -10 82 -25
l46 232c6 -3 13 -5 20 -5c22 0 48 16 68 35l-53 -266l64 36c26 14 51 20 74 20c29 0 53 -10 64 -28c18 20 44 30 69 30c36 0 69 -22 69 -69c0 -49 -31 -90 -65 -90c-25 0 -38 22 -38 48c0 50 37 64 60 64h3c-8 14 -23 20 -38 20c-24 0 -50 -16 -55 -43l-54 -270
c-11 7 -24 11 -38 11s-29 -4 -43 -11l54 270v7c0 16 -12 26 -29 26c-7 0 -16 -3 -24 -7l-79 -44l-7 -31c27 -31 50 -67 50 -109zM-86 39c23 0 35 34 35 61c0 30 -14 55 -32 78l-5 -27c-4 -18 -13 -56 -13 -83c0 -17 4 -29 15 -29z" />
    <glyph glyph-name="scripts.upedalheel" unicode="&#xe05d;" horiz-adv-x="125" 
d="M0 -87c48 0 87 39 87 87v148c0 10 9 19 19 19s19 -9 19 -19v-148c0 -69 -56 -125 -125 -125s-125 56 -125 125v148c0 10 9 19 19 19s19 -9 19 -19v-148c0 -48 39 -87 87 -87z" />
    <glyph glyph-name="scripts.dpedalheel" unicode="&#xe05e;" horiz-adv-x="125" 
d="M0 87c-48 0 -87 -39 -87 -87v-148c0 -10 -9 -19 -19 -19s-19 9 -19 19v148c0 69 56 125 125 125s125 -56 125 -125v-148c0 -10 -9 -19 -19 -19s-19 9 -19 19v148c0 48 -39 87 -87 87z" />
    <glyph glyph-name="scripts.upedaltoe" unicode="&#xe05f;" horiz-adv-x="125" 
d="M88 362c2 8 10 13 18 13c10 0 19 -9 19 -19c0 -2 0 -3 -1 -5l-106 -338c-2 -8 -10 -13 -18 -13s-16 5 -18 13l-106 338c-1 2 -1 3 -1 5c0 10 9 19 19 19c8 0 16 -5 18 -13l65 -206l23 -103l23 103z" />
    <glyph glyph-name="scripts.dpedaltoe" unicode="&#xe060;" horiz-adv-x="125" 
d="M88 -362l-65 206l-23 103l-23 -103l-65 -206c-2 -8 -10 -13 -18 -13c-10 0 -19 9 -19 19c0 2 0 3 1 5l106 338c2 8 10 13 18 13s16 -5 18 -13l106 -338c1 -2 1 -3 1 -5c0 -10 -9 -19 -19 -19c-8 0 -16 5 -18 13z" />
    <glyph glyph-name="scripts.flageolet" unicode="&#xe061;" horiz-adv-x="100" 
d="M0 100c55 0 100 -45 100 -100s-45 -100 -100 -100s-100 45 -100 100s45 100 100 100zM0 75c-41 0 -75 -34 -75 -75s34 -75 75 -75s75 34 75 75s-34 75 -75 75z" />
    <glyph glyph-name="scripts.segno" unicode="&#xe062;" horiz-adv-x="250" 
d="M-202 -50c0 17 13 30 30 30s30 -13 30 -30s-13 -30 -30 -30s-30 13 -30 30zM142 50c0 17 13 30 30 30s30 -13 30 -30s-13 -30 -30 -30s-30 13 -30 30zM-35 -227c0 23 7 59 54 59c39 0 58 -31 58 -62c0 -27 -15 -55 -40 -64c8 -29 36 -51 69 -51c38 0 66 35 66 75
c0 99 -84 165 -172 218l-190 -323h-60l205 349c-107 63 -205 129 -205 251c0 82 63 150 144 150c79 0 141 -68 141 -148c0 -23 -7 -59 -54 -59c-39 0 -58 31 -58 62c0 27 15 55 40 64c-8 29 -36 51 -69 51c-38 0 -66 -35 -66 -75c0 -99 84 -165 172 -218l190 323h60
l-205 -349c107 -63 205 -129 205 -251c0 -82 -63 -150 -144 -150c-79 0 -141 68 -141 148z" />
    <glyph glyph-name="scripts.varsegno" unicode="&#xe063;" horiz-adv-x="312" 
d="M-49 1003c186 0 336 -146 336 -212c0 -30 -21 -67 -67 -67c-48 0 -74 37 -74 75c0 21 8 42 25 56c-23 21 -114 96 -238 96c-102 0 -169 -55 -169 -129c0 -65 58 -121 118 -163l307 -215c75 -52 125 -133 125 -211c0 -18 -5 -106 -90 -151c55 -51 90 -118 90 -183
c0 -18 -5 -105 -90 -150c55 -51 90 -118 90 -183c0 -18 -5 -106 -90 -151c53 -51 83 -119 83 -188c0 -123 -96 -230 -258 -230c-186 0 -336 146 -336 212c0 30 21 67 67 67c48 0 74 -37 74 -75c0 -21 -8 -42 -25 -56c23 -21 114 -96 238 -96c102 0 169 55 169 129
c0 65 -58 121 -118 163l-307 215c-75 52 -125 133 -125 211c0 18 5 106 90 151c-55 51 -90 118 -90 183c0 18 5 105 90 150c-55 51 -90 118 -90 183c0 18 5 106 90 151c-53 51 -83 119 -83 188c0 123 96 230 258 230zM217 126c39 0 56 32 56 53c0 53 -83 112 -155 162
l-154 108c-61 43 -131 92 -181 92c-39 0 -56 -33 -56 -54c0 -53 83 -112 155 -162l153 -107c69 -48 133 -92 182 -92zM217 -541c39 0 56 33 56 54c0 53 -83 112 -155 162l-153 107c-69 48 -133 92 -182 92c-39 0 -56 -32 -56 -53c0 -53 83 -112 155 -162l154 -108
c61 -43 131 -92 181 -92zM-217 207c-39 0 -56 -32 -56 -53c0 -53 83 -112 155 -162l164 -115c59 -41 124 -84 171 -84c39 0 56 32 56 53c0 53 -83 112 -155 162l-163 114c-59 41 -125 85 -172 85z" />
    <glyph glyph-name="scripts.coda" unicode="&#xe064;" horiz-adv-x="254" 
d="M15 -338c0 -8 -7 -15 -15 -15s-15 7 -15 15v89c-97 10 -147 120 -151 234h-88c-8 0 -15 7 -15 15s7 15 15 15h88c4 114 54 224 151 234v89c0 8 7 15 15 15s15 -7 15 -15v-89c97 -10 147 -120 151 -234h88c8 0 15 -7 15 -15s-7 -15 -15 -15h-88
c-4 -114 -54 -224 -151 -234v-89zM15 -15v-204c70 12 77 111 78 204h-78zM15 15h78c-1 93 -8 192 -78 204v-204zM-15 -15h-78c1 -93 8 -192 78 -204v204zM-15 15v204c-70 -12 -77 -111 -78 -204h78z" />
    <glyph glyph-name="scripts.varcoda" unicode="&#xe065;" horiz-adv-x="254" 
d="M15 -338c0 -8 -7 -15 -15 -15s-15 7 -15 15v88h-142c-6 0 -10 4 -10 10v225h-87c-8 0 -15 7 -15 15s7 15 15 15h87v225c0 6 4 10 10 10h68h74v88c0 8 7 15 15 15s15 -7 15 -15v-88h142c6 0 10 -4 10 -10v-225h87c8 0 15 -7 15 -15s-7 -15 -15 -15h-87v-225
c0 -6 -4 -10 -10 -10h-68h-74v-88zM15 -15v-205h64v205h-64zM15 15h64v205h-64v-205zM-15 -15h-64v-205h64v205zM-15 15v205h-64v-205h64z" />
    <glyph glyph-name="scripts.rcomma" unicode="&#xe066;" horiz-adv-x="126" 
d="M60 153c37 0 67 -29 67 -66v-20c0 -107 -102 -160 -114 -160c-7 0 -13 6 -13 13c0 18 66 25 80 120h-27c-29 0 -53 24 -53 53c0 33 27 60 60 60z" />
    <glyph glyph-name="scripts.lcomma" unicode="&#xe067;" horiz-adv-x="0" 
d="M-60 -153c-37 0 -67 29 -67 66v20c0 107 102 160 114 160c7 0 13 -6 13 -13c0 -18 -66 -25 -80 -120h27c29 0 53 -24 53 -53c0 -33 -27 -60 -60 -60z" />
    <glyph glyph-name="scripts.rvarcomma" unicode="&#xe068;" horiz-adv-x="62" 
d="M62 188c21 0 39 -18 39 -38c0 -5 -2 -9 -4 -14l-146 -292c-9 -18 -33 -7 -27 12l104 308c5 15 19 24 34 24z" />
    <glyph glyph-name="scripts.lvarcomma" unicode="&#xe069;" horiz-adv-x="62" 
d="M-62 -188c-21 0 -39 18 -39 38c0 5 2 9 4 14l146 292c9 18 33 7 27 -12l-104 -308c-5 -15 -19 -24 -34 -24z" />
    <glyph glyph-name="scripts.raltcomma" unicode="&#xe06a;" horiz-adv-x="125" 
d="M50 13c0 65 -32 81 -32 106c0 21 16 38 37 38c38 0 57 -60 57 -98c0 -68 -42 -141 -87 -205c-11 -16 -36 1 -25 17c30 43 50 94 50 142z" />
    <glyph glyph-name="scripts.laltcomma" unicode="&#xe06b;" horiz-adv-x="0" 
d="M-50 -13c0 -65 32 -81 32 -106c0 -21 -16 -38 -37 -38c-38 0 -57 60 -57 98c0 68 42 141 87 205c11 16 36 -1 25 -17c-30 -43 -50 -94 -50 -142z" />
    <glyph glyph-name="scripts.arpeggio" unicode="&#xe06c;" horiz-adv-x="200" 
d="M-1 75c0 42 91 65 91 131c0 17 -5 33 -17 47l-31 25c-4 3 -6 8 -6 12c0 8 7 16 16 16c3 0 7 -1 10 -4l128 -107c8 -6 11 -13 11 -20c0 -42 -91 -65 -91 -131c0 -17 5 -33 17 -47l31 -25c4 -3 6 -8 6 -12c0 -8 -7 -16 -16 -16c-3 0 -7 1 -10 4l-128 107
c-8 6 -11 13 -11 20z" />
    <glyph glyph-name="scripts.trill_element" unicode="&#xe06d;" horiz-adv-x="250" 
d="M175 -1c-42 0 -65 91 -131 91c-17 0 -33 -5 -47 -17l-25 -31c-3 -4 -8 -6 -12 -6c-8 0 -16 7 -16 16c0 3 1 7 4 10l107 128c6 8 13 11 20 11c42 0 65 -91 131 -91c17 0 33 5 47 17l25 31c3 4 8 6 12 6c8 0 16 -7 16 -16c0 -3 -1 -7 -4 -10l-107 -128
c-6 -8 -13 -11 -20 -11z" />
    <glyph glyph-name="scripts.arpeggio.arrow.M1" unicode="&#xe06e;" horiz-adv-x="200" 
d="M42 278c-5 4 -6 9 -6 13c0 9 8 16 16 16c4 0 7 -2 10 -5l86 -92c11 -12 17 -26 20 -42l78 37c18 8 14 -7 12 -10c-53 -63 -124 -114 -152 -192c-1 -3 -10 -4 -11 -1c-34 94 -154 178 -155 198c0 0 0 12 13 6l92 -44c17 22 42 43 42 64c0 9 -3 18 -14 27z" />
    <glyph glyph-name="scripts.arpeggio.arrow.1" unicode="&#xe06f;" horiz-adv-x="200" 
d="M158 -28c5 -4 6 -9 6 -13c0 -9 -8 -16 -16 -16c-4 0 -7 2 -10 5l-86 92c-11 12 -17 26 -20 42l-78 -37c-18 -8 -14 7 -12 10c53 63 124 114 152 192c1 3 10 4 11 1c34 -94 154 -178 155 -198c0 0 0 -12 -13 -6l-92 44c-17 -22 -42 -43 -42 -64c0 -9 3 -18 14 -27z" />
    <glyph glyph-name="scripts.prall" unicode="&#xe070;" horiz-adv-x="208" 
d="M215 46c4 6 9 9 16 9c11 0 20 -9 20 -20c0 -4 -1 -8 -3 -11l-23 -35l-33 22zM25 1l-8 -12l-34 22l70 105c4 6 10 9 17 9c6 0 11 -2 15 -7l99 -119l8 12l33 -22l-70 -105c-4 -6 -10 -9 -17 -9c-6 0 -11 2 -15 7zM-231 -55c-11 0 -20 9 -20 20c0 6 0 6 96 151
c4 6 10 9 17 9c6 0 11 -2 15 -7l98 -119l8 12l34 -22l-70 -105c-4 -6 -10 -9 -17 -9c-6 0 -11 2 -15 7l-99 119c-37 -56 -36 -56 -47 -56z" />
    <glyph glyph-name="scripts.mordent" unicode="&#xe071;" horiz-adv-x="208" 
d="M20 -147c0 -11 -9 -20 -20 -20s-20 9 -20 20v81l-33 -50c-4 -6 -10 -9 -17 -9c-6 0 -11 2 -15 7l-99 119c-37 -56 -36 -56 -47 -56s-20 9 -20 20c0 6 0 6 96 151c4 6 10 9 17 9c6 0 11 -2 15 -7l98 -119l5 7v141c0 11 9 20 20 20s20 -9 20 -20v-81l33 50c4 6 10 9 17 9
c6 0 11 -2 15 -7l99 -119l8 12l33 -22l-70 -105c-4 -6 -10 -9 -17 -9c-6 0 -11 2 -15 7l-98 119l-5 -7v-141zM215 46c4 6 9 9 16 9c11 0 20 -9 20 -20c0 -4 -1 -8 -3 -11l-23 -35l-33 22z" />
    <glyph glyph-name="scripts.prallprall" unicode="&#xe072;" horiz-adv-x="312" 
d="M319 46c4 6 10 9 17 9c11 0 20 -9 20 -20c0 -4 -2 -8 -4 -11l-23 -35l-33 22zM129 1l-8 -12l-33 22l70 105c4 6 9 9 16 9c6 0 12 -2 16 -7l98 -119l8 12l33 -22l-70 -105c-4 -6 -9 -9 -16 -9c-6 0 -12 2 -16 7zM-80 1l-8 -12l-33 22l70 105c4 6 10 9 17 9
c6 0 11 -2 15 -7l99 -119l8 12l33 -22l-70 -105c-4 -6 -10 -9 -17 -9c-6 0 -11 2 -15 7zM-336 -55c-11 0 -20 9 -20 20c0 6 1 6 97 151c4 6 10 9 17 9c6 0 11 -2 15 -7l98 -119l8 12l33 -22l-70 -105c-4 -6 -9 -9 -16 -9c-6 0 -12 2 -16 7l-98 119c-37 -56 -37 -56 -48 -56z
" />
    <glyph glyph-name="scripts.prallmordent" unicode="&#xe073;" horiz-adv-x="312" 
d="M124 -147c0 -11 -9 -20 -20 -20s-20 9 -20 20v81l-33 -50c-4 -6 -10 -9 -17 -9c-6 0 -11 2 -15 7l-99 119l-8 -12l-33 22l70 105c4 6 10 9 17 9c6 0 11 -2 15 -7l99 -119l4 7v141c0 11 9 20 20 20s20 -9 20 -20v-81l34 50c4 6 9 9 16 9c6 0 12 -2 16 -7l98 -119l8 12
l33 -22l-70 -105c-4 -6 -9 -9 -16 -9c-6 0 -12 2 -16 7l-98 119l-5 -7v-141zM319 46c4 6 10 9 17 9c11 0 20 -9 20 -20c0 -4 -2 -8 -4 -11l-23 -35l-33 22zM-336 -55c-11 0 -20 9 -20 20c0 6 1 6 97 151c4 6 10 9 17 9c6 0 11 -2 15 -7l98 -119l8 12l33 -22l-70 -105
c-4 -6 -9 -9 -16 -9c-6 0 -12 2 -16 7l-98 119c-37 -56 -37 -56 -48 -56z" />
    <glyph glyph-name="scripts.upprall" unicode="&#xe074;" horiz-adv-x="312" 
d="M319 46c4 6 10 9 17 9c11 0 20 -9 20 -20c0 -4 -2 -8 -4 -11l-23 -35l-33 22zM129 1l-8 -12l-33 22l70 105c4 6 9 9 16 9c6 0 12 -2 16 -7l98 -119l8 12l33 -22l-70 -105c-4 -6 -9 -9 -16 -9c-6 0 -12 2 -16 7zM-80 1l-8 -12l-33 22l70 105c4 6 10 9 17 9
c6 0 11 -2 15 -7l99 -119l8 12l33 -22l-70 -105c-4 -6 -10 -9 -17 -9c-6 0 -11 2 -15 7zM-329 11l70 105c4 6 10 9 17 9c6 0 11 -2 15 -7l98 -119l8 12l33 -22l-70 -105c-4 -6 -9 -9 -16 -9c-6 0 -12 2 -16 7l-98 119c-48 -72 -65 -99 -65 -161c0 -75 37 -111 37 -125
c0 -19 -25 -27 -36 -11c-27 41 -41 89 -41 136s14 95 41 136z" />
    <glyph glyph-name="scripts.upmordent" unicode="&#xe075;" horiz-adv-x="312" 
d="M124 -147c0 -11 -9 -20 -20 -20s-20 9 -20 20v81l-33 -50c-4 -6 -10 -9 -17 -9c-6 0 -11 2 -15 7l-99 119l-8 -12l-33 22l70 105c4 6 10 9 17 9c6 0 11 -2 15 -7l99 -119l4 7v141c0 11 9 20 20 20s20 -9 20 -20v-81l34 50c4 6 9 9 16 9c6 0 12 -2 16 -7l98 -119l8 12
l33 -22l-70 -105c-4 -6 -9 -9 -16 -9c-6 0 -12 2 -16 7l-98 119l-5 -7v-141zM319 46c4 6 10 9 17 9c11 0 20 -9 20 -20c0 -4 -2 -8 -4 -11l-23 -35l-33 22zM-329 11l70 105c4 6 10 9 17 9c6 0 11 -2 15 -7l98 -119l8 12l33 -22l-70 -105c-4 -6 -9 -9 -16 -9
c-6 0 -12 2 -16 7l-98 119c-48 -72 -65 -99 -65 -161c0 -75 37 -111 37 -125c0 -19 -25 -27 -36 -11c-27 41 -41 89 -41 136s14 95 41 136z" />
    <glyph glyph-name="scripts.prallup" unicode="&#xe076;" horiz-adv-x="312" 
d="M-319 -46c-4 -6 -10 -9 -17 -9c-11 0 -20 9 -20 20c0 4 2 8 4 11l23 35l33 -22zM-129 -1l8 12l33 -22l-70 -105c-4 -6 -9 -9 -16 -9c-6 0 -12 2 -16 7l-98 119l-8 -12l-33 22l70 105c4 6 9 9 16 9c6 0 12 -2 16 -7zM80 -1l8 12l33 -22l-70 -105c-4 -6 -10 -9 -17 -9
c-6 0 -11 2 -15 7l-99 119l-8 -12l-33 22l70 105c4 6 10 9 17 9c6 0 11 -2 15 -7zM329 -11l-70 -105c-4 -6 -10 -9 -17 -9c-6 0 -11 2 -15 7l-98 119l-8 -12l-33 22l70 105c4 6 9 9 16 9c6 0 12 -2 16 -7l98 -119c48 72 65 99 65 161c0 75 -37 111 -37 125c0 19 25 27 36 11
c27 -41 41 -89 41 -136s-14 -95 -41 -136z" />
    <glyph glyph-name="scripts.downprall" unicode="&#xe077;" horiz-adv-x="312" 
d="M-359 -89c-20 0 -77 71 -77 161c0 92 60 160 81 160c11 0 19 -9 19 -18c0 -14 -61 -56 -61 -143c0 -37 12 -74 36 -107c34 51 68 101 102 152c4 6 9 9 16 9c6 0 12 -2 16 -7l98 -119l8 12l33 -22l-70 -105c-4 -6 -9 -9 -16 -9c-6 0 -12 2 -16 7l-98 119
c-60 -90 -60 -90 -71 -90zM-80 1l-8 -12l-33 22l70 105c4 6 10 9 17 9c6 0 11 -2 15 -7l99 -119l8 12l33 -22l-70 -105c-4 -6 -10 -9 -17 -9c-6 0 -11 2 -15 7zM319 46c4 6 10 9 17 9c11 0 20 -9 20 -20c0 -4 -2 -8 -4 -11l-23 -35l-33 22zM129 1l-8 -12l-33 22l70 105
c4 6 9 9 16 9c6 0 12 -2 16 -7l98 -119l8 12l33 -22l-70 -105c-4 -6 -10 -9 -17 -9c-6 0 -11 2 -15 7z" />
    <glyph glyph-name="scripts.downmordent" unicode="&#xe078;" horiz-adv-x="312" 
d="M124 -147c0 -11 -9 -20 -20 -20s-20 9 -20 20v81l-33 -50c-4 -6 -10 -9 -17 -9c-6 0 -11 2 -15 7l-99 119l-8 -12l-33 22l70 105c4 6 10 9 17 9c6 0 11 -2 15 -7l99 -119l4 7v141c0 11 9 20 20 20s20 -9 20 -20v-81l34 50c4 6 9 9 16 9c6 0 12 -2 16 -7l98 -119l8 12
l33 -22l-70 -105c-4 -6 -10 -9 -17 -9c-6 0 -11 2 -15 7l-98 119l-5 -7v-141zM-359 -89c-20 0 -77 71 -77 161c0 92 60 160 81 160c11 0 19 -9 19 -18c0 -14 -61 -56 -61 -143c0 -37 12 -74 36 -107c34 51 68 101 102 152c4 6 9 9 16 9c6 0 12 -2 16 -7l98 -119l8 12l33 -22
l-70 -105c-4 -6 -9 -9 -16 -9c-6 0 -12 2 -16 7l-98 119c-60 -90 -60 -90 -71 -90zM319 46c4 6 10 9 17 9c11 0 20 -9 20 -20c0 -4 -2 -8 -4 -11l-23 -35l-33 22z" />
    <glyph glyph-name="scripts.pralldown" unicode="&#xe079;" horiz-adv-x="312" 
d="M359 89c20 0 77 -71 77 -161c0 -92 -60 -160 -81 -160c-11 0 -19 9 -19 18c0 14 61 56 61 143c0 37 -12 74 -36 107c-34 -51 -68 -101 -102 -152c-4 -6 -9 -9 -16 -9c-6 0 -12 2 -16 7l-98 119l-8 -12l-33 22l70 105c4 6 9 9 16 9c6 0 12 -2 16 -7l98 -119
c60 90 60 90 71 90zM80 -1l8 12l33 -22l-70 -105c-4 -6 -10 -9 -17 -9c-6 0 -11 2 -15 7l-99 119l-8 -12l-33 22l70 105c4 6 10 9 17 9c6 0 11 -2 15 -7zM-319 -46c-4 -6 -10 -9 -17 -9c-11 0 -20 9 -20 20c0 4 2 8 4 11l23 35l33 -22zM-129 -1l8 12l33 -22l-70 -105
c-4 -6 -9 -9 -16 -9c-6 0 -12 2 -16 7l-98 119l-8 -12l-33 22l70 105c4 6 10 9 17 9c6 0 11 -2 15 -7z" />
    <glyph glyph-name="scripts.lineprall" unicode="&#xe07a;" horiz-adv-x="312" 
d="M319 46c4 6 10 9 17 9c11 0 20 -9 20 -20c0 -4 -2 -8 -4 -11l-23 -35l-33 22zM129 1l-8 -12l-33 22l70 105c4 6 9 9 16 9c6 0 12 -2 16 -7l98 -119l8 12l33 -22l-70 -105c-4 -6 -10 -9 -17 -9c-6 0 -11 2 -15 7zM-80 1l-8 -12l-33 22l70 105c4 6 10 9 17 9
c6 0 11 -2 15 -7l99 -119l8 12l33 -22l-70 -105c-4 -6 -10 -9 -17 -9c-6 0 -11 2 -15 7zM-379 331c0 11 9 20 20 20s20 -9 20 -20v-334c27 40 53 79 80 119c4 6 10 9 17 9c6 0 11 -2 15 -7l98 -119l8 12l33 -22l-70 -105c-4 -6 -9 -9 -16 -9c-6 0 -12 2 -16 7l-98 119
c-60 -90 -60 -90 -71 -90s-20 9 -20 20v400z" />
    <glyph glyph-name="scripts.caesura.curved" unicode="&#xe07b;" horiz-adv-x="500" 
d="M282 313c17 0 31 -15 31 -32c0 -5 0 -181 -127 -470c-10 -22 -44 -7 -34 15c63 144 89 300 99 457c1 17 15 30 31 30zM132 313c17 0 31 -15 31 -32c0 -5 0 -181 -127 -470c-10 -22 -44 -7 -34 15c63 144 89 300 99 457c1 17 15 30 31 30z" />
    <glyph glyph-name="scripts.caesura.straight" unicode="&#xe07c;" horiz-adv-x="500" 
d="M149 -182l232 464c5 11 17 18 29 18h32c9 0 15 -10 11 -18l-232 -464c-5 -11 -17 -18 -29 -18h-32c-9 0 -15 10 -11 18zM9 -182l232 464c5 11 17 18 29 18h32c9 0 15 -10 11 -18l-232 -464c-5 -11 -17 -18 -29 -18h-32c-9 0 -15 10 -11 18z" />
    <glyph glyph-name="scripts.tickmark" unicode="&#xe07d;" horiz-adv-x="274" 
d="M-144 206c2 0 84 -50 138 -106c4 -5 11 -5 12 0c45 139 125 271 260 325c7 3 13 -9 5 -12c-150 -60 -196 -233 -246 -388c-4 -13 -12 -25 -24 -25c-32 0 -11 52 -149 196c-4 4 -1 10 4 10z" />
    <glyph glyph-name="scripts.snappizzicato" unicode="&#xe07e;" horiz-adv-x="133" 
d="M16 0c0 -9 -7 -16 -16 -16s-16 7 -16 16v100c-48 -8 -85 -50 -85 -100c0 -56 45 -101 101 -101s101 45 101 101c0 50 -37 92 -85 100v-100zM-16 132v68c0 9 7 16 16 16s16 -7 16 -16v-68c66 -8 117 -64 117 -132c0 -74 -59 -133 -133 -133s-133 59 -133 133
c0 68 51 124 117 132z" />
    <glyph glyph-name="clefs.C" unicode="&#xe07f;" horiz-adv-x="680" 
d="M318 0c0 -44 12 -73 45 -73c29 0 57 31 88 31c123 0 229 -89 229 -208c0 -169 -93 -250 -265 -250c-83 0 -152 61 -152 142c0 42 34 77 76 77s76 -35 76 -77c0 -39 -49 -37 -49 -76c0 -23 24 -38 49 -38c116 0 140 90 140 222c0 106 -12 180 -104 180
c-72 0 -119 -71 -119 -149c0 -9 -7 -14 -14 -14s-13 5 -13 14c0 76 -31 147 -84 200v-471c0 -6 -4 -10 -10 -10h-21c-6 0 -10 4 -10 10v980c0 6 4 10 10 10h21c6 0 10 -4 10 -10v-471c53 53 84 124 84 200c0 9 6 14 13 14s14 -5 14 -14c0 -78 47 -149 119 -149
c92 0 104 74 104 180c0 132 -24 222 -140 222c-25 0 -49 -15 -49 -38c0 -39 49 -37 49 -76c0 -42 -34 -77 -76 -77s-76 35 -76 77c0 81 69 142 152 142c172 0 265 -81 265 -250c0 -119 -106 -208 -229 -208c-31 0 -59 31 -88 31c-33 0 -45 -29 -45 -73zM129 -500h-119
c-6 0 -10 4 -10 10v980c0 6 4 10 10 10h119c6 0 10 -4 10 -10v-980c0 -6 -4 -10 -10 -10z" />
    <glyph glyph-name="clefs.C_change" unicode="&#xe080;" horiz-adv-x="549" 
d="M265 0c0 -15 -1 -57 33 -57c24 0 44 27 69 27c98 0 182 -74 182 -170c0 -134 -70 -200 -205 -200c-65 0 -121 49 -121 113c0 33 27 60 60 60s61 -27 61 -60c0 -30 -36 -31 -36 -61c0 -17 17 -28 36 -28c91 0 108 72 108 176c0 86 -11 146 -85 146c-55 0 -90 -56 -90 -116
c0 -8 -6 -12 -12 -12s-13 4 -13 12c0 59 -24 115 -66 155v-375c0 -6 -4 -10 -10 -10h-17c-6 0 -10 4 -10 10v780c0 6 4 10 10 10h17c6 0 10 -4 10 -10v-375c42 40 66 96 66 155c0 8 7 12 13 12s12 -4 12 -12c0 -60 35 -116 90 -116c74 0 85 60 85 146
c0 104 -17 175 -108 175c-19 0 -36 -10 -36 -27c0 -30 36 -31 36 -61c0 -33 -28 -60 -61 -60s-60 27 -60 60c0 64 56 113 121 113c135 0 205 -66 205 -200c0 -96 -84 -170 -182 -170c-25 0 -45 27 -69 27c-34 0 -33 -42 -33 -57zM102 -400h-92c-6 0 -10 4 -10 10v780
c0 6 4 10 10 10h92c6 0 10 -4 10 -10v-780c0 -6 -4 -10 -10 -10z" />
    <glyph glyph-name="clefs.varC" unicode="&#xe081;" horiz-adv-x="562" 
d="M211 -500h-21c-6 0 -10 4 -10 10v980c0 6 4 10 10 10h21c6 0 10 -4 10 -10v-302h188v375c0 48 44 87 93 87c47 0 82 -41 82 -88c0 -46 -36 -82 -82 -82c-18 0 -36 8 -51 21v-425c0 -8 -6 -14 -14 -14h-216v-124h216c8 0 14 -6 14 -14v-425c15 13 33 21 51 21
c46 0 82 -36 82 -82c0 -47 -35 -88 -82 -88c-49 0 -93 39 -93 87v375h-188v-302c0 -6 -4 -10 -10 -10zM129 -500h-119c-6 0 -10 4 -10 10v980c0 6 4 10 10 10h119c6 0 10 -4 10 -10v-980c0 -6 -4 -10 -10 -10z" />
    <glyph glyph-name="clefs.varC_change" unicode="&#xe082;" horiz-adv-x="450" 
d="M176 -400h-17c-6 0 -10 4 -10 10v780c0 6 4 10 10 10h17c6 0 10 -4 10 -10v-240h145v300c0 39 35 70 74 70c37 0 66 -32 66 -70c0 -36 -30 -66 -66 -66c-13 0 -27 5 -38 13v-127v-208c0 -7 -5 -12 -12 -12h-169v-100h169c7 0 12 -5 12 -12v-335c11 8 25 13 38 13
c36 0 66 -30 66 -66c0 -38 -29 -70 -66 -70c-39 0 -74 31 -74 70v300h-145v-240c0 -6 -4 -10 -10 -10zM102 -400h-92c-6 0 -10 4 -10 10v780c0 6 4 10 10 10h92c6 0 10 -4 10 -10v-780c0 -6 -4 -10 -10 -10z" />
    <glyph glyph-name="clefs.F" unicode="&#xe083;" horiz-adv-x="670" 
d="M557 -125c0 28 23 51 51 51s51 -23 51 -51s-23 -51 -51 -51s-51 23 -51 51zM557 125c0 28 23 51 51 51s51 -23 51 -51s-23 -51 -51 -51s-51 23 -51 51zM232 263c172 0 293 -88 293 -251c0 -263 -263 -414 -516 -521c-3 -3 -6 -4 -9 -4c-7 0 -13 6 -13 13c0 3 1 6 4 9
c202 118 412 265 412 493c0 120 -63 235 -171 235c-74 0 -129 -54 -154 -126c11 5 22 8 34 8c55 0 100 -45 100 -100c0 -58 -44 -106 -100 -106c-60 0 -112 47 -112 106c0 133 102 244 232 244z" />
    <glyph glyph-name="clefs.F_change" unicode="&#xe084;" horiz-adv-x="536" 
d="M446 -100c0 23 18 41 41 41s41 -18 41 -41s-18 -41 -41 -41s-41 18 -41 41zM446 100c0 23 18 41 41 41s41 -18 41 -41s-18 -41 -41 -41s-41 18 -41 41zM179 213c140 0 241 -69 241 -201c0 -211 -210 -333 -411 -421c-3 -3 -6 -4 -9 -4c-7 0 -13 6 -13 13c0 3 1 6 4 9
c150 98 307 217 307 393c0 92 -38 185 -119 185c-52 0 -87 -38 -104 -90c5 1 10 2 15 2c44 0 80 -36 80 -80c0 -46 -35 -85 -80 -85c-48 0 -90 38 -90 85c0 104 77 194 179 194z" />
    <glyph glyph-name="clefs.G" unicode="&#xe085;" horiz-adv-x="641" 
d="M266 -635h-6c-108 0 -195 88 -195 197c0 58 53 103 112 103c54 0 95 -47 95 -103c0 -52 -43 -95 -95 -95c-11 0 -21 2 -31 6c26 -39 68 -65 117 -65h4zM461 -203c68 24 113 90 113 164c0 90 -66 179 -173 190c19 -89 48 -242 60 -354zM74 28c0 -145 141 -247 264 -247
c1 0 47 0 82 6c-7 64 -29 203 -63 364c-79 -8 -124 -61 -124 -119c0 -44 25 -91 81 -123c5 -5 7 -10 7 -15c0 -11 -10 -22 -22 -22c-15 0 -126 62 -126 187c0 88 58 174 160 197c-14 58 -29 117 -46 175c-107 -121 -213 -243 -213 -403zM250 553c-29 96 -52 170 -52 346
c0 115 55 224 149 292c6 5 14 5 20 0c68 -80 133 -245 133 -358c0 -143 -86 -255 -180 -364c21 -68 39 -138 56 -207c2 0 7 1 13 1c155 0 256 -128 256 -261c0 -113 -74 -212 -180 -246c3 -35 5 -70 5 -105c0 -19 -1 -39 -2 -58c-7 -119 -88 -225 -202 -228l1 43
c93 2 153 92 159 191c1 18 2 37 2 55c0 31 -1 61 -4 92c-5 -1 -44 -8 -89 -8c-193 0 -333 180 -333 374c0 177 131 306 248 441zM428 916c0 34 1 66 -20 129c-99 -48 -162 -149 -162 -259c0 -52 12 -115 36 -194c80 97 146 198 146 324z" />
    <glyph glyph-name="clefs.G_change" unicode="&#xe086;" horiz-adv-x="513" 
d="M210 -512h-4c-87 0 -159 72 -159 160c0 46 42 83 90 83c43 0 76 -38 76 -83c0 -42 -34 -76 -76 -76c-4 0 -6 0 -10 1c19 -26 47 -42 81 -42h3zM373 -155c45 18 81 66 81 125c0 68 -48 136 -127 147c3 -12 33 -157 46 -272zM63 19c0 -115 115 -188 208 -188c1 0 34 0 60 4
c-6 51 -22 159 -48 283c-59 -7 -93 -48 -93 -92c0 -34 21 -70 64 -95c5 -5 6 -10 6 -15c0 -11 -9 -22 -21 -22c-15 0 -104 51 -104 152c0 71 46 141 128 161c-11 48 -24 95 -38 143c-82 -101 -162 -202 -162 -331zM193 457c-29 94 -42 142 -42 288c0 93 42 181 115 239
c6 5 14 4 20 -1c55 -66 107 -201 107 -295c0 -115 -63 -207 -135 -297c17 -59 33 -119 47 -179h1c2 0 4 1 6 1c126 0 206 -105 206 -212c0 -92 -59 -170 -141 -197c2 -27 3 -54 3 -81c0 -16 0 -33 -1 -49c-6 -98 -75 -184 -169 -186l1 43c38 1 127 22 127 194
c0 23 -1 46 -3 69c-4 -1 -34 -6 -67 -6c-155 0 -266 144 -266 302c0 144 101 254 191 367zM319 860c-76 -44 -123 -124 -123 -211c0 -36 10 -86 29 -151c59 79 107 162 107 261c0 25 1 50 -13 101z" />
    <glyph glyph-name="clefs.GG" unicode="&#xe087;" horiz-adv-x="1016" 
d="M799 -254c-5 -1 -44 -8 -89 -8c-64 0 -123 20 -173 54c-22 -16 -46 -28 -72 -36c3 -35 5 -70 5 -105v-20c21 21 50 34 82 34c54 0 95 -47 95 -103c0 -52 -43 -95 -95 -95c-11 0 -21 2 -31 6c26 -39 68 -65 117 -65h4l-1 -43h-6c-88 0 -163 58 -187 139
c-32 -79 -97 -137 -182 -139l1 43c93 2 153 92 159 191c1 18 2 37 2 55c0 31 -1 61 -4 92c-5 -1 -44 -8 -89 -8c-193 0 -333 180 -333 374c0 177 131 306 248 441c-29 96 -52 170 -52 346c0 115 55 224 149 292c6 5 14 5 20 0c68 -80 133 -245 133 -358
c0 -143 -86 -255 -180 -364c21 -68 39 -138 56 -207c7 0 19 1 34 0c46 107 134 197 215 291c-29 96 -52 170 -52 346c0 115 55 224 149 292c6 5 14 5 20 0c68 -80 133 -245 133 -358c0 -143 -86 -255 -180 -364c21 -68 39 -138 56 -207c2 0 7 1 13 1
c155 0 256 -128 256 -261c0 -113 -74 -212 -180 -246c3 -35 5 -70 5 -105c0 -19 -1 -39 -2 -58c-7 -119 -88 -225 -202 -228l1 43c93 2 153 92 159 191c1 18 2 37 2 55c0 31 -1 61 -4 92zM266 -635h-6c-108 0 -195 88 -195 197c0 58 53 103 112 103c54 0 95 -47 95 -103
c0 -52 -43 -95 -95 -95c-11 0 -21 2 -31 6c26 -39 68 -65 117 -65h4zM836 -203c68 24 113 90 113 164c0 90 -66 179 -173 190c19 -89 48 -242 60 -354zM674 -128c-14 0 -50 29 -50 29c-12 -28 -29 -54 -52 -78c42 -26 92 -42 141 -42c1 0 47 0 82 6c-7 64 -29 203 -63 364
c-48 -5 -84 -27 -104 -56c11 -30 17 -61 17 -93c0 -17 -3 -35 -6 -52c32 -38 57 -35 57 -56c0 -11 -10 -22 -22 -22zM662 431c-56 -64 -112 -128 -153 -198c29 -15 54 -36 74 -60c27 40 70 70 125 83c-14 58 -29 117 -46 175zM803 916c0 34 1 66 -20 129
c-99 -48 -162 -149 -162 -259c0 -52 12 -115 36 -194c80 97 146 198 146 324zM450 -121c4 -27 8 -55 11 -82c15 5 29 12 42 22c-20 18 -37 38 -53 60zM548 57c-19 33 -47 60 -83 77c-10 -33 -16 -69 -16 -106c0 -47 15 -116 86 -178c27 33 39 71 39 110
c-17 30 -26 64 -26 97zM74 28c0 -145 141 -247 264 -247c1 0 47 0 82 6c-7 64 -29 203 -63 364c-79 -8 -124 -61 -124 -119c0 -44 25 -91 81 -123c5 -5 7 -10 7 -15c0 -11 -10 -22 -22 -22c-15 0 -126 62 -126 187c0 88 58 174 160 197c-14 58 -29 117 -46 175
c-107 -121 -213 -243 -213 -403zM428 916c0 34 1 66 -20 129c-99 -48 -162 -149 -162 -259c0 -52 12 -115 36 -194c80 97 146 198 146 324z" />
    <glyph glyph-name="clefs.GG_change" unicode="&#xe088;" horiz-adv-x="813" 
d="M635 -206c-4 -1 -34 -6 -67 -6c-51 0 -98 16 -138 43c-17 -12 -34 -21 -53 -27c2 -27 3 -54 3 -81v-11c16 12 36 19 57 19c43 0 76 -38 76 -83c0 -42 -34 -76 -76 -76c-4 0 -6 0 -10 1c19 -26 47 -42 81 -42h3l-1 -43h-4c-68 0 -125 44 -148 104
c-28 -59 -82 -102 -148 -104l1 43c38 1 127 22 127 194c0 23 -1 46 -3 69c-4 -1 -34 -6 -67 -6c-155 0 -266 144 -266 302c0 144 101 254 191 367c-29 94 -42 142 -42 288c0 93 42 181 115 239c6 5 14 4 20 -1c55 -66 107 -201 107 -295c0 -115 -63 -207 -135 -297
c17 -59 33 -119 47 -179h1h20c35 88 104 166 167 245c-29 94 -42 142 -42 288c0 93 42 181 115 239c6 5 14 4 20 -1c55 -66 107 -201 107 -295c0 -115 -63 -207 -135 -297c17 -59 33 -119 47 -179h1c2 0 4 1 6 1c126 0 206 -105 206 -212c0 -92 -59 -170 -141 -197
c2 -27 3 -54 3 -81c0 -16 0 -33 -1 -49c-6 -98 -75 -184 -169 -186l1 43c38 1 127 22 127 194c0 23 -1 46 -3 69zM210 -512h-4c-87 0 -159 72 -159 160c0 46 42 83 90 83c43 0 76 -38 76 -83c0 -42 -34 -76 -76 -76c-4 0 -6 0 -10 1c19 -26 47 -42 81 -42h3zM673 -155
c45 18 81 66 81 125c0 68 -48 136 -127 147c3 -12 33 -157 46 -272zM539 -106c-11 0 -31 15 -39 21c-9 -20 -21 -38 -37 -55c33 -19 71 -29 108 -29c1 0 34 0 60 4c-6 51 -22 159 -48 283c-36 -5 -62 -22 -77 -44c8 -23 12 -48 12 -73c0 -13 -1 -25 -3 -38
c26 -31 45 -27 45 -47c0 -11 -9 -22 -21 -22zM525 350c-43 -53 -84 -105 -115 -162c22 -12 40 -27 56 -45c22 30 55 54 97 64c-11 48 -24 95 -38 143zM619 860c-76 -44 -123 -124 -123 -211c0 -36 10 -86 29 -151c59 79 107 162 107 261c0 25 1 50 -13 101zM366 -107
c2 -16 5 -32 7 -48c9 3 16 9 24 14c-11 11 -22 22 -31 34zM435 43c-14 25 -35 45 -61 59c-7 -27 -11 -54 -11 -83c0 -44 16 -90 63 -132c19 25 28 53 28 82c-13 23 -19 49 -19 74zM63 19c0 -115 115 -188 208 -188c1 0 34 0 60 4c-6 51 -22 159 -48 283
c-59 -7 -93 -48 -93 -92c0 -34 21 -70 64 -95c5 -5 6 -10 6 -15c0 -11 -9 -22 -21 -22c-15 0 -104 51 -104 152c0 71 46 141 128 161c-11 48 -24 95 -38 143c-82 -101 -162 -202 -162 -331zM319 860c-76 -44 -123 -124 -123 -211c0 -36 10 -86 29 -151
c59 79 107 162 107 261c0 25 1 50 -13 101z" />
    <glyph glyph-name="clefs.tenorG" unicode="&#xe089;" horiz-adv-x="828" 
d="M335 -262c-193 0 -333 180 -333 374c0 177 131 306 248 441c-1 3 -1 5 -2 8h-164c-8 0 -14 7 -14 14c0 3 1 7 3 10l85 99c3 3 7 5 11 5h45c-8 41 -16 106 -16 210c0 115 55 224 149 292c6 5 14 5 20 0c68 -80 133 -245 133 -358c0 -52 -11 -99 -30 -144h217v436
c0 42 43 71 88 71c34 0 55 -34 55 -71c0 -30 -25 -55 -55 -55c-17 0 -35 11 -45 26v-521c0 -8 -6 -14 -14 -14h-320c-23 -31 -50 -62 -76 -92l9 -30h387c8 0 14 -6 14 -14v-521c10 15 28 26 45 26c30 0 55 -25 55 -55c0 -37 -21 -71 -55 -71c-45 0 -88 29 -88 71v436h-323
c4 -16 8 -33 12 -49c2 0 7 1 13 1c155 0 256 -128 256 -261c0 -113 -74 -212 -180 -246c3 -35 5 -70 5 -105c0 -19 -1 -39 -2 -58c-7 -119 -88 -225 -202 -228l1 43c93 2 153 92 159 191c1 18 2 37 2 55c0 31 -1 61 -4 92c-5 -1 -44 -8 -89 -8zM266 -635h-6
c-108 0 -195 88 -195 197c0 58 53 103 112 103c54 0 95 -47 95 -103c0 -52 -43 -95 -95 -95c-11 0 -21 2 -31 6c26 -39 68 -65 117 -65h4zM299 -128c-15 0 -126 62 -126 187c0 88 58 174 160 197c-4 18 -8 37 -13 55h-133c-64 -85 -113 -175 -113 -283
c0 -145 141 -247 264 -247c1 0 47 0 82 6c-7 64 -29 203 -63 364c-79 -8 -124 -61 -124 -119c0 -44 25 -91 81 -123c5 -5 7 -10 7 -15c0 -11 -10 -22 -22 -22zM246 786c0 -24 3 -55 11 -97h97c44 69 74 142 74 227c0 34 1 66 -20 129c-99 -48 -162 -149 -162 -259zM461 -203
c68 24 113 90 113 164c0 90 -66 179 -173 190c19 -89 48 -242 60 -354z" />
    <glyph glyph-name="clefs.tenorG_change" unicode="&#xe08a;" horiz-adv-x="663" 
d="M268 -212c-155 0 -266 144 -266 302c0 144 101 254 191 367c-12 39 -24 77 -31 117h-119c-10 0 -15 12 -9 19l68 79c2 3 6 4 9 4h41c0 1 -1 65 -1 69c0 93 42 181 115 239c6 5 14 4 20 -1c52 -64 111 -204 107 -307h157v224c0 33 34 57 70 57c27 0 44 -28 44 -57
c0 -24 -20 -44 -44 -44c-14 0 -28 9 -36 21v-292c0 -6 -5 -11 -11 -11h-201c-20 -52 -52 -101 -87 -148h288c6 0 11 -5 11 -11v-292c8 12 22 21 36 21c24 0 44 -20 44 -44c0 -29 -17 -57 -44 -57c-36 0 -70 24 -70 57v224h-273c10 -37 19 -75 28 -112h1c2 0 4 1 6 1
c126 0 206 -105 206 -212c0 -92 -59 -170 -141 -197c2 -27 3 -54 3 -81c0 -16 0 -33 -1 -49c-6 -98 -75 -184 -169 -186l1 43c38 1 127 22 127 194c0 23 -1 46 -3 69c-4 -1 -34 -6 -67 -6zM210 -512h-4c-87 0 -159 72 -159 160c0 46 42 83 90 83c43 0 76 -38 76 -83
c0 -42 -34 -76 -76 -76c-4 0 -6 0 -10 1c19 -26 47 -42 81 -42h3zM239 -106c-15 0 -104 51 -104 152c0 71 46 141 128 161c-9 39 -19 78 -30 117h-29c-74 -93 -141 -187 -141 -305c0 -115 115 -188 208 -188c1 0 34 0 60 4c-6 51 -22 159 -48 283c-59 -7 -93 -48 -93 -92
c0 -34 21 -70 64 -95c5 -5 6 -10 6 -15c0 -11 -9 -22 -21 -22zM206 574c5 -26 12 -51 19 -76c19 25 37 50 52 76h-71zM198 676h123c7 27 11 54 11 83c0 25 1 50 -13 101c-68 -39 -112 -108 -121 -184zM373 -155c45 18 81 66 81 125c0 68 -48 136 -127 147
c3 -12 33 -157 46 -272z" />
    <glyph glyph-name="clefs.percussion" unicode="&#xe08b;" horiz-adv-x="500" 
d="M490 -250h-92c-6 0 -10 4 -10 10v480c0 6 4 10 10 10h92c6 0 10 -4 10 -10v-480c0 -6 -4 -10 -10 -10zM270 -250h-93c-6 0 -10 4 -10 10v480c0 6 4 10 10 10h93c6 0 10 -4 10 -10v-480c0 -6 -4 -10 -10 -10z" />
    <glyph glyph-name="clefs.percussion_change" unicode="&#xe08c;" horiz-adv-x="400" 
d="M390 -200h-70c-6 0 -10 4 -10 10v380c0 6 4 10 10 10h70c6 0 10 -4 10 -10v-380c0 -6 -4 -10 -10 -10zM214 -200h-70c-6 0 -10 4 -10 10v380c0 6 4 10 10 10h70c6 0 10 -4 10 -10v-380c0 -6 -4 -10 -10 -10z" />
    <glyph glyph-name="clefs.varpercussion" unicode="&#xe08d;" horiz-adv-x="437" 
d="M428 -419h-24h-203h-23c-6 0 -10 4 -10 10v818c0 6 4 10 10 10h11h227h12c6 0 10 -4 10 -10v-818c0 -6 -4 -10 -10 -10zM394 331h-183v-662h183v662z" />
    <glyph glyph-name="clefs.varpercussion_change" unicode="&#xe08e;" horiz-adv-x="350" 
d="M144 335h196c6 0 10 -4 10 -10v-650c0 -6 -4 -10 -10 -10h-196c-6 0 -10 4 -10 10v650c0 6 4 10 10 10zM315 265h-146v-530h146v530z" />
    <glyph glyph-name="clefs.tab" unicode="&#xe08f;" horiz-adv-x="700" 
d="M208 -722c-49 0 -100 59 -100 62c0 11 12 26 24 26c16 0 34 -37 72 -37c65 0 89 99 89 195v8c0 35 9 109 18 163c-39 -13 -70 -40 -70 -70c0 -32 26 -27 26 -50c0 -9 -1 -27 -43 -27c-41 0 -84 28 -84 75c0 82 118 130 234 130c71 0 215 -11 215 -103
c0 -18 -6 -70 -69 -110c58 -11 102 -36 102 -91c0 -85 -90 -158 -179 -158c-73 0 -111 51 -111 60c0 12 16 25 28 25c13 0 17 -25 54 -25c44 0 95 41 95 93c0 46 -49 63 -100 63h-1c-6 0 -8 8 -8 16c0 11 5 24 18 24c36 0 69 39 69 77c0 35 -23 66 -80 76
c-11 -62 -31 -173 -40 -220c-20 -102 -84 -202 -159 -202zM546 257c0 -8 -18 -361 -18 -365c0 -10 0 -30 21 -30c18 0 47 20 55 20c5 0 9 -8 9 -17c0 -8 -3 -16 -12 -19c-30 -9 -57 -34 -87 -34c-32 0 -45 29 -53 58c-16 61 -26 125 -31 191c-27 -35 -56 -68 -87 -101
c6 -10 24 -33 64 -33c7 0 11 1 12 1c5 0 8 -7 8 -15c0 -6 0 -29 -56 -29c-17 0 -51 4 -70 33c-67 -63 -123 -105 -173 -105h-3c-31 1 -50 21 -75 32c-3 1 -5 5 -5 9c0 11 11 28 25 28c13 0 31 -20 57 -20c71 0 243 203 305 390c9 27 33 37 57 37c29 0 57 -15 57 -31z
M288 540c0 -9 -1 -24 -42 -24c-49 0 -91 36 -91 84c0 30 17 120 232 120c46 0 120 -41 171 -41c69 0 108 44 119 44s23 -11 23 -19c0 -7 -63 -75 -150 -75c-17 0 -30 2 -44 6c-9 -59 -26 -151 -35 -193c-22 -96 -88 -185 -163 -185c-6 0 -12 1 -19 2c-36 8 -67 43 -96 62
c-3 2 -4 5 -4 9c0 11 12 26 23 26c17 0 43 -48 82 -48c56 0 82 77 85 150c2 45 13 150 22 208c-12 3 -31 5 -32 5c-62 0 -113 -28 -113 -70c0 -39 32 -36 32 -61z" />
    <glyph glyph-name="clefs.tab_change" unicode="&#xe090;" horiz-adv-x="560" 
d="M167 -577c-39 0 -81 47 -81 49c0 9 10 21 19 21c13 0 28 -30 59 -30c52 0 71 79 71 156v7c0 28 7 87 14 130c-32 -11 -56 -32 -56 -56c0 -25 20 -21 20 -40c0 -7 1 -21 -33 -21c-33 0 -68 22 -68 59c0 66 94 104 187 104c57 0 173 -9 173 -82c0 -14 -5 -56 -56 -88
c46 -9 82 -29 82 -73c0 -68 -73 -126 -144 -126c-59 0 -88 41 -88 48c0 10 12 20 22 20c11 0 14 -20 44 -20c35 0 76 32 76 74c0 37 -40 51 -81 51c-5 0 -7 5 -7 12c0 9 5 20 15 20c29 0 55 31 55 62c0 28 -19 52 -64 60c-9 -50 -25 -138 -32 -176
c-16 -82 -67 -161 -127 -161zM102 -150c-25 0 -66 26 -66 32c0 9 9 23 20 23s25 -16 46 -16c57 0 193 162 243 312c7 22 27 29 46 29c23 0 45 -11 45 -24c0 -6 -14 -289 -14 -292c0 -8 1 -25 17 -25c14 0 38 16 44 16c4 0 7 -6 7 -13c0 -6 -2 -13 -9 -15
c-24 -8 -46 -28 -70 -28c-26 0 -36 24 -42 47c-13 49 -21 100 -25 153c-21 -28 -44 -55 -69 -81c15 -26 39 -26 60 -26c4 0 6 -6 6 -12c0 -5 0 -23 -45 -23c-13 0 -40 4 -55 27c-54 -51 -99 -84 -139 -84zM247 205c-45 0 -96 58 -96 59c0 9 9 21 18 21c14 0 35 -39 66 -39
c45 0 66 62 68 121c1 36 11 120 18 166c-10 2 -19 4 -26 4c-50 0 -90 -22 -90 -56c0 -31 25 -29 25 -49c0 -7 0 -19 -33 -19c-39 0 -73 29 -73 67c0 24 14 96 186 96c37 0 95 -33 136 -33c55 0 86 35 95 35s19 -9 19 -15c0 -5 -50 -60 -120 -60c-13 0 -24 2 -35 5
c-7 -47 -20 -122 -28 -155c-17 -77 -70 -148 -130 -148z" />
    <glyph glyph-name="timesig.C44" unicode="&#xe091;" horiz-adv-x="424" 
d="M250 262c116 0 176 -106 176 -163c0 -40 -30 -72 -67 -72c-31 0 -75 25 -75 75c0 38 27 77 72 77c4 0 9 0 14 -1c-28 37 -72 59 -120 59c-106 0 -113 -73 -113 -186v-51v-51c0 -113 7 -187 113 -187c80 0 139 70 158 151c2 7 7 10 12 10c6 0 13 -4 13 -12
c0 -22 -50 -174 -183 -174c-59 0 -250 19 -250 263c0 62 18 262 250 262z" />
    <glyph glyph-name="timesig.C22" unicode="&#xe092;" horiz-adv-x="424" 
d="M359 27c-31 0 -75 25 -75 75c0 38 27 77 72 77c4 0 9 0 14 -1c-28 37 -72 59 -120 59h-13v-474c4 0 9 -1 13 -1c80 0 139 70 158 151c2 7 7 10 12 10c6 0 13 -4 13 -12c0 -22 -50 -174 -183 -174c-4 0 -9 1 -13 1v-78c0 -6 -4 -10 -10 -10h-17c-6 0 -10 4 -10 10v81
c-65 10 -200 56 -200 259c0 74 22 231 200 259v81c0 6 4 10 10 10h17c6 0 10 -4 10 -10v-78h13c116 0 176 -106 176 -163c0 -40 -30 -72 -67 -72zM200 -230v460c-58 -22 -63 -87 -63 -179v-51v-51c0 -92 5 -157 63 -179z" />
    <glyph glyph-name="pedal.*" unicode="&#xe093;" horiz-adv-x="388" 
d="M166 194c0 -16 12 -28 28 -28s29 12 29 28s-13 29 -29 29s-28 -13 -28 -29zM92 347c7 0 42 -3 42 -46v-11c0 -56 50 -38 50 -13c0 27 -38 37 -38 64c0 32 24 48 48 48s49 -16 49 -48c0 -27 -39 -37 -39 -64c0 -25 51 -43 51 13c0 4 -1 7 -1 11c0 43 36 46 43 46
c26 0 50 -24 50 -50c0 -7 -2 -43 -45 -43c-4 0 -8 1 -12 1c-56 0 -38 -51 -13 -51c27 0 37 39 64 39c32 0 48 -25 48 -49s-16 -48 -48 -48c-27 0 -37 38 -64 38c-25 0 -43 -50 13 -50h12c43 0 45 -35 45 -42c0 -26 -24 -50 -50 -50c-7 0 -43 2 -43 45c0 4 1 8 1 12
c0 56 -51 38 -51 13c0 -27 39 -37 39 -64c0 -32 -25 -48 -49 -48s-48 16 -48 48c0 27 38 37 38 64c0 25 -50 43 -50 -13v-12c0 -43 -35 -45 -42 -45c-26 0 -50 24 -50 50c0 7 2 42 45 42h12c56 0 38 50 13 50c-27 0 -37 -38 -64 -38c-32 0 -48 24 -48 48s16 49 48 49
c27 0 37 -39 64 -39c25 0 43 51 -13 51c-4 0 -8 -1 -12 -1c-43 0 -45 36 -45 43c0 26 24 50 50 50z" />
    <glyph glyph-name="pedal.M" unicode="&#xe094;" horiz-adv-x="210" 
d="M0 155l35 61c13 11 31 14 51 14c23 0 50 -4 73 -4c20 0 38 2 51 13l-35 -60c-13 -11 -31 -14 -51 -14c-23 0 -50 4 -73 4c-20 0 -38 -3 -51 -14z" />
    <glyph glyph-name="pedal.." unicode="&#xe095;" horiz-adv-x="70" 
d="M0 35c0 19 16 35 35 35s35 -16 35 -35s-16 -35 -35 -35s-35 16 -35 35z" />
    <glyph glyph-name="pedal.P" unicode="&#xe096;" horiz-adv-x="416" 
d="M43 339c0 -34 27 -48 39 -48c22 0 43 28 43 59c0 8 18 8 18 0c0 -63 -41 -125 -83 -125c-22 0 -61 24 -61 78c0 82 90 197 251 197c108 0 166 -82 166 -144c0 -46 -31 -67 -52 -67c-35 0 -68 49 -87 90c-3 7 13 14 16 7c8 -18 28 -32 46 -32c15 0 32 12 32 36
c0 39 -44 92 -121 92h-7c-7 -14 -39 -93 -39 -108c0 -46 100 -114 100 -164c0 -19 -31 -56 -58 -90c29 -3 83 -28 102 -44c7 -6 10 -4 57 31c5 4 17 -8 12 -14c-13 -14 -95 -80 -112 -89c-37 -20 -37 87 -74 98c-34 -41 -83 -102 -120 -102c-7 0 -14 5 -14 12
c0 30 87 103 125 108c28 33 30 38 30 49c0 47 -88 111 -88 150c0 21 44 135 60 162c-113 -10 -181 -88 -181 -142z" />
    <glyph glyph-name="pedal.d" unicode="&#xe097;" horiz-adv-x="333" 
d="M3 438c175 -31 332 -171 332 -296c0 -70 -50 -142 -113 -142c-62 0 -111 76 -111 143c0 55 45 112 97 137c-51 71 -129 126 -208 140c-8 1 -5 19 3 18zM219 265c-37 -21 -55 -77 -55 -122c0 -48 17 -108 58 -108c32 0 45 39 45 81c0 14 0 74 -48 149z" />
    <glyph glyph-name="pedal.e" unicode="&#xe098;" horiz-adv-x="200" 
d="M73 1c-14 0 -38 -1 -62 85c-1 -1 -26 2 -5 19c-6 24 -7 38 -7 50c0 65 35 132 96 132c32 0 49 -23 49 -45c0 -37 -43 -80 -79 -110l-10 -9c18 -33 43 -80 64 -69c10 5 62 44 70 53c5 5 17 -8 11 -14c-12 -13 -83 -73 -97 -83c-8 -6 -19 -9 -30 -9zM76 254
c-22 0 -44 -16 -44 -55c0 -20 6 -42 14 -60c23 20 64 53 64 83c0 17 -14 32 -34 32z" />
    <glyph glyph-name="pedal.Ped" unicode="&#xe099;" horiz-adv-x="798" 
d="M43 339c0 -34 27 -48 39 -48c22 0 43 28 43 59c0 8 18 8 18 0c0 -63 -41 -125 -83 -125c-22 0 -61 24 -61 78c0 82 90 197 251 197c108 0 166 -82 166 -144c0 -46 -31 -67 -52 -67c-35 0 -68 49 -87 90c-3 7 13 14 16 7c8 -18 28 -32 46 -32c15 0 32 12 32 36
c0 39 -44 92 -121 92h-7c-7 -14 -39 -93 -39 -108c0 -46 100 -114 100 -164c0 -19 -31 -56 -58 -90c29 -3 83 -28 102 -44c7 -6 10 -4 57 31c-5 23 -6 36 -6 48c0 65 35 132 96 132c32 0 49 -23 49 -45c0 -37 -43 -80 -79 -110l-11 -9c18 -33 44 -80 65 -69c9 5 47 33 63 47
c-4 14 -6 28 -6 42c0 55 45 112 97 137c-51 71 -129 126 -208 140c-8 1 -5 19 3 18c175 -31 332 -171 332 -296c0 -70 -50 -142 -113 -142c-43 0 -81 37 -99 82c-51 -47 -88 -81 -115 -81c-14 0 -38 -1 -62 85c-1 -1 -85 -71 -106 -82c-37 -20 -37 87 -74 98
c-25 -30 -47 -57 -56 -66c-11 -11 -64 -36 -65 -36h1c-7 0 -14 5 -14 12c0 30 87 103 125 108c28 33 30 38 30 49c0 47 -88 111 -88 150c0 21 44 135 60 162c-113 -10 -181 -88 -181 -142zM475 254c-22 0 -43 -16 -43 -55c0 -20 6 -42 14 -60c23 20 63 53 63 83
c0 17 -14 32 -34 32zM683 265c-37 -21 -55 -77 -55 -122c0 -48 18 -108 59 -108c32 0 45 39 45 81c0 14 -1 74 -49 149z" />
    <glyph glyph-name="brackettips.up" unicode="&#xe09a;" horiz-adv-x="474" 
d="M0 -56v87c0 14 11 25 25 25h50c159 0 271 136 362 270c12 17 38 -1 26 -18c-99 -144 -215 -364 -388 -364h-75z" />
    <glyph glyph-name="brackettips.down" unicode="&#xe09b;" horiz-adv-x="474" 
d="M0 56h75c173 0 289 -220 388 -364c12 -17 -14 -35 -26 -18c-91 134 -203 270 -362 270h-50c-14 0 -25 11 -25 25v87z" />
    <glyph glyph-name="accordion.discant" unicode="&#xe09c;" horiz-adv-x="391" 
d="M391 375c0 -214 -176 -386 -391 -386s-391 172 -391 386s176 386 391 386s391 -172 391 -386zM341 261c12 36 18 74 18 114s-6 78 -18 114h-682c-12 -36 -18 -74 -18 -114s6 -78 18 -114h682zM333 239h-666c53 -133 182 -228 333 -228s280 95 333 228zM-333 511h666
c-53 133 -182 228 -333 228s-280 -95 -333 -228z" />
    <glyph glyph-name="accordion.dot" unicode="&#xe09d;" horiz-adv-x="62" 
d="M-62 0c0 35 27 62 62 62s62 -27 62 -62s-27 -62 -62 -62s-62 27 -62 62z" />
    <glyph glyph-name="accordion.freebass" unicode="&#xe09e;" horiz-adv-x="266" 
d="M266 250c0 -145 -120 -261 -266 -261s-266 116 -266 261s120 261 266 261s266 -116 266 -261zM233 239h-466c6 -126 107 -228 233 -228s227 102 233 228zM-233 261h466c-6 126 -107 228 -233 228s-227 -102 -233 -228z" />
    <glyph glyph-name="accordion.stdbass" unicode="&#xe09f;" horiz-adv-x="516" 
d="M516 500c0 -283 -232 -511 -516 -511s-516 228 -516 511s232 511 516 511s516 -228 516 -511zM484 489h-968c2 -82 25 -160 62 -228h844c37 68 60 146 62 228zM409 239h-818c86 -136 237 -228 409 -228s323 92 409 228zM-484 511h968c-2 82 -25 160 -62 228h-844
c-37 -68 -60 -146 -62 -228zM-409 761h818c-86 136 -237 228 -409 228s-323 -92 -409 -228z" />
    <glyph glyph-name="accordion.bayanbass" unicode="&#xe0a0;" horiz-adv-x="266" 
d="M250 782c9 0 16 -7 16 -16v-750c0 -9 -7 -16 -16 -16h-500c-9 0 -16 7 -16 16v750c0 9 7 16 16 16h500zM234 32v218h-468v-218h468zM234 282v218h-468v-218h468zM234 532v218h-468v-218h468z" />
    <glyph glyph-name="accordion.oldEE" unicode="&#xe0a1;" horiz-adv-x="266" 
d="M234 261c0 131 -104 239 -234 239s-234 -108 -234 -239s104 -238 234 -238s234 107 234 238zM266 261c0 -145 -120 -261 -266 -261s-266 116 -266 261s120 262 266 262s266 -117 266 -262zM59 367c0 26 21 48 47 48s48 -22 48 -48s-22 -47 -48 -47c-6 0 -12 1 -17 3
l-55 -46c0 -1 1 -2 1 -3l71 6c7 17 24 29 44 29c26 0 48 -22 48 -48s-22 -47 -48 -47c-20 0 -37 12 -44 29l-71 5c0 -1 -1 -1 -1 -2l55 -47c5 2 11 4 17 4c26 0 48 -22 48 -48s-22 -47 -48 -47s-47 21 -47 47c0 6 1 13 3 18l-46 54c-1 0 -2 -1 -3 -1l6 -71
c17 -7 28 -24 28 -44c0 -26 -21 -47 -47 -47s-47 21 -47 47c0 20 11 37 28 44l6 71c-1 0 -2 1 -3 1l-46 -54c2 -5 3 -12 3 -18c0 -26 -21 -47 -47 -47s-48 21 -48 47s22 48 48 48c6 0 12 -2 17 -4l55 47c0 1 -1 1 -1 2l-71 -5c-7 -17 -24 -29 -44 -29c-26 0 -47 21 -47 47
s21 48 47 48c20 0 37 -12 44 -29l71 -6c0 1 1 2 1 3l-55 46c-5 -2 -11 -3 -17 -3c-26 0 -48 21 -48 47s22 48 48 48s47 -22 47 -48c0 -6 -1 -12 -3 -17l46 -55c1 0 2 2 3 2l-6 71c-17 7 -28 23 -28 43c0 26 21 48 47 48s47 -22 47 -48c0 -20 -11 -36 -28 -43l-6 -71
c1 0 2 -2 3 -2l46 55c-2 5 -3 11 -3 17z" />
    <glyph glyph-name="accordion.push" unicode="&#xe0a2;" horiz-adv-x="0" 
d="M-196 567l192 -269c2 -3 4 -6 4 -10s-2 -8 -4 -11l-192 -269c-14 -20 -44 2 -30 22l184 258l-184 257c-14 20 16 42 30 22z" />
    <glyph glyph-name="accordion.pull" unicode="&#xe0a3;" horiz-adv-x="37" 
d="M38 19c0 -10 -9 -19 -19 -19s-19 9 -19 19v481h-174c-10 0 -18 9 -18 19v37c0 10 8 19 18 19h193c10 0 19 -9 19 -19v-537z" />
    <glyph glyph-name="ties.lyric.short" unicode="&#xe0a4;" horiz-adv-x="0" 
d="M172 -100c0 -13 -60 -83 -172 -83s-172 70 -172 83c0 8 8 15 16 15c4 0 8 -2 11 -6c33 -41 92 -42 145 -42s112 1 145 42c3 4 7 6 11 6c8 0 16 -7 16 -15z" />
    <glyph glyph-name="ties.lyric.default" unicode="&#xe0a5;" horiz-adv-x="0" 
d="M234 -100c0 -14 -87 -89 -234 -89s-234 75 -234 89c0 8 7 15 15 15c3 0 7 -1 10 -4c56 -48 135 -50 209 -50s153 2 209 50c3 3 7 4 10 4c8 0 15 -7 15 -15z" />
    <glyph glyph-name="plus" unicode="+" horiz-adv-x="250" 
d="M125 125c-14 0 -25 11 -25 25v75h-75c-14 0 -25 11 -25 25s11 25 25 25h75v75c0 14 11 25 25 25s25 -11 25 -25v-75h75c14 0 25 -11 25 -25s-11 -25 -25 -25h-75v-75c0 -14 -11 -25 -25 -25z" />
    <glyph glyph-name="comma" unicode="," horiz-adv-x="114" 
d="M66 -36c0 51 -66 31 -66 93c0 32 25 58 57 58s58 -26 58 -58c0 -72 -27 -141 -58 -206c-3 -6 -7 -8 -12 -8c-8 0 -16 6 -16 14c0 11 37 68 37 107z" />
    <glyph glyph-name="hyphen" unicode="-" horiz-adv-x="166" 
d="M152 152h-137c-8 0 -15 7 -15 15s7 14 15 14h137c8 0 15 -6 15 -14s-7 -15 -15 -15z" />
    <glyph glyph-name="period" unicode="." horiz-adv-x="114" 
d="M0 57c0 32 25 58 57 58s58 -26 58 -58s-26 -57 -58 -57s-57 25 -57 57z" />
    <glyph glyph-name="zero" unicode="0" horiz-adv-x="366" 
d="M183 471c-61 0 -67 -88 -67 -166c0 -19 1 -38 1 -55s-1 -36 -1 -55c0 -78 6 -166 67 -166s67 88 67 166v55v55c0 78 -6 166 -67 166zM183 500c116 0 184 -123 184 -250s-68 -250 -184 -250s-183 123 -183 250s67 250 183 250z" />
    <glyph glyph-name="one" unicode="1" horiz-adv-x="317" 
d="M0 250l117 250c6 12 30 -13 58 -13c15 0 29 7 42 13c8 4 16 -5 16 -16v-367c0 -48 28 -94 73 -94c8 0 12 -5 12 -11s-4 -12 -12 -12c-44 0 -87 13 -131 13s-87 -13 -131 -13c-8 0 -12 6 -12 12s4 11 12 11c45 0 73 46 73 94v245c0 12 -9 19 -17 19c-4 0 -8 -3 -10 -7
l-64 -136c-3 -6 -7 -9 -12 -9c-8 0 -16 6 -16 14c0 2 1 5 2 7z" />
    <glyph glyph-name="two" unicode="2" horiz-adv-x="366" 
d="M229 0c-88 0 -90 66 -144 66c-30 0 -59 -20 -62 -55c-1 -7 -6 -11 -11 -11c-6 0 -12 4 -12 11c0 154 232 170 232 344c0 59 -16 122 -67 122c-25 0 -49 -14 -49 -37c0 -27 35 -41 35 -68c0 -38 -31 -69 -69 -69s-69 31 -69 69c0 76 72 128 152 128c95 0 183 -57 183 -145
c0 -151 -150 -159 -246 -220c9 2 18 3 27 3c83 0 111 -59 171 -59c48 0 38 38 55 38c6 0 12 -5 12 -12c0 -22 -44 -105 -138 -105z" />
    <glyph glyph-name="three" unicode="3" horiz-adv-x="333" 
d="M263 265c0 -33 70 -23 70 -125c0 -92 -79 -140 -179 -140c-79 0 -154 42 -154 113c0 36 30 66 66 66s65 -30 65 -66c0 -25 -40 -28 -40 -53c0 -27 32 -37 63 -37c49 0 63 61 63 117v16c0 54 -2 94 -50 94h-80c-10 0 -14 8 -14 15s4 14 14 14h80c49 0 50 43 50 99v8
c0 54 -18 91 -67 91c-28 0 -57 -9 -57 -33c0 -22 35 -25 35 -47c0 -32 -25 -58 -57 -58s-58 26 -58 58c0 64 67 103 137 103c91 0 169 -33 169 -114c0 -122 -56 -80 -56 -121z" />
    <glyph glyph-name="four" unicode="4" horiz-adv-x="400" 
d="M196 117h117c0 -48 27 -94 72 -94c8 0 12 -5 12 -11s-4 -12 -12 -12c-44 0 -87 13 -131 13s-87 -13 -131 -13c-8 0 -12 6 -12 12s4 11 12 11c45 0 73 46 73 94zM-2 148c0 12 140 143 140 336c0 10 7 19 16 16c23 -7 47 -13 71 -13s48 6 71 13c14 4 23 -9 17 -16
l-284 -330h167v131c0 34 34 27 68 72c22 30 23 56 36 56c6 0 13 -5 13 -14v-245h72c10 0 15 -7 15 -14s-5 -15 -15 -15h-72v-8h-117v8h-167c-23 0 -31 14 -31 23z" />
    <glyph glyph-name="four.alt" unicode="&#xe0a6;" horiz-adv-x="400" 
d="M-2 148c0 12 140 143 140 336c0 10 7 19 16 16c23 -7 47 -13 71 -13s48 6 71 13c14 4 23 -9 17 -16l-284 -330h167v2c0 34 34 27 68 72c22 30 23 57 36 57c6 0 13 -5 13 -14v-117h72c10 0 15 -7 15 -14s-5 -15 -15 -15h-72v-8c0 -48 27 -94 72 -94c8 0 12 -5 12 -11
s-4 -12 -12 -12c-44 0 -87 13 -131 13s-87 -13 -131 -13c-8 0 -12 6 -12 12s4 11 12 11c45 0 73 46 73 94v8h-167c-23 0 -31 14 -31 23z" />
    <glyph glyph-name="five" unicode="5" horiz-adv-x="337" 
d="M164 292c-91 0 -102 -51 -118 -51c-8 0 -15 6 -15 15v228c0 10 8 18 17 16c45 -8 90 -13 135 -13s91 5 136 13c15 2 22 -10 16 -16c-67 -67 -163 -93 -258 -93c-9 0 -16 -8 -16 -17v-96c28 28 64 43 103 43c115 0 185 -51 185 -161c0 -94 -87 -160 -186 -160
c-82 0 -163 39 -163 113c0 36 30 66 66 66s65 -30 65 -66c0 -25 -40 -28 -40 -53c0 -30 37 -37 72 -37c57 0 70 71 70 137c0 63 -15 132 -69 132z" />
    <glyph glyph-name="six" unicode="6" horiz-adv-x="339" 
d="M170 259c-51 0 -53 -43 -53 -100v-18v-18c0 -57 2 -100 53 -100c57 0 61 51 61 118s-4 118 -61 118zM117 266c15 10 33 16 53 16c101 0 170 -46 170 -141s-69 -141 -170 -141c-112 0 -170 124 -170 250c0 128 72 250 190 250c70 0 136 -39 136 -103
c0 -36 -29 -66 -65 -66s-66 30 -66 66c0 24 40 25 40 49c0 20 -23 31 -45 31c-66 0 -75 -65 -75 -139c0 -24 2 -48 2 -72z" />
    <glyph glyph-name="seven" unicode="7" horiz-adv-x="337" 
d="M360 486c0 -19 -164 -198 -164 -395c0 -24 3 -50 8 -75c2 -10 -6 -19 -16 -16c-23 7 -47 13 -71 13s-48 -6 -71 -13c-11 -3 -21 6 -17 16c55 130 136 246 219 360c-21 -11 -41 -17 -61 -17c-60 0 -70 53 -116 53c-32 0 -42 -37 -42 -72v-75c0 -10 -7 -15 -14 -15
s-15 5 -15 15v220c0 10 8 15 15 15s14 -5 14 -15v-14c0 -9 12 -19 15 -15c20 29 52 44 85 44c70 0 74 -51 125 -51c56 0 76 51 90 51c8 0 16 -6 16 -14z" />
    <glyph glyph-name="seven.alt" unicode="&#xe0a7;" horiz-adv-x="337" 
d="M360 486c0 -19 -164 -198 -164 -395c0 -24 3 -50 8 -75c2 -10 -6 -19 -16 -16c-23 7 -47 13 -71 13s-48 -6 -71 -13c-11 -3 -21 6 -17 16c55 130 136 246 219 360c-21 -11 -41 -17 -61 -17c-60 0 -70 53 -116 53c-32 0 -42 -37 -42 -72c0 -10 -7 -15 -14 -15
s-15 5 -15 15v145c0 10 8 15 15 15s14 -5 14 -15v-14c0 -9 12 -19 15 -15c20 29 52 44 85 44c70 0 74 -51 125 -51c56 0 76 51 90 51c8 0 16 -6 16 -14z" />
    <glyph glyph-name="eight" unicode="8" horiz-adv-x="366" 
d="M261 287c25 30 44 64 44 103c0 54 -55 87 -114 87c-46 0 -73 -36 -73 -71c0 -21 10 -42 31 -54zM292 269c23 -13 80 -54 80 -125c0 -73 -66 -144 -189 -144c-94 0 -183 54 -183 140c0 50 36 87 72 123c-37 28 -55 66 -55 103c0 68 60 134 174 134c80 0 157 -39 157 -110
c0 -46 -25 -86 -56 -121zM103 244c-31 -30 -59 -61 -59 -104c0 -69 66 -117 139 -117c54 0 86 42 86 83c0 24 -10 48 -35 62z" />
    <glyph glyph-name="nine" unicode="9" horiz-adv-x="339" 
d="M170 241c51 0 53 43 53 100v18v18c0 57 -2 100 -53 100c-57 0 -61 -51 -61 -118s4 -118 61 -118zM223 234c-15 -10 -33 -16 -53 -16c-101 0 -170 46 -170 141s69 141 170 141c112 0 170 -124 170 -250c0 -128 -72 -250 -190 -250c-70 0 -136 39 -136 103
c0 36 29 66 65 66s66 -30 66 -66c0 -24 -40 -25 -40 -49c0 -20 23 -31 45 -31c66 0 75 65 75 139c0 24 -2 48 -2 72z" />
    <glyph glyph-name="fixedwidth.zero" unicode="&#xe0a8;" horiz-adv-x="400" 
d="M200 471c-61 0 -67 -88 -67 -166v-55v-55c0 -78 6 -166 67 -166s67 88 67 166v55v55c0 78 -6 166 -67 166zM200 500c116 0 183 -123 183 -250s-67 -250 -183 -250s-183 123 -183 250s67 250 183 250z" />
    <glyph glyph-name="fixedwidth.one" unicode="&#xe0a9;" horiz-adv-x="400" 
d="M49 250l117 250c6 12 30 -13 58 -13c15 0 29 7 42 13c8 4 17 -5 17 -16v-367c0 -48 27 -94 72 -94c8 0 12 -5 12 -11s-4 -12 -12 -12c-44 0 -87 13 -131 13s-87 -13 -131 -13c-8 0 -12 6 -12 12s4 11 12 11c45 0 73 46 73 94v245c0 12 -8 19 -16 19c-4 0 -9 -3 -11 -7
l-63 -136c-3 -6 -8 -9 -13 -9c-8 0 -15 6 -15 14c0 2 0 5 1 7z" />
    <glyph glyph-name="fixedwidth.two" unicode="&#xe0aa;" horiz-adv-x="400" 
d="M246 0c-88 0 -90 66 -144 66c-30 0 -59 -20 -62 -55c-1 -7 -7 -11 -12 -11c-6 0 -11 4 -11 11c0 154 231 170 231 344c0 59 -15 122 -66 122c-25 0 -48 -14 -48 -37c0 -27 35 -41 35 -68c0 -38 -31 -69 -69 -69s-69 31 -69 69c0 75 72 128 151 128c95 0 183 -57 183 -145
c0 -151 -150 -159 -246 -220c9 2 18 3 27 3c83 0 111 -59 171 -59c48 0 37 38 54 38c6 0 12 -5 12 -12c0 -22 -43 -105 -137 -105z" />
    <glyph glyph-name="fixedwidth.three" unicode="&#xe0ab;" horiz-adv-x="400" 
d="M296 265c0 -33 71 -23 71 -125c0 -92 -80 -140 -180 -140c-79 0 -154 42 -154 113c0 36 30 66 66 66s66 -30 66 -66c0 -25 -41 -28 -41 -53c0 -27 32 -37 63 -37c49 0 63 61 63 117v16c0 54 -2 94 -50 94h-79c-10 0 -15 8 -15 15s5 14 15 14h79c49 0 50 43 50 99v8
c0 54 -18 91 -67 91c-27 0 -54 -10 -54 -33c0 -22 36 -25 36 -47c0 -32 -26 -58 -58 -58s-57 26 -57 58c0 63 64 103 133 103c91 0 169 -33 169 -114c0 -122 -56 -80 -56 -121z" />
    <glyph glyph-name="fixedwidth.four" unicode="&#xe0ac;" horiz-adv-x="400" 
d="M196 117h117c0 -48 27 -94 72 -94c8 0 12 -5 12 -11s-4 -12 -12 -12c-44 0 -87 13 -131 13s-87 -13 -131 -13c-8 0 -12 6 -12 12s4 11 12 11c45 0 73 46 73 94zM-2 148c0 12 140 143 140 336c0 10 7 19 16 16c23 -7 47 -13 71 -13s48 6 71 13c14 4 23 -9 17 -16
l-284 -330h167v131c0 34 34 27 68 72c22 30 23 56 36 56c6 0 13 -5 13 -14v-245h72c10 0 15 -7 15 -14s-5 -15 -15 -15h-72v-8h-117v8h-167c-23 0 -31 14 -31 23z" />
    <glyph glyph-name="fixedwidth.four.alt" unicode="&#xe0ad;" horiz-adv-x="400" 
d="M-2 148c0 12 140 143 140 336c0 10 7 19 16 16c23 -7 47 -13 71 -13s48 6 71 13c14 4 23 -9 17 -16l-284 -330h167v2c0 34 34 27 68 72c22 30 23 57 36 57c6 0 13 -5 13 -14v-117h72c10 0 15 -7 15 -14s-5 -15 -15 -15h-72v-8c0 -48 27 -94 72 -94c8 0 12 -5 12 -11
s-4 -12 -12 -12c-44 0 -87 13 -131 13s-87 -13 -131 -13c-8 0 -12 6 -12 12s4 11 12 11c45 0 73 46 73 94v8h-167c-23 0 -31 14 -31 23z" />
    <glyph glyph-name="fixedwidth.five" unicode="&#xe0ae;" horiz-adv-x="400" 
d="M186 292c-91 0 -102 -51 -118 -51c-8 0 -15 6 -15 15v228c0 10 8 18 17 16c45 -8 90 -13 135 -13s91 5 136 13c15 2 22 -10 16 -16c-67 -67 -163 -93 -258 -93c-9 0 -17 -8 -17 -17v-96c28 28 65 43 104 43c115 0 185 -51 185 -161c0 -94 -87 -160 -186 -160
c-82 0 -163 39 -163 113c0 36 29 66 65 66s66 -30 66 -66c0 -25 -41 -28 -41 -53c0 -30 38 -37 73 -37c57 0 69 71 69 137c0 63 -14 132 -68 132z" />
    <glyph glyph-name="fixedwidth.six" unicode="&#xe0af;" horiz-adv-x="400" 
d="M200 259c-51 0 -53 -43 -53 -100v-18v-18c0 -57 2 -100 53 -100c57 0 61 51 61 118s-4 118 -61 118zM147 266c15 10 33 16 53 16c101 0 170 -46 170 -141s-69 -141 -170 -141c-112 0 -170 124 -170 250c0 128 72 250 190 250c70 0 136 -39 136 -103
c0 -36 -29 -66 -65 -66s-66 30 -66 66c0 24 40 25 40 49c0 20 -23 31 -45 31c-66 0 -75 -65 -75 -139c0 -24 2 -48 2 -72z" />
    <glyph glyph-name="fixedwidth.seven" unicode="&#xe0b0;" horiz-adv-x="400" 
d="M401 486c0 -21 -172 -206 -172 -400c0 -23 2 -47 7 -70c2 -10 -7 -19 -17 -16c-23 7 -47 13 -71 13s-48 -6 -71 -13c-11 -3 -20 6 -16 16c56 131 141 245 226 359c-21 -11 -42 -17 -62 -17c-62 0 -71 55 -120 55c-32 0 -44 -35 -44 -73v-75c0 -10 -8 -15 -15 -15
s-14 5 -14 15v220c0 10 7 15 14 15s15 -5 15 -15v-14c0 -9 11 -19 14 -15c20 29 55 44 89 44c73 0 75 -52 129 -52c58 0 79 52 93 52c8 0 15 -6 15 -14z" />
    <glyph glyph-name="fixedwidth.seven.alt" unicode="&#xe0b1;" horiz-adv-x="400" 
d="M401 486c0 -21 -172 -206 -172 -400c0 -23 2 -47 7 -70c2 -10 -7 -19 -17 -16c-23 7 -47 13 -71 13s-48 -6 -71 -13c-11 -3 -20 6 -16 16c56 131 141 245 226 359c-21 -11 -42 -17 -62 -17c-62 0 -71 55 -120 55c-32 0 -44 -35 -44 -73c0 -10 -8 -15 -15 -15
s-14 5 -14 15v145c0 10 7 15 14 15s15 -5 15 -15v-14c0 -9 11 -19 14 -15c20 29 55 44 89 44c73 0 75 -52 129 -52c58 0 79 52 93 52c8 0 15 -6 15 -14z" />
    <glyph glyph-name="fixedwidth.eight" unicode="&#xe0b2;" horiz-adv-x="400" 
d="M277 287c25 30 44 64 44 103c0 54 -55 87 -114 87c-46 0 -73 -36 -73 -71c0 -21 11 -42 32 -54zM308 269c23 -13 80 -54 80 -125c0 -73 -65 -144 -188 -144c-94 0 -183 54 -183 140c0 50 36 87 72 123c-37 28 -56 66 -56 103c0 68 60 134 174 134c80 0 158 -39 158 -110
c0 -46 -26 -86 -57 -121zM119 244c-31 -30 -59 -61 -59 -104c0 -69 67 -117 140 -117c54 0 86 42 86 83c0 24 -11 48 -36 62z" />
    <glyph glyph-name="fixedwidth.nine" unicode="&#xe0b3;" horiz-adv-x="400" 
d="M200 241c51 0 53 43 53 100v18v18c0 57 -2 100 -53 100c-57 0 -61 -51 -61 -118s4 -118 61 -118zM253 234c-15 -10 -33 -16 -53 -16c-101 0 -170 46 -170 141s69 141 170 141c112 0 170 -124 170 -250c0 -128 -72 -250 -190 -250c-70 0 -136 39 -136 103
c0 36 29 66 65 66s66 -30 66 -66c0 -24 -40 -25 -40 -49c0 -20 23 -31 45 -31c66 0 75 65 75 139c0 24 -2 48 -2 72z" />
    <glyph glyph-name="fattened.zero" unicode="&#xe0b4;" horiz-adv-x="366" 
d="M183 456c-63 0 -66 -102 -66 -180v-26v-26c0 -78 3 -180 66 -180s67 102 67 180v26v26c0 78 -4 180 -67 180zM183 500c116 0 184 -123 184 -250s-68 -250 -184 -250s-183 123 -183 250s67 250 183 250z" />
    <glyph glyph-name="fattened.one" unicode="&#xe0b5;" horiz-adv-x="323" 
d="M175 487c16 0 29 14 39 14s19 -12 19 -26v-358c0 -44 31 -82 73 -82c12 0 18 -9 18 -18s-6 -17 -18 -17c-44 0 -87 13 -131 13s-87 -13 -131 -13c-12 0 -18 8 -18 17s6 18 18 18c42 0 73 38 73 82v176c0 18 -14 28 -25 28c-6 0 -12 -3 -15 -9l-37 -80
c-4 -9 -12 -13 -19 -13c-11 0 -23 9 -23 21c0 3 0 7 2 10l117 250c8 17 38 -13 58 -13z" />
    <glyph glyph-name="fattened.two" unicode="&#xe0b6;" horiz-adv-x="366" 
d="M89 64c-61 0 -44 -64 -71 -64c-9 0 -18 6 -18 17c0 154 232 165 232 338c0 54 -20 110 -67 110c-25 0 -49 -13 -49 -36c0 -27 35 -42 35 -69c0 -38 -31 -69 -69 -69s-69 31 -69 69c0 80 70 140 152 140c95 0 183 -57 183 -145c0 -146 -144 -157 -237 -217c5 1 10 1 15 1
c84 0 115 -60 170 -60c44 0 29 38 53 38c9 0 18 -7 18 -17c0 -25 -44 -100 -135 -100c-90 0 -93 64 -143 64z" />
    <glyph glyph-name="fattened.three" unicode="&#xe0b7;" horiz-adv-x="333" 
d="M256 265c0 -46 77 -32 77 -125c0 -92 -79 -140 -179 -140c-80 0 -154 50 -154 125c0 36 30 66 66 66s65 -30 65 -66c0 -25 -40 -29 -40 -54c0 -27 32 -36 63 -36c45 0 63 53 63 105c0 58 -1 103 -50 103h-72c-15 0 -22 11 -22 22s7 21 22 21h72c48 0 50 44 50 100
c0 49 -21 79 -67 79c-28 0 -57 -9 -57 -33c0 -22 35 -25 35 -47c0 -32 -25 -57 -57 -57s-57 25 -57 57c0 68 64 115 136 115c91 0 169 -33 169 -114c0 -106 -63 -73 -63 -121z" />
    <glyph glyph-name="fattened.four" unicode="&#xe0b8;" horiz-adv-x="400" 
d="M158 501c8 0 37 -14 67 -14c31 0 59 14 70 14c12 0 21 -8 21 -17c0 -3 -1 -6 -3 -9l-269 -306h152v80c0 50 42 34 68 76c7 12 10 26 16 38c3 6 7 9 13 9c9 0 20 -8 20 -21v-182h65c15 0 22 -11 22 -22s-7 -22 -22 -22h-65v-8c0 -44 30 -82 72 -82c12 0 18 -9 18 -18
s-6 -17 -18 -17c-44 0 -87 13 -131 13s-87 -13 -131 -13c-12 0 -18 8 -18 17s6 18 18 18c42 0 73 38 73 82v8h-152c-35 0 -47 22 -47 35c0 18 141 139 141 315c0 14 9 26 20 26z" />
    <glyph glyph-name="fattened.four.alt" unicode="&#xe0b9;" horiz-adv-x="400" 
d="M158 501c8 0 37 -14 67 -14c31 0 59 14 70 14c12 0 21 -8 21 -17c0 -3 -1 -6 -3 -9l-269 -306h152v3c0 50 42 35 68 77c7 12 10 25 16 37c3 6 7 9 13 9c9 0 20 -8 20 -21v-105h65c15 0 22 -11 22 -22s-7 -22 -22 -22h-65v-8c0 -44 30 -82 72 -82c12 0 18 -9 18 -18
s-6 -17 -18 -17c-44 0 -87 13 -131 13s-87 -13 -131 -13c-12 0 -18 8 -18 17s6 18 18 18c42 0 73 38 73 82v8h-152c-35 0 -47 22 -47 35c0 18 141 139 141 315c0 14 9 26 20 26z" />
    <glyph glyph-name="fattened.five" unicode="&#xe0ba;" horiz-adv-x="337" 
d="M176 286c-100 0 -97 -49 -122 -49c-11 0 -23 8 -23 22v216c0 14 10 25 22 25c1 0 72 -13 130 -13c57 0 132 13 133 13c14 0 22 -9 22 -17c0 -9 -74 -92 -238 -92c-14 0 -25 -11 -25 -25v-71c26 26 64 35 101 35c113 0 179 -55 179 -165c0 -96 -88 -165 -188 -165
c-85 0 -167 47 -167 125c0 36 30 66 66 66s65 -30 65 -66c0 -25 -40 -29 -40 -54c0 -31 40 -36 76 -36c54 0 71 67 71 130c0 58 -12 121 -62 121z" />
    <glyph glyph-name="fattened.six" unicode="&#xe0bb;" horiz-adv-x="339" 
d="M170 232c-48 0 -53 -42 -53 -98s5 -99 53 -99c50 0 61 42 61 99s-11 98 -61 98zM117 252c15 10 33 15 53 15c100 0 170 -41 170 -133s-70 -134 -170 -134c-112 0 -170 124 -170 250c0 128 72 250 190 250c72 0 136 -47 136 -115c0 -36 -29 -66 -65 -66s-66 30 -66 66
c0 24 40 25 40 49c0 20 -23 31 -45 31c-67 0 -74 -69 -74 -146c0 -22 1 -45 1 -67z" />
    <glyph glyph-name="fattened.seven" unicode="&#xe0bc;" horiz-adv-x="322" 
d="M356 478c0 -21 -145 -181 -145 -375c0 -48 8 -77 8 -83c0 -11 -9 -21 -20 -21c-9 0 -38 14 -68 14s-59 -14 -69 -14c-11 0 -20 9 -20 19c0 4 49 133 189 347c-13 -5 -26 -7 -39 -7c-57 0 -63 45 -102 45c-32 0 -46 -54 -46 -71v-60c0 -15 -11 -22 -22 -22s-22 7 -22 22
v206c0 15 11 22 22 22s22 -7 22 -22v-14c0 -11 18 -21 22 -15c24 34 50 51 78 51c53 0 63 -48 105 -48c50 0 64 48 84 48c12 0 23 -10 23 -22z" />
    <glyph glyph-name="fattened.seven.alt" unicode="&#xe0bd;" horiz-adv-x="322" 
d="M356 478c0 -21 -145 -181 -145 -375c0 -48 8 -77 8 -83c0 -11 -9 -21 -20 -21c-9 0 -38 14 -68 14s-59 -14 -69 -14c-11 0 -20 9 -20 19c0 4 49 133 189 347c-13 -5 -26 -7 -39 -7c-57 0 -63 45 -102 45c-32 0 -46 -54 -46 -71c0 -15 -11 -22 -22 -22s-22 7 -22 22v146
c0 15 11 22 22 22s22 -7 22 -22v-14c0 -11 18 -21 22 -15c24 34 50 51 78 51c53 0 63 -48 105 -48c50 0 64 48 84 48c12 0 23 -10 23 -22z" />
    <glyph glyph-name="fattened.eight" unicode="&#xe0be;" horiz-adv-x="366" 
d="M240 299c24 29 43 60 43 98c0 43 -45 68 -92 68c-44 0 -69 -33 -69 -65c0 -19 8 -37 27 -48zM286 273c51 -30 86 -71 86 -129c0 -73 -66 -144 -189 -144c-95 0 -183 58 -183 147c0 48 33 84 68 119c-35 28 -51 64 -51 100c0 68 60 134 174 134c79 0 157 -33 157 -103
c0 -48 -28 -88 -62 -124zM113 238c-26 -26 -47 -54 -47 -91c0 -63 53 -112 117 -112c52 0 82 39 82 77c0 22 -9 43 -31 56z" />
    <glyph glyph-name="fattened.nine" unicode="&#xe0bf;" horiz-adv-x="339" 
d="M170 268c48 0 53 42 53 98s-5 99 -53 99c-50 0 -61 -42 -61 -99s11 -98 61 -98zM223 248c-15 -10 -33 -15 -53 -15c-100 0 -170 41 -170 133s70 134 170 134c112 0 170 -124 170 -250c0 -128 -72 -250 -190 -250c-72 0 -136 47 -136 115c0 36 29 66 65 66s66 -30 66 -66
c0 -24 -40 -25 -40 -49c0 -20 23 -31 45 -31c67 0 74 69 74 146c0 22 -1 45 -1 67z" />
    <glyph glyph-name="fattened.fixedwidth.zero" unicode="&#xe0c0;" horiz-adv-x="400" 
d="M200 456c-63 0 -67 -102 -67 -180v-26v-26c0 -78 4 -180 67 -180s67 102 67 180v26v26c0 78 -4 180 -67 180zM200 500c116 0 183 -123 183 -250s-67 -250 -183 -250s-183 123 -183 250s67 250 183 250z" />
    <glyph glyph-name="fattened.fixedwidth.one" unicode="&#xe0c1;" horiz-adv-x="400" 
d="M221 487c16 0 29 14 39 14s19 -12 19 -26v-358c0 -44 31 -82 73 -82c12 0 17 -9 17 -18s-5 -17 -17 -17c-44 0 -87 13 -131 13s-87 -13 -131 -13c-12 0 -18 8 -18 17s6 18 18 18c42 0 72 38 72 82v176c0 18 -13 28 -24 28c-6 0 -12 -3 -15 -9l-38 -80
c-4 -9 -12 -13 -19 -13c-11 0 -23 9 -23 21c0 3 1 7 3 10l116 250c8 17 39 -13 59 -13z" />
    <glyph glyph-name="fattened.fixedwidth.two" unicode="&#xe0c2;" horiz-adv-x="400" 
d="M106 64c-61 0 -45 -64 -72 -64c-9 0 -17 6 -17 17c0 154 231 165 231 338c0 54 -19 110 -66 110c-25 0 -48 -13 -48 -36c0 -27 35 -42 35 -69c0 -38 -31 -69 -69 -69s-69 31 -69 69c0 79 70 140 151 140c95 0 183 -57 183 -145c0 -146 -144 -157 -237 -217c5 1 10 1 15 1
c84 0 115 -60 170 -60c44 0 28 38 52 38c9 0 18 -7 18 -17c0 -25 -44 -100 -135 -100c-90 0 -92 64 -142 64z" />
    <glyph glyph-name="fattened.fixedwidth.three" unicode="&#xe0c3;" horiz-adv-x="400" 
d="M289 265c0 -46 78 -32 78 -125c0 -92 -79 -140 -179 -140c-80 0 -155 50 -155 125c0 36 30 66 66 66s66 -30 66 -66c0 -25 -41 -29 -41 -54c0 -27 33 -36 64 -36c45 0 62 53 62 105c0 58 -1 103 -50 103h-72c-15 0 -22 11 -22 22s7 21 22 21h72c48 0 50 44 50 100
c0 49 -21 79 -67 79c-27 0 -54 -10 -54 -33c0 -22 36 -25 36 -47c0 -32 -26 -57 -58 -57s-57 25 -57 57c0 67 62 115 133 115c91 0 169 -33 169 -114c0 -106 -63 -73 -63 -121z" />
    <glyph glyph-name="fattened.fixedwidth.four" unicode="&#xe0c4;" horiz-adv-x="400" 
d="M158 501c8 0 37 -14 67 -14c31 0 59 14 70 14c12 0 21 -8 21 -17c0 -3 -1 -6 -3 -9l-269 -306h152v80c0 50 42 34 68 76c7 12 10 26 16 38c3 6 7 9 13 9c9 0 20 -8 20 -21v-182h65c15 0 22 -11 22 -22s-7 -22 -22 -22h-65v-8c0 -44 30 -82 72 -82c12 0 18 -9 18 -18
s-6 -17 -18 -17c-44 0 -87 13 -131 13s-87 -13 -131 -13c-12 0 -18 8 -18 17s6 18 18 18c42 0 73 38 73 82v8h-152c-35 0 -47 22 -47 35c0 18 141 139 141 315c0 14 9 26 20 26z" />
    <glyph glyph-name="fattened.fixedwidth.four.alt" unicode="&#xe0c5;" horiz-adv-x="400" 
d="M158 501c8 0 37 -14 67 -14c31 0 59 14 70 14c12 0 21 -8 21 -17c0 -3 -1 -6 -3 -9l-269 -306h152v3c0 50 42 35 68 77c7 12 10 25 16 37c3 6 7 9 13 9c9 0 20 -8 20 -21v-105h65c15 0 22 -11 22 -22s-7 -22 -22 -22h-65v-8c0 -44 30 -82 72 -82c12 0 18 -9 18 -18
s-6 -17 -18 -17c-44 0 -87 13 -131 13s-87 -13 -131 -13c-12 0 -18 8 -18 17s6 18 18 18c42 0 73 38 73 82v8h-152c-35 0 -47 22 -47 35c0 18 141 139 141 315c0 14 9 26 20 26z" />
    </font>
</defs>
</svg>
